%
M48
M72
T01C0.02756
T02C0.03200
T03C0.03600
T04C0.03937
T05C0.05512
T06C0.12598
%
T01
X28809Y53874
X28809Y46000
X28809Y38520
T02
X47169Y76000
X57169Y76000
T03
X47169Y250200
X47169Y240200
X47169Y230200
X47169Y220200
X47169Y210200
X47169Y200200
X47169Y190200
X47169Y180200
X47169Y170200
X47169Y160200
X47169Y150200
X47169Y140200
X47169Y130200
X47169Y120200
X57169Y120200
X57169Y130200
X57169Y140200
X57169Y150200
X57169Y160200
X57169Y170200
X57169Y180200
X57169Y190200
X57169Y200200
X57169Y210200
X57169Y220200
X57169Y230200
X57169Y240200
X57169Y250200
X67169Y250200
X67169Y240200
X67169Y230200
X67169Y220200
X67169Y210200
X67169Y200200
X67169Y190200
X67169Y180200
X67169Y170200
X67169Y160200
X67169Y150200
X67169Y140200
X67169Y130200
X67169Y120200
X77169Y120200
X77169Y130200
X77169Y140200
X77169Y150200
X77169Y160200
X77169Y170200
X77169Y180200
X77169Y190200
X77169Y200200
X77169Y210200
X77169Y220200
X77169Y230200
X77169Y240200
X77169Y250200
X87169Y250200
X87169Y240200
X87169Y230200
X87169Y220200
X87169Y210200
X87169Y200200
X87169Y190200
X87169Y180200
X87169Y170200
X87169Y160200
X87169Y150200
X87169Y140200
X87169Y130200
X87169Y120200
X97169Y120200
X97169Y130200
X97169Y140200
X97169Y150200
X97169Y160200
X97169Y170200
X97169Y180200
X97169Y190200
X97169Y200200
X97169Y210200
X97169Y220200
X97169Y230200
X97169Y240200
X97169Y250200
X107169Y250200
X107169Y240200
X107169Y230200
X107169Y220200
X107169Y210200
X107169Y200200
X107169Y190200
X107169Y180200
X107169Y170200
X107169Y160200
X107169Y150200
X107169Y140200
X107169Y130200
X107169Y120200
X117169Y120200
X117169Y130200
X117169Y140200
X117169Y150200
X117169Y160200
X117169Y170200
X117169Y180200
X117169Y190200
X117169Y200200
X117169Y210200
X117169Y220200
X117169Y230200
X117169Y240200
X117169Y250200
X127169Y250200
X127169Y240200
X127169Y230200
X127169Y220200
X127169Y210200
X127169Y200200
X127169Y190200
X127169Y180200
X127169Y170200
X127169Y160200
X127169Y150200
X127169Y140200
X127169Y130200
X127169Y120200
X137169Y120200
X137169Y130200
X137169Y140200
X137169Y150200
X137169Y160200
X137169Y170200
X137169Y180200
X137169Y190200
X137169Y200200
X137169Y210200
X137169Y220200
X137169Y230200
X137169Y240200
X137169Y250200
X147169Y250200
X147169Y240200
X147169Y230200
X147169Y220200
X147169Y210200
X147169Y200200
X147169Y190200
X147169Y180200
X147169Y170200
X147169Y160200
X147169Y150200
X147169Y140200
X147169Y130200
X147169Y120200
X157169Y120200
X157169Y130200
X157169Y140200
X157169Y150200
X157169Y160200
X157169Y170200
X157169Y180200
X157169Y190200
X157169Y200200
X157169Y210200
X157169Y220200
X157169Y230200
X157169Y240200
X157169Y250200
T04
X23578Y13209
X183578Y13209
X183601Y323269
X23601Y323269
T05
X28809Y64898
X28809Y27102
T06
X104709Y321609
M30
