G75*
%MOIN*%
%OFA0B0*%
%FSLAX25Y25*%
%IPPOS*%
%LPD*%
%AMOC8*
5,1,8,0,0,1.08239X$1,22.5*
%
%ADD10C,0.00000*%
%ADD11R,0.02100X0.00350*%
%ADD12R,0.03850X0.00350*%
%ADD13R,0.04900X0.00350*%
%ADD14R,0.05600X0.00350*%
%ADD15R,0.06300X0.00350*%
%ADD16R,0.07000X0.00350*%
%ADD17R,0.07700X0.00350*%
%ADD18R,0.08050X0.00350*%
%ADD19R,0.08400X0.00350*%
%ADD20R,0.08750X0.00350*%
%ADD21R,0.01400X0.00350*%
%ADD22R,0.05950X0.00350*%
%ADD23R,0.01750X0.00350*%
%ADD24R,0.09450X0.00350*%
%ADD25R,0.09800X0.00350*%
%ADD26R,0.02450X0.00350*%
%ADD27R,0.10500X0.00350*%
%ADD28R,0.02800X0.00350*%
%ADD29R,0.05250X0.00350*%
%ADD30R,0.04550X0.00350*%
%ADD31R,0.04200X0.00350*%
%ADD32R,0.03500X0.00350*%
%ADD33R,0.06650X0.00350*%
%ADD34R,0.03150X0.00350*%
%ADD35R,0.01050X0.00350*%
%ADD36R,0.07350X0.00350*%
%ADD37R,0.10150X0.00350*%
%ADD38R,0.09100X0.00350*%
%ADD39R,0.11200X0.00350*%
%ADD40R,0.11550X0.00350*%
%ADD41R,0.10850X0.00350*%
%ADD42C,0.00800*%
%ADD43C,0.00100*%
%ADD44C,0.00600*%
%ADD45C,0.00500*%
%ADD46C,0.00400*%
D10*
X0008809Y0018071D02*
X0008329Y0320837D01*
X0021632Y0323269D02*
X0021634Y0323357D01*
X0021640Y0323445D01*
X0021650Y0323533D01*
X0021664Y0323621D01*
X0021681Y0323707D01*
X0021703Y0323793D01*
X0021728Y0323877D01*
X0021758Y0323961D01*
X0021790Y0324043D01*
X0021827Y0324123D01*
X0021867Y0324202D01*
X0021911Y0324279D01*
X0021958Y0324354D01*
X0022008Y0324426D01*
X0022062Y0324497D01*
X0022118Y0324564D01*
X0022178Y0324630D01*
X0022240Y0324692D01*
X0022306Y0324752D01*
X0022373Y0324808D01*
X0022444Y0324862D01*
X0022516Y0324912D01*
X0022591Y0324959D01*
X0022668Y0325003D01*
X0022747Y0325043D01*
X0022827Y0325080D01*
X0022909Y0325112D01*
X0022993Y0325142D01*
X0023077Y0325167D01*
X0023163Y0325189D01*
X0023249Y0325206D01*
X0023337Y0325220D01*
X0023425Y0325230D01*
X0023513Y0325236D01*
X0023601Y0325238D01*
X0023689Y0325236D01*
X0023777Y0325230D01*
X0023865Y0325220D01*
X0023953Y0325206D01*
X0024039Y0325189D01*
X0024125Y0325167D01*
X0024209Y0325142D01*
X0024293Y0325112D01*
X0024375Y0325080D01*
X0024455Y0325043D01*
X0024534Y0325003D01*
X0024611Y0324959D01*
X0024686Y0324912D01*
X0024758Y0324862D01*
X0024829Y0324808D01*
X0024896Y0324752D01*
X0024962Y0324692D01*
X0025024Y0324630D01*
X0025084Y0324564D01*
X0025140Y0324497D01*
X0025194Y0324426D01*
X0025244Y0324354D01*
X0025291Y0324279D01*
X0025335Y0324202D01*
X0025375Y0324123D01*
X0025412Y0324043D01*
X0025444Y0323961D01*
X0025474Y0323877D01*
X0025499Y0323793D01*
X0025521Y0323707D01*
X0025538Y0323621D01*
X0025552Y0323533D01*
X0025562Y0323445D01*
X0025568Y0323357D01*
X0025570Y0323269D01*
X0025568Y0323181D01*
X0025562Y0323093D01*
X0025552Y0323005D01*
X0025538Y0322917D01*
X0025521Y0322831D01*
X0025499Y0322745D01*
X0025474Y0322661D01*
X0025444Y0322577D01*
X0025412Y0322495D01*
X0025375Y0322415D01*
X0025335Y0322336D01*
X0025291Y0322259D01*
X0025244Y0322184D01*
X0025194Y0322112D01*
X0025140Y0322041D01*
X0025084Y0321974D01*
X0025024Y0321908D01*
X0024962Y0321846D01*
X0024896Y0321786D01*
X0024829Y0321730D01*
X0024758Y0321676D01*
X0024686Y0321626D01*
X0024611Y0321579D01*
X0024534Y0321535D01*
X0024455Y0321495D01*
X0024375Y0321458D01*
X0024293Y0321426D01*
X0024209Y0321396D01*
X0024125Y0321371D01*
X0024039Y0321349D01*
X0023953Y0321332D01*
X0023865Y0321318D01*
X0023777Y0321308D01*
X0023689Y0321302D01*
X0023601Y0321300D01*
X0023513Y0321302D01*
X0023425Y0321308D01*
X0023337Y0321318D01*
X0023249Y0321332D01*
X0023163Y0321349D01*
X0023077Y0321371D01*
X0022993Y0321396D01*
X0022909Y0321426D01*
X0022827Y0321458D01*
X0022747Y0321495D01*
X0022668Y0321535D01*
X0022591Y0321579D01*
X0022516Y0321626D01*
X0022444Y0321676D01*
X0022373Y0321730D01*
X0022306Y0321786D01*
X0022240Y0321846D01*
X0022178Y0321908D01*
X0022118Y0321974D01*
X0022062Y0322041D01*
X0022008Y0322112D01*
X0021958Y0322184D01*
X0021911Y0322259D01*
X0021867Y0322336D01*
X0021827Y0322415D01*
X0021790Y0322495D01*
X0021758Y0322577D01*
X0021728Y0322661D01*
X0021703Y0322745D01*
X0021681Y0322831D01*
X0021664Y0322917D01*
X0021650Y0323005D01*
X0021640Y0323093D01*
X0021634Y0323181D01*
X0021632Y0323269D01*
X0008329Y0320837D02*
X0008334Y0321248D01*
X0008349Y0321659D01*
X0008374Y0322069D01*
X0008408Y0322478D01*
X0008453Y0322887D01*
X0008507Y0323294D01*
X0008572Y0323700D01*
X0008646Y0324104D01*
X0008730Y0324506D01*
X0008823Y0324906D01*
X0008926Y0325304D01*
X0009039Y0325699D01*
X0009161Y0326092D01*
X0009293Y0326481D01*
X0009434Y0326867D01*
X0009584Y0327249D01*
X0009744Y0327628D01*
X0009913Y0328003D01*
X0010090Y0328373D01*
X0010277Y0328739D01*
X0010472Y0329101D01*
X0010676Y0329457D01*
X0010889Y0329809D01*
X0011110Y0330155D01*
X0011339Y0330496D01*
X0011576Y0330832D01*
X0011822Y0331161D01*
X0012075Y0331485D01*
X0012337Y0331802D01*
X0012605Y0332113D01*
X0012882Y0332417D01*
X0013165Y0332714D01*
X0013456Y0333005D01*
X0013753Y0333288D01*
X0014057Y0333565D01*
X0014368Y0333833D01*
X0014685Y0334095D01*
X0015009Y0334348D01*
X0015338Y0334594D01*
X0015674Y0334831D01*
X0016015Y0335060D01*
X0016361Y0335281D01*
X0016713Y0335494D01*
X0017069Y0335698D01*
X0017431Y0335893D01*
X0017797Y0336080D01*
X0018167Y0336257D01*
X0018542Y0336426D01*
X0018921Y0336586D01*
X0019303Y0336736D01*
X0019689Y0336877D01*
X0020078Y0337009D01*
X0020471Y0337131D01*
X0020866Y0337244D01*
X0021264Y0337347D01*
X0021664Y0337440D01*
X0022066Y0337524D01*
X0022470Y0337598D01*
X0022876Y0337663D01*
X0023283Y0337717D01*
X0023692Y0337762D01*
X0024101Y0337796D01*
X0024511Y0337821D01*
X0024922Y0337836D01*
X0025333Y0337841D01*
X0182309Y0337841D01*
X0181632Y0323269D02*
X0181634Y0323357D01*
X0181640Y0323445D01*
X0181650Y0323533D01*
X0181664Y0323621D01*
X0181681Y0323707D01*
X0181703Y0323793D01*
X0181728Y0323877D01*
X0181758Y0323961D01*
X0181790Y0324043D01*
X0181827Y0324123D01*
X0181867Y0324202D01*
X0181911Y0324279D01*
X0181958Y0324354D01*
X0182008Y0324426D01*
X0182062Y0324497D01*
X0182118Y0324564D01*
X0182178Y0324630D01*
X0182240Y0324692D01*
X0182306Y0324752D01*
X0182373Y0324808D01*
X0182444Y0324862D01*
X0182516Y0324912D01*
X0182591Y0324959D01*
X0182668Y0325003D01*
X0182747Y0325043D01*
X0182827Y0325080D01*
X0182909Y0325112D01*
X0182993Y0325142D01*
X0183077Y0325167D01*
X0183163Y0325189D01*
X0183249Y0325206D01*
X0183337Y0325220D01*
X0183425Y0325230D01*
X0183513Y0325236D01*
X0183601Y0325238D01*
X0183689Y0325236D01*
X0183777Y0325230D01*
X0183865Y0325220D01*
X0183953Y0325206D01*
X0184039Y0325189D01*
X0184125Y0325167D01*
X0184209Y0325142D01*
X0184293Y0325112D01*
X0184375Y0325080D01*
X0184455Y0325043D01*
X0184534Y0325003D01*
X0184611Y0324959D01*
X0184686Y0324912D01*
X0184758Y0324862D01*
X0184829Y0324808D01*
X0184896Y0324752D01*
X0184962Y0324692D01*
X0185024Y0324630D01*
X0185084Y0324564D01*
X0185140Y0324497D01*
X0185194Y0324426D01*
X0185244Y0324354D01*
X0185291Y0324279D01*
X0185335Y0324202D01*
X0185375Y0324123D01*
X0185412Y0324043D01*
X0185444Y0323961D01*
X0185474Y0323877D01*
X0185499Y0323793D01*
X0185521Y0323707D01*
X0185538Y0323621D01*
X0185552Y0323533D01*
X0185562Y0323445D01*
X0185568Y0323357D01*
X0185570Y0323269D01*
X0185568Y0323181D01*
X0185562Y0323093D01*
X0185552Y0323005D01*
X0185538Y0322917D01*
X0185521Y0322831D01*
X0185499Y0322745D01*
X0185474Y0322661D01*
X0185444Y0322577D01*
X0185412Y0322495D01*
X0185375Y0322415D01*
X0185335Y0322336D01*
X0185291Y0322259D01*
X0185244Y0322184D01*
X0185194Y0322112D01*
X0185140Y0322041D01*
X0185084Y0321974D01*
X0185024Y0321908D01*
X0184962Y0321846D01*
X0184896Y0321786D01*
X0184829Y0321730D01*
X0184758Y0321676D01*
X0184686Y0321626D01*
X0184611Y0321579D01*
X0184534Y0321535D01*
X0184455Y0321495D01*
X0184375Y0321458D01*
X0184293Y0321426D01*
X0184209Y0321396D01*
X0184125Y0321371D01*
X0184039Y0321349D01*
X0183953Y0321332D01*
X0183865Y0321318D01*
X0183777Y0321308D01*
X0183689Y0321302D01*
X0183601Y0321300D01*
X0183513Y0321302D01*
X0183425Y0321308D01*
X0183337Y0321318D01*
X0183249Y0321332D01*
X0183163Y0321349D01*
X0183077Y0321371D01*
X0182993Y0321396D01*
X0182909Y0321426D01*
X0182827Y0321458D01*
X0182747Y0321495D01*
X0182668Y0321535D01*
X0182591Y0321579D01*
X0182516Y0321626D01*
X0182444Y0321676D01*
X0182373Y0321730D01*
X0182306Y0321786D01*
X0182240Y0321846D01*
X0182178Y0321908D01*
X0182118Y0321974D01*
X0182062Y0322041D01*
X0182008Y0322112D01*
X0181958Y0322184D01*
X0181911Y0322259D01*
X0181867Y0322336D01*
X0181827Y0322415D01*
X0181790Y0322495D01*
X0181758Y0322577D01*
X0181728Y0322661D01*
X0181703Y0322745D01*
X0181681Y0322831D01*
X0181664Y0322917D01*
X0181650Y0323005D01*
X0181640Y0323093D01*
X0181634Y0323181D01*
X0181632Y0323269D01*
X0182309Y0337841D02*
X0182665Y0337837D01*
X0183020Y0337824D01*
X0183375Y0337802D01*
X0183730Y0337772D01*
X0184083Y0337734D01*
X0184436Y0337687D01*
X0184787Y0337631D01*
X0185137Y0337567D01*
X0185486Y0337494D01*
X0185832Y0337413D01*
X0186176Y0337324D01*
X0186518Y0337226D01*
X0186858Y0337121D01*
X0187195Y0337006D01*
X0187529Y0336884D01*
X0187860Y0336754D01*
X0188188Y0336616D01*
X0188512Y0336470D01*
X0188833Y0336316D01*
X0189150Y0336155D01*
X0189463Y0335986D01*
X0189772Y0335809D01*
X0190076Y0335625D01*
X0190376Y0335434D01*
X0190671Y0335235D01*
X0190962Y0335030D01*
X0191247Y0334817D01*
X0191527Y0334598D01*
X0191802Y0334371D01*
X0192071Y0334139D01*
X0192334Y0333900D01*
X0192592Y0333654D01*
X0192843Y0333403D01*
X0193089Y0333145D01*
X0193328Y0332882D01*
X0193560Y0332613D01*
X0193787Y0332338D01*
X0194006Y0332058D01*
X0194219Y0331773D01*
X0194424Y0331482D01*
X0194623Y0331187D01*
X0194814Y0330887D01*
X0194998Y0330583D01*
X0195175Y0330274D01*
X0195344Y0329961D01*
X0195505Y0329644D01*
X0195659Y0329323D01*
X0195805Y0328999D01*
X0195943Y0328671D01*
X0196073Y0328340D01*
X0196195Y0328006D01*
X0196310Y0327669D01*
X0196415Y0327329D01*
X0196513Y0326987D01*
X0196602Y0326643D01*
X0196683Y0326297D01*
X0196756Y0325948D01*
X0196820Y0325598D01*
X0196876Y0325247D01*
X0196923Y0324894D01*
X0196961Y0324541D01*
X0196991Y0324186D01*
X0197013Y0323831D01*
X0197026Y0323476D01*
X0197030Y0323120D01*
X0197510Y0015784D01*
X0181609Y0013209D02*
X0181611Y0013297D01*
X0181617Y0013385D01*
X0181627Y0013473D01*
X0181641Y0013561D01*
X0181658Y0013647D01*
X0181680Y0013733D01*
X0181705Y0013817D01*
X0181735Y0013901D01*
X0181767Y0013983D01*
X0181804Y0014063D01*
X0181844Y0014142D01*
X0181888Y0014219D01*
X0181935Y0014294D01*
X0181985Y0014366D01*
X0182039Y0014437D01*
X0182095Y0014504D01*
X0182155Y0014570D01*
X0182217Y0014632D01*
X0182283Y0014692D01*
X0182350Y0014748D01*
X0182421Y0014802D01*
X0182493Y0014852D01*
X0182568Y0014899D01*
X0182645Y0014943D01*
X0182724Y0014983D01*
X0182804Y0015020D01*
X0182886Y0015052D01*
X0182970Y0015082D01*
X0183054Y0015107D01*
X0183140Y0015129D01*
X0183226Y0015146D01*
X0183314Y0015160D01*
X0183402Y0015170D01*
X0183490Y0015176D01*
X0183578Y0015178D01*
X0183666Y0015176D01*
X0183754Y0015170D01*
X0183842Y0015160D01*
X0183930Y0015146D01*
X0184016Y0015129D01*
X0184102Y0015107D01*
X0184186Y0015082D01*
X0184270Y0015052D01*
X0184352Y0015020D01*
X0184432Y0014983D01*
X0184511Y0014943D01*
X0184588Y0014899D01*
X0184663Y0014852D01*
X0184735Y0014802D01*
X0184806Y0014748D01*
X0184873Y0014692D01*
X0184939Y0014632D01*
X0185001Y0014570D01*
X0185061Y0014504D01*
X0185117Y0014437D01*
X0185171Y0014366D01*
X0185221Y0014294D01*
X0185268Y0014219D01*
X0185312Y0014142D01*
X0185352Y0014063D01*
X0185389Y0013983D01*
X0185421Y0013901D01*
X0185451Y0013817D01*
X0185476Y0013733D01*
X0185498Y0013647D01*
X0185515Y0013561D01*
X0185529Y0013473D01*
X0185539Y0013385D01*
X0185545Y0013297D01*
X0185547Y0013209D01*
X0185545Y0013121D01*
X0185539Y0013033D01*
X0185529Y0012945D01*
X0185515Y0012857D01*
X0185498Y0012771D01*
X0185476Y0012685D01*
X0185451Y0012601D01*
X0185421Y0012517D01*
X0185389Y0012435D01*
X0185352Y0012355D01*
X0185312Y0012276D01*
X0185268Y0012199D01*
X0185221Y0012124D01*
X0185171Y0012052D01*
X0185117Y0011981D01*
X0185061Y0011914D01*
X0185001Y0011848D01*
X0184939Y0011786D01*
X0184873Y0011726D01*
X0184806Y0011670D01*
X0184735Y0011616D01*
X0184663Y0011566D01*
X0184588Y0011519D01*
X0184511Y0011475D01*
X0184432Y0011435D01*
X0184352Y0011398D01*
X0184270Y0011366D01*
X0184186Y0011336D01*
X0184102Y0011311D01*
X0184016Y0011289D01*
X0183930Y0011272D01*
X0183842Y0011258D01*
X0183754Y0011248D01*
X0183666Y0011242D01*
X0183578Y0011240D01*
X0183490Y0011242D01*
X0183402Y0011248D01*
X0183314Y0011258D01*
X0183226Y0011272D01*
X0183140Y0011289D01*
X0183054Y0011311D01*
X0182970Y0011336D01*
X0182886Y0011366D01*
X0182804Y0011398D01*
X0182724Y0011435D01*
X0182645Y0011475D01*
X0182568Y0011519D01*
X0182493Y0011566D01*
X0182421Y0011616D01*
X0182350Y0011670D01*
X0182283Y0011726D01*
X0182217Y0011786D01*
X0182155Y0011848D01*
X0182095Y0011914D01*
X0182039Y0011981D01*
X0181985Y0012052D01*
X0181935Y0012124D01*
X0181888Y0012199D01*
X0181844Y0012276D01*
X0181804Y0012355D01*
X0181767Y0012435D01*
X0181735Y0012517D01*
X0181705Y0012601D01*
X0181680Y0012685D01*
X0181658Y0012771D01*
X0181641Y0012857D01*
X0181627Y0012945D01*
X0181617Y0013033D01*
X0181611Y0013121D01*
X0181609Y0013209D01*
X0182726Y0001000D02*
X0183083Y0001004D01*
X0183440Y0001017D01*
X0183797Y0001039D01*
X0184153Y0001069D01*
X0184508Y0001108D01*
X0184862Y0001155D01*
X0185215Y0001211D01*
X0185566Y0001275D01*
X0185916Y0001348D01*
X0186264Y0001430D01*
X0186610Y0001519D01*
X0186953Y0001617D01*
X0187295Y0001724D01*
X0187633Y0001838D01*
X0187968Y0001961D01*
X0188301Y0002091D01*
X0188630Y0002230D01*
X0188956Y0002377D01*
X0189278Y0002531D01*
X0189596Y0002693D01*
X0189911Y0002863D01*
X0190221Y0003041D01*
X0190527Y0003225D01*
X0190828Y0003418D01*
X0191124Y0003617D01*
X0191416Y0003823D01*
X0191702Y0004037D01*
X0191984Y0004257D01*
X0192259Y0004484D01*
X0192530Y0004718D01*
X0192794Y0004958D01*
X0193053Y0005205D01*
X0193305Y0005457D01*
X0193552Y0005716D01*
X0193792Y0005980D01*
X0194026Y0006251D01*
X0194253Y0006526D01*
X0194473Y0006808D01*
X0194687Y0007094D01*
X0194893Y0007386D01*
X0195092Y0007682D01*
X0195285Y0007983D01*
X0195469Y0008289D01*
X0195647Y0008599D01*
X0195817Y0008914D01*
X0195979Y0009232D01*
X0196133Y0009554D01*
X0196280Y0009880D01*
X0196419Y0010209D01*
X0196549Y0010542D01*
X0196672Y0010877D01*
X0196786Y0011215D01*
X0196893Y0011557D01*
X0196991Y0011900D01*
X0197080Y0012246D01*
X0197162Y0012594D01*
X0197235Y0012944D01*
X0197299Y0013295D01*
X0197355Y0013648D01*
X0197402Y0014002D01*
X0197441Y0014357D01*
X0197471Y0014713D01*
X0197493Y0015070D01*
X0197506Y0015427D01*
X0197510Y0015784D01*
X0182726Y0001000D02*
X0025880Y0001000D01*
X0021609Y0013209D02*
X0021611Y0013297D01*
X0021617Y0013385D01*
X0021627Y0013473D01*
X0021641Y0013561D01*
X0021658Y0013647D01*
X0021680Y0013733D01*
X0021705Y0013817D01*
X0021735Y0013901D01*
X0021767Y0013983D01*
X0021804Y0014063D01*
X0021844Y0014142D01*
X0021888Y0014219D01*
X0021935Y0014294D01*
X0021985Y0014366D01*
X0022039Y0014437D01*
X0022095Y0014504D01*
X0022155Y0014570D01*
X0022217Y0014632D01*
X0022283Y0014692D01*
X0022350Y0014748D01*
X0022421Y0014802D01*
X0022493Y0014852D01*
X0022568Y0014899D01*
X0022645Y0014943D01*
X0022724Y0014983D01*
X0022804Y0015020D01*
X0022886Y0015052D01*
X0022970Y0015082D01*
X0023054Y0015107D01*
X0023140Y0015129D01*
X0023226Y0015146D01*
X0023314Y0015160D01*
X0023402Y0015170D01*
X0023490Y0015176D01*
X0023578Y0015178D01*
X0023666Y0015176D01*
X0023754Y0015170D01*
X0023842Y0015160D01*
X0023930Y0015146D01*
X0024016Y0015129D01*
X0024102Y0015107D01*
X0024186Y0015082D01*
X0024270Y0015052D01*
X0024352Y0015020D01*
X0024432Y0014983D01*
X0024511Y0014943D01*
X0024588Y0014899D01*
X0024663Y0014852D01*
X0024735Y0014802D01*
X0024806Y0014748D01*
X0024873Y0014692D01*
X0024939Y0014632D01*
X0025001Y0014570D01*
X0025061Y0014504D01*
X0025117Y0014437D01*
X0025171Y0014366D01*
X0025221Y0014294D01*
X0025268Y0014219D01*
X0025312Y0014142D01*
X0025352Y0014063D01*
X0025389Y0013983D01*
X0025421Y0013901D01*
X0025451Y0013817D01*
X0025476Y0013733D01*
X0025498Y0013647D01*
X0025515Y0013561D01*
X0025529Y0013473D01*
X0025539Y0013385D01*
X0025545Y0013297D01*
X0025547Y0013209D01*
X0025545Y0013121D01*
X0025539Y0013033D01*
X0025529Y0012945D01*
X0025515Y0012857D01*
X0025498Y0012771D01*
X0025476Y0012685D01*
X0025451Y0012601D01*
X0025421Y0012517D01*
X0025389Y0012435D01*
X0025352Y0012355D01*
X0025312Y0012276D01*
X0025268Y0012199D01*
X0025221Y0012124D01*
X0025171Y0012052D01*
X0025117Y0011981D01*
X0025061Y0011914D01*
X0025001Y0011848D01*
X0024939Y0011786D01*
X0024873Y0011726D01*
X0024806Y0011670D01*
X0024735Y0011616D01*
X0024663Y0011566D01*
X0024588Y0011519D01*
X0024511Y0011475D01*
X0024432Y0011435D01*
X0024352Y0011398D01*
X0024270Y0011366D01*
X0024186Y0011336D01*
X0024102Y0011311D01*
X0024016Y0011289D01*
X0023930Y0011272D01*
X0023842Y0011258D01*
X0023754Y0011248D01*
X0023666Y0011242D01*
X0023578Y0011240D01*
X0023490Y0011242D01*
X0023402Y0011248D01*
X0023314Y0011258D01*
X0023226Y0011272D01*
X0023140Y0011289D01*
X0023054Y0011311D01*
X0022970Y0011336D01*
X0022886Y0011366D01*
X0022804Y0011398D01*
X0022724Y0011435D01*
X0022645Y0011475D01*
X0022568Y0011519D01*
X0022493Y0011566D01*
X0022421Y0011616D01*
X0022350Y0011670D01*
X0022283Y0011726D01*
X0022217Y0011786D01*
X0022155Y0011848D01*
X0022095Y0011914D01*
X0022039Y0011981D01*
X0021985Y0012052D01*
X0021935Y0012124D01*
X0021888Y0012199D01*
X0021844Y0012276D01*
X0021804Y0012355D01*
X0021767Y0012435D01*
X0021735Y0012517D01*
X0021705Y0012601D01*
X0021680Y0012685D01*
X0021658Y0012771D01*
X0021641Y0012857D01*
X0021627Y0012945D01*
X0021617Y0013033D01*
X0021611Y0013121D01*
X0021609Y0013209D01*
X0025880Y0001000D02*
X0025468Y0001005D01*
X0025055Y0001020D01*
X0024643Y0001045D01*
X0024232Y0001080D01*
X0023822Y0001124D01*
X0023413Y0001179D01*
X0023006Y0001244D01*
X0022600Y0001318D01*
X0022196Y0001402D01*
X0021795Y0001496D01*
X0021395Y0001600D01*
X0020999Y0001713D01*
X0020605Y0001836D01*
X0020214Y0001968D01*
X0019827Y0002109D01*
X0019443Y0002260D01*
X0019062Y0002420D01*
X0018686Y0002590D01*
X0018314Y0002768D01*
X0017947Y0002955D01*
X0017584Y0003151D01*
X0017226Y0003356D01*
X0016873Y0003570D01*
X0016525Y0003792D01*
X0016183Y0004022D01*
X0015846Y0004260D01*
X0015515Y0004507D01*
X0015190Y0004761D01*
X0014872Y0005023D01*
X0014560Y0005293D01*
X0014254Y0005570D01*
X0013956Y0005855D01*
X0013664Y0006147D01*
X0013379Y0006445D01*
X0013102Y0006751D01*
X0012832Y0007063D01*
X0012570Y0007381D01*
X0012316Y0007706D01*
X0012069Y0008037D01*
X0011831Y0008374D01*
X0011601Y0008716D01*
X0011379Y0009064D01*
X0011165Y0009417D01*
X0010960Y0009775D01*
X0010764Y0010138D01*
X0010577Y0010505D01*
X0010399Y0010877D01*
X0010229Y0011253D01*
X0010069Y0011634D01*
X0009918Y0012018D01*
X0009777Y0012405D01*
X0009645Y0012796D01*
X0009522Y0013190D01*
X0009409Y0013586D01*
X0009305Y0013986D01*
X0009211Y0014387D01*
X0009127Y0014791D01*
X0009053Y0015197D01*
X0008988Y0015604D01*
X0008933Y0016013D01*
X0008889Y0016423D01*
X0008854Y0016834D01*
X0008829Y0017246D01*
X0008814Y0017659D01*
X0008809Y0018071D01*
X0098410Y0321609D02*
X0098412Y0321767D01*
X0098418Y0321925D01*
X0098428Y0322083D01*
X0098442Y0322241D01*
X0098460Y0322398D01*
X0098481Y0322555D01*
X0098507Y0322711D01*
X0098537Y0322867D01*
X0098570Y0323022D01*
X0098608Y0323175D01*
X0098649Y0323328D01*
X0098694Y0323480D01*
X0098743Y0323631D01*
X0098796Y0323780D01*
X0098852Y0323928D01*
X0098912Y0324074D01*
X0098976Y0324219D01*
X0099044Y0324362D01*
X0099115Y0324504D01*
X0099189Y0324644D01*
X0099267Y0324781D01*
X0099349Y0324917D01*
X0099433Y0325051D01*
X0099522Y0325182D01*
X0099613Y0325311D01*
X0099708Y0325438D01*
X0099805Y0325563D01*
X0099906Y0325685D01*
X0100010Y0325804D01*
X0100117Y0325921D01*
X0100227Y0326035D01*
X0100340Y0326146D01*
X0100455Y0326255D01*
X0100573Y0326360D01*
X0100694Y0326462D01*
X0100817Y0326562D01*
X0100943Y0326658D01*
X0101071Y0326751D01*
X0101201Y0326841D01*
X0101334Y0326927D01*
X0101469Y0327011D01*
X0101605Y0327090D01*
X0101744Y0327167D01*
X0101885Y0327239D01*
X0102027Y0327309D01*
X0102171Y0327374D01*
X0102317Y0327436D01*
X0102464Y0327494D01*
X0102613Y0327549D01*
X0102763Y0327600D01*
X0102914Y0327647D01*
X0103066Y0327690D01*
X0103219Y0327729D01*
X0103374Y0327765D01*
X0103529Y0327796D01*
X0103685Y0327824D01*
X0103841Y0327848D01*
X0103998Y0327868D01*
X0104156Y0327884D01*
X0104313Y0327896D01*
X0104472Y0327904D01*
X0104630Y0327908D01*
X0104788Y0327908D01*
X0104946Y0327904D01*
X0105105Y0327896D01*
X0105262Y0327884D01*
X0105420Y0327868D01*
X0105577Y0327848D01*
X0105733Y0327824D01*
X0105889Y0327796D01*
X0106044Y0327765D01*
X0106199Y0327729D01*
X0106352Y0327690D01*
X0106504Y0327647D01*
X0106655Y0327600D01*
X0106805Y0327549D01*
X0106954Y0327494D01*
X0107101Y0327436D01*
X0107247Y0327374D01*
X0107391Y0327309D01*
X0107533Y0327239D01*
X0107674Y0327167D01*
X0107813Y0327090D01*
X0107949Y0327011D01*
X0108084Y0326927D01*
X0108217Y0326841D01*
X0108347Y0326751D01*
X0108475Y0326658D01*
X0108601Y0326562D01*
X0108724Y0326462D01*
X0108845Y0326360D01*
X0108963Y0326255D01*
X0109078Y0326146D01*
X0109191Y0326035D01*
X0109301Y0325921D01*
X0109408Y0325804D01*
X0109512Y0325685D01*
X0109613Y0325563D01*
X0109710Y0325438D01*
X0109805Y0325311D01*
X0109896Y0325182D01*
X0109985Y0325051D01*
X0110069Y0324917D01*
X0110151Y0324781D01*
X0110229Y0324644D01*
X0110303Y0324504D01*
X0110374Y0324362D01*
X0110442Y0324219D01*
X0110506Y0324074D01*
X0110566Y0323928D01*
X0110622Y0323780D01*
X0110675Y0323631D01*
X0110724Y0323480D01*
X0110769Y0323328D01*
X0110810Y0323175D01*
X0110848Y0323022D01*
X0110881Y0322867D01*
X0110911Y0322711D01*
X0110937Y0322555D01*
X0110958Y0322398D01*
X0110976Y0322241D01*
X0110990Y0322083D01*
X0111000Y0321925D01*
X0111006Y0321767D01*
X0111008Y0321609D01*
X0111006Y0321451D01*
X0111000Y0321293D01*
X0110990Y0321135D01*
X0110976Y0320977D01*
X0110958Y0320820D01*
X0110937Y0320663D01*
X0110911Y0320507D01*
X0110881Y0320351D01*
X0110848Y0320196D01*
X0110810Y0320043D01*
X0110769Y0319890D01*
X0110724Y0319738D01*
X0110675Y0319587D01*
X0110622Y0319438D01*
X0110566Y0319290D01*
X0110506Y0319144D01*
X0110442Y0318999D01*
X0110374Y0318856D01*
X0110303Y0318714D01*
X0110229Y0318574D01*
X0110151Y0318437D01*
X0110069Y0318301D01*
X0109985Y0318167D01*
X0109896Y0318036D01*
X0109805Y0317907D01*
X0109710Y0317780D01*
X0109613Y0317655D01*
X0109512Y0317533D01*
X0109408Y0317414D01*
X0109301Y0317297D01*
X0109191Y0317183D01*
X0109078Y0317072D01*
X0108963Y0316963D01*
X0108845Y0316858D01*
X0108724Y0316756D01*
X0108601Y0316656D01*
X0108475Y0316560D01*
X0108347Y0316467D01*
X0108217Y0316377D01*
X0108084Y0316291D01*
X0107949Y0316207D01*
X0107813Y0316128D01*
X0107674Y0316051D01*
X0107533Y0315979D01*
X0107391Y0315909D01*
X0107247Y0315844D01*
X0107101Y0315782D01*
X0106954Y0315724D01*
X0106805Y0315669D01*
X0106655Y0315618D01*
X0106504Y0315571D01*
X0106352Y0315528D01*
X0106199Y0315489D01*
X0106044Y0315453D01*
X0105889Y0315422D01*
X0105733Y0315394D01*
X0105577Y0315370D01*
X0105420Y0315350D01*
X0105262Y0315334D01*
X0105105Y0315322D01*
X0104946Y0315314D01*
X0104788Y0315310D01*
X0104630Y0315310D01*
X0104472Y0315314D01*
X0104313Y0315322D01*
X0104156Y0315334D01*
X0103998Y0315350D01*
X0103841Y0315370D01*
X0103685Y0315394D01*
X0103529Y0315422D01*
X0103374Y0315453D01*
X0103219Y0315489D01*
X0103066Y0315528D01*
X0102914Y0315571D01*
X0102763Y0315618D01*
X0102613Y0315669D01*
X0102464Y0315724D01*
X0102317Y0315782D01*
X0102171Y0315844D01*
X0102027Y0315909D01*
X0101885Y0315979D01*
X0101744Y0316051D01*
X0101605Y0316128D01*
X0101469Y0316207D01*
X0101334Y0316291D01*
X0101201Y0316377D01*
X0101071Y0316467D01*
X0100943Y0316560D01*
X0100817Y0316656D01*
X0100694Y0316756D01*
X0100573Y0316858D01*
X0100455Y0316963D01*
X0100340Y0317072D01*
X0100227Y0317183D01*
X0100117Y0317297D01*
X0100010Y0317414D01*
X0099906Y0317533D01*
X0099805Y0317655D01*
X0099708Y0317780D01*
X0099613Y0317907D01*
X0099522Y0318036D01*
X0099433Y0318167D01*
X0099349Y0318301D01*
X0099267Y0318437D01*
X0099189Y0318574D01*
X0099115Y0318714D01*
X0099044Y0318856D01*
X0098976Y0318999D01*
X0098912Y0319144D01*
X0098852Y0319290D01*
X0098796Y0319438D01*
X0098743Y0319587D01*
X0098694Y0319738D01*
X0098649Y0319890D01*
X0098608Y0320043D01*
X0098570Y0320196D01*
X0098537Y0320351D01*
X0098507Y0320507D01*
X0098481Y0320663D01*
X0098460Y0320820D01*
X0098442Y0320977D01*
X0098428Y0321135D01*
X0098418Y0321293D01*
X0098412Y0321451D01*
X0098410Y0321609D01*
D11*
X0098584Y0295350D03*
X0098934Y0295000D03*
X0098934Y0289050D03*
X0098584Y0288700D03*
X0098234Y0288350D03*
X0104184Y0290800D03*
X0107334Y0292900D03*
X0108034Y0293250D03*
X0108384Y0293600D03*
X0109084Y0293950D03*
X0110134Y0294650D03*
X0111184Y0295350D03*
X0111534Y0295700D03*
X0112234Y0296050D03*
X0112584Y0296400D03*
X0108734Y0291500D03*
X0109784Y0290800D03*
X0110134Y0290450D03*
X0110484Y0290100D03*
X0110834Y0289750D03*
X0111184Y0289400D03*
X0111534Y0289050D03*
X0111884Y0288700D03*
X0112234Y0288350D03*
X0117134Y0289050D03*
X0117484Y0288700D03*
X0117834Y0295350D03*
X0125534Y0295350D03*
X0125884Y0290800D03*
X0126234Y0290450D03*
X0125884Y0288700D03*
X0125534Y0288350D03*
X0131484Y0280300D03*
X0132184Y0279950D03*
X0132184Y0274700D03*
X0142684Y0291150D03*
X0142684Y0291500D03*
X0142684Y0291850D03*
X0142684Y0292200D03*
X0142684Y0292550D03*
X0143384Y0294300D03*
X0143734Y0294650D03*
X0144084Y0295000D03*
X0144434Y0295350D03*
X0143034Y0290100D03*
X0143384Y0289750D03*
X0144434Y0288700D03*
X0152834Y0288700D03*
X0153184Y0289050D03*
X0153534Y0289400D03*
X0154234Y0290450D03*
X0154234Y0293250D03*
X0153534Y0294650D03*
X0153184Y0295000D03*
X0152484Y0295350D03*
X0159134Y0296400D03*
X0161584Y0293950D03*
X0162284Y0293250D03*
X0162634Y0292900D03*
X0163334Y0292200D03*
X0164034Y0291500D03*
X0164384Y0291150D03*
X0165084Y0290450D03*
X0165434Y0290100D03*
X0165784Y0289750D03*
X0166134Y0289400D03*
X0168234Y0287300D03*
X0164734Y0280650D03*
X0090534Y0295350D03*
X0090184Y0295000D03*
X0089834Y0294650D03*
X0089484Y0294300D03*
X0089134Y0293600D03*
X0089134Y0290450D03*
X0089484Y0289750D03*
X0085634Y0287650D03*
X0084934Y0288700D03*
X0084584Y0289400D03*
X0076184Y0290100D03*
X0075134Y0288350D03*
X0074784Y0287650D03*
X0060084Y0289050D03*
X0059734Y0288700D03*
X0059734Y0291150D03*
X0058684Y0292900D03*
X0059384Y0295000D03*
X0059034Y0295350D03*
X0036634Y0289400D03*
X0031384Y0283100D03*
X0028934Y0277150D03*
X0029284Y0276800D03*
X0029634Y0276450D03*
X0029984Y0276100D03*
X0030334Y0275750D03*
X0036634Y0270500D03*
X0024034Y0289400D03*
X0023684Y0289050D03*
X0022284Y0287650D03*
X0021934Y0287300D03*
X0022284Y0283800D03*
D12*
X0027709Y0279250D03*
X0036809Y0270850D03*
X0038909Y0276450D03*
X0038909Y0281700D03*
X0094559Y0296750D03*
X0105059Y0291850D03*
X0121509Y0296750D03*
X0167359Y0289050D03*
D13*
X0151084Y0276800D03*
X0120284Y0292550D03*
X0036634Y0288700D03*
X0036634Y0300600D03*
X0026834Y0290800D03*
X0027184Y0280300D03*
X0036634Y0271200D03*
D14*
X0036634Y0271550D03*
X0038034Y0283100D03*
X0036634Y0288350D03*
X0036634Y0300250D03*
X0027534Y0291150D03*
X0127284Y0281000D03*
D15*
X0148634Y0296400D03*
X0151784Y0277150D03*
X0037684Y0275050D03*
X0036634Y0271900D03*
X0036634Y0288000D03*
X0036634Y0299900D03*
D16*
X0036634Y0299550D03*
X0028934Y0291850D03*
X0036634Y0272250D03*
X0121684Y0287650D03*
X0127984Y0274000D03*
X0152134Y0280650D03*
D17*
X0141634Y0274000D03*
X0141634Y0273650D03*
X0164734Y0276100D03*
X0176634Y0274000D03*
X0176634Y0273650D03*
X0117484Y0273650D03*
X0117484Y0274000D03*
X0036634Y0272600D03*
X0036634Y0286600D03*
X0036634Y0286950D03*
D18*
X0036459Y0286250D03*
X0029809Y0292200D03*
X0036459Y0298850D03*
X0036459Y0272950D03*
X0054659Y0292200D03*
X0054659Y0292550D03*
X0094559Y0296050D03*
X0121509Y0296050D03*
X0148459Y0296050D03*
D19*
X0054834Y0287650D03*
X0036284Y0298500D03*
X0030334Y0292550D03*
X0036284Y0273300D03*
D20*
X0036109Y0273650D03*
X0036459Y0285550D03*
X0036459Y0285900D03*
X0036109Y0298150D03*
X0055009Y0296050D03*
X0055009Y0291850D03*
X0068309Y0288000D03*
X0068309Y0287650D03*
X0068309Y0287300D03*
D21*
X0076884Y0291500D03*
X0077234Y0292200D03*
X0077934Y0293250D03*
X0078284Y0293950D03*
X0078634Y0294650D03*
X0078984Y0295350D03*
X0081084Y0295350D03*
X0082484Y0292900D03*
X0104184Y0280300D03*
X0104184Y0279950D03*
X0104184Y0279600D03*
X0104184Y0279250D03*
X0104184Y0278900D03*
X0104184Y0278550D03*
X0104184Y0278200D03*
X0104184Y0277850D03*
X0104184Y0276800D03*
X0104184Y0276450D03*
X0104184Y0276100D03*
X0104184Y0275750D03*
X0104184Y0275400D03*
X0104184Y0275050D03*
X0104184Y0274700D03*
X0104184Y0274350D03*
X0104184Y0274000D03*
X0104184Y0273650D03*
X0114334Y0274350D03*
X0114334Y0274700D03*
X0114334Y0275050D03*
X0114334Y0275400D03*
X0114334Y0275750D03*
X0114334Y0276100D03*
X0114334Y0276450D03*
X0114334Y0276800D03*
X0114334Y0277850D03*
X0114334Y0278200D03*
X0114334Y0278550D03*
X0114334Y0278900D03*
X0114334Y0279250D03*
X0114334Y0279600D03*
X0114334Y0279950D03*
X0114334Y0280300D03*
X0116784Y0290100D03*
X0125184Y0280300D03*
X0125184Y0279950D03*
X0125184Y0279600D03*
X0125184Y0279250D03*
X0125184Y0278900D03*
X0125184Y0278550D03*
X0125184Y0278200D03*
X0125184Y0277850D03*
X0125184Y0277500D03*
X0125184Y0277150D03*
X0125184Y0276800D03*
X0125184Y0276450D03*
X0125184Y0276100D03*
X0125184Y0275750D03*
X0125184Y0275400D03*
X0125184Y0275050D03*
X0125184Y0274700D03*
X0125184Y0274350D03*
X0133234Y0275750D03*
X0133584Y0276100D03*
X0133584Y0276450D03*
X0133584Y0276800D03*
X0133584Y0277150D03*
X0133584Y0277500D03*
X0133584Y0277850D03*
X0133584Y0278200D03*
X0133584Y0278550D03*
X0133234Y0278900D03*
X0138484Y0278900D03*
X0138484Y0279250D03*
X0138484Y0279600D03*
X0138484Y0279950D03*
X0138484Y0280300D03*
X0138484Y0278550D03*
X0138484Y0278200D03*
X0138484Y0277850D03*
X0138484Y0276800D03*
X0138484Y0276450D03*
X0138484Y0276100D03*
X0138484Y0275750D03*
X0138484Y0275400D03*
X0138484Y0275050D03*
X0138484Y0274700D03*
X0138484Y0274350D03*
X0149334Y0274350D03*
X0149334Y0274000D03*
X0149334Y0273650D03*
X0149334Y0274700D03*
X0149334Y0275050D03*
X0149334Y0275400D03*
X0149334Y0275750D03*
X0149334Y0276100D03*
X0149334Y0276450D03*
X0149334Y0277500D03*
X0149334Y0277850D03*
X0149334Y0278200D03*
X0149334Y0278550D03*
X0149334Y0278900D03*
X0149334Y0279250D03*
X0149334Y0279600D03*
X0149334Y0279950D03*
X0149334Y0280300D03*
X0153884Y0275750D03*
X0154584Y0275050D03*
X0155984Y0278550D03*
X0155984Y0279600D03*
X0160534Y0274350D03*
X0160184Y0274000D03*
X0160884Y0275050D03*
X0161234Y0275400D03*
X0161234Y0275750D03*
X0161934Y0276800D03*
X0162284Y0277150D03*
X0162634Y0277850D03*
X0162984Y0278200D03*
X0162984Y0278550D03*
X0163334Y0278900D03*
X0163684Y0279250D03*
X0163684Y0279600D03*
X0164734Y0281000D03*
X0165784Y0279600D03*
X0166134Y0279250D03*
X0166134Y0278900D03*
X0166484Y0278550D03*
X0166484Y0278200D03*
X0166834Y0277850D03*
X0167184Y0277150D03*
X0167534Y0276800D03*
X0168234Y0275750D03*
X0168234Y0275400D03*
X0168584Y0275050D03*
X0168934Y0274350D03*
X0169284Y0274000D03*
X0173484Y0274350D03*
X0173484Y0274700D03*
X0173484Y0275050D03*
X0173484Y0275400D03*
X0173484Y0275750D03*
X0173484Y0276100D03*
X0173484Y0276450D03*
X0173484Y0276800D03*
X0173484Y0277150D03*
X0173484Y0277500D03*
X0173484Y0277850D03*
X0173484Y0278200D03*
X0173484Y0278550D03*
X0173484Y0278900D03*
X0173484Y0279250D03*
X0173484Y0279600D03*
X0173484Y0279950D03*
X0173484Y0280300D03*
X0173484Y0280650D03*
X0173484Y0281000D03*
X0173484Y0288350D03*
X0173484Y0288700D03*
X0173484Y0289050D03*
X0173484Y0289400D03*
X0173484Y0289750D03*
X0173484Y0290100D03*
X0173484Y0290450D03*
X0173484Y0290800D03*
X0173484Y0291150D03*
X0173484Y0291500D03*
X0173484Y0292900D03*
X0173484Y0293250D03*
X0173484Y0293600D03*
X0173484Y0293950D03*
X0173484Y0294300D03*
X0173484Y0294650D03*
X0173484Y0295000D03*
X0173484Y0295350D03*
X0059384Y0293600D03*
X0036634Y0301300D03*
X0030334Y0282400D03*
X0029984Y0282050D03*
X0023334Y0282400D03*
D22*
X0027009Y0281000D03*
X0094559Y0296400D03*
X0121509Y0296400D03*
X0121509Y0292200D03*
X0127459Y0273650D03*
X0151609Y0281000D03*
D23*
X0153009Y0276450D03*
X0153359Y0276100D03*
X0154409Y0275400D03*
X0155109Y0274700D03*
X0155459Y0274350D03*
X0155809Y0274000D03*
X0156159Y0273650D03*
X0160009Y0273650D03*
X0160709Y0274700D03*
X0162459Y0277500D03*
X0167009Y0277500D03*
X0167709Y0276450D03*
X0168759Y0274700D03*
X0169459Y0273650D03*
X0168409Y0289400D03*
X0168409Y0289750D03*
X0168409Y0290100D03*
X0168409Y0290450D03*
X0168409Y0290800D03*
X0168409Y0291150D03*
X0168409Y0291500D03*
X0168409Y0291850D03*
X0168409Y0292200D03*
X0168409Y0292550D03*
X0168409Y0292900D03*
X0168409Y0293250D03*
X0168409Y0293600D03*
X0168409Y0293950D03*
X0168409Y0294300D03*
X0168409Y0294650D03*
X0168409Y0295000D03*
X0168409Y0295350D03*
X0168409Y0295700D03*
X0168409Y0296050D03*
X0168409Y0296400D03*
X0163859Y0291850D03*
X0163159Y0292550D03*
X0162109Y0293600D03*
X0161409Y0294300D03*
X0161059Y0294650D03*
X0158959Y0294650D03*
X0158959Y0294300D03*
X0158959Y0293950D03*
X0158959Y0293600D03*
X0158959Y0293250D03*
X0158959Y0292900D03*
X0158959Y0292550D03*
X0158959Y0292200D03*
X0158959Y0291850D03*
X0158959Y0291500D03*
X0158959Y0291150D03*
X0158959Y0290800D03*
X0158959Y0290450D03*
X0158959Y0290100D03*
X0158959Y0289750D03*
X0158959Y0289400D03*
X0158959Y0289050D03*
X0158959Y0288700D03*
X0158959Y0288350D03*
X0158959Y0288000D03*
X0158959Y0287650D03*
X0158959Y0287300D03*
X0155459Y0280300D03*
X0155809Y0279950D03*
X0156159Y0279250D03*
X0156159Y0278900D03*
X0155809Y0278200D03*
X0155459Y0277850D03*
X0153709Y0289750D03*
X0154059Y0290100D03*
X0154409Y0290800D03*
X0154409Y0291150D03*
X0154409Y0291500D03*
X0154409Y0291850D03*
X0154409Y0292200D03*
X0154409Y0292550D03*
X0154409Y0292900D03*
X0154059Y0293600D03*
X0154059Y0293950D03*
X0153709Y0294300D03*
X0143209Y0293950D03*
X0142859Y0293600D03*
X0142859Y0293250D03*
X0142859Y0292900D03*
X0142859Y0290800D03*
X0142859Y0290450D03*
X0143559Y0289400D03*
X0143909Y0289050D03*
X0134459Y0289050D03*
X0134459Y0289400D03*
X0134459Y0289750D03*
X0134459Y0290100D03*
X0134459Y0290450D03*
X0134459Y0290800D03*
X0134459Y0291150D03*
X0134459Y0291500D03*
X0134459Y0291850D03*
X0134459Y0292200D03*
X0134459Y0292550D03*
X0134459Y0292900D03*
X0134459Y0293250D03*
X0134459Y0293600D03*
X0134459Y0293950D03*
X0134459Y0294300D03*
X0134459Y0294650D03*
X0134459Y0295000D03*
X0134459Y0295350D03*
X0134459Y0295700D03*
X0134459Y0288700D03*
X0134459Y0288350D03*
X0134459Y0288000D03*
X0134459Y0287650D03*
X0134459Y0287300D03*
X0132709Y0279600D03*
X0133059Y0279250D03*
X0133059Y0275400D03*
X0132709Y0275050D03*
X0126059Y0289050D03*
X0126409Y0289400D03*
X0126409Y0289750D03*
X0126409Y0290100D03*
X0126059Y0294300D03*
X0126059Y0294650D03*
X0125709Y0295000D03*
X0117309Y0295000D03*
X0117309Y0294650D03*
X0117309Y0294300D03*
X0117309Y0293950D03*
X0117309Y0293600D03*
X0116959Y0289750D03*
X0116959Y0289400D03*
X0108559Y0291850D03*
X0104009Y0292200D03*
X0104009Y0292550D03*
X0104009Y0292900D03*
X0104009Y0293250D03*
X0104009Y0293600D03*
X0104009Y0293950D03*
X0104009Y0294300D03*
X0104009Y0294650D03*
X0104009Y0295000D03*
X0104009Y0295350D03*
X0104009Y0295700D03*
X0104009Y0296050D03*
X0104009Y0296400D03*
X0099459Y0294300D03*
X0099459Y0293950D03*
X0099109Y0294650D03*
X0099459Y0289750D03*
X0099109Y0289400D03*
X0104009Y0289400D03*
X0104009Y0289750D03*
X0104009Y0290100D03*
X0104009Y0290450D03*
X0104009Y0289050D03*
X0104009Y0288700D03*
X0104009Y0288350D03*
X0104009Y0288000D03*
X0104009Y0287650D03*
X0104009Y0287300D03*
X0090009Y0289050D03*
X0089659Y0289400D03*
X0089309Y0290100D03*
X0088959Y0290800D03*
X0088959Y0291150D03*
X0088959Y0291500D03*
X0088959Y0291850D03*
X0088959Y0292200D03*
X0088959Y0292550D03*
X0088959Y0292900D03*
X0088959Y0293250D03*
X0089309Y0293950D03*
X0084409Y0289750D03*
X0084059Y0290100D03*
X0083359Y0291150D03*
X0083359Y0291500D03*
X0083009Y0291850D03*
X0083009Y0292200D03*
X0082659Y0292550D03*
X0082309Y0293250D03*
X0081959Y0293600D03*
X0081959Y0293950D03*
X0081609Y0294300D03*
X0081609Y0294650D03*
X0081259Y0295000D03*
X0078809Y0295000D03*
X0078459Y0294300D03*
X0078109Y0293600D03*
X0077759Y0292900D03*
X0077409Y0292550D03*
X0077059Y0291850D03*
X0076709Y0291150D03*
X0076009Y0289750D03*
X0075659Y0289400D03*
X0075659Y0289050D03*
X0075309Y0288700D03*
X0074959Y0288000D03*
X0074609Y0287300D03*
X0064809Y0288350D03*
X0064809Y0288700D03*
X0064809Y0289050D03*
X0064809Y0289400D03*
X0064809Y0289750D03*
X0064809Y0290100D03*
X0064809Y0290450D03*
X0064809Y0290800D03*
X0064809Y0291150D03*
X0064809Y0291500D03*
X0064809Y0291850D03*
X0064809Y0292200D03*
X0064809Y0292550D03*
X0064809Y0292900D03*
X0064809Y0293250D03*
X0064809Y0293600D03*
X0064809Y0293950D03*
X0064809Y0294300D03*
X0064809Y0294650D03*
X0064809Y0295000D03*
X0064809Y0295350D03*
X0064809Y0295700D03*
X0064809Y0296050D03*
X0064809Y0296400D03*
X0059559Y0294650D03*
X0059559Y0294300D03*
X0059559Y0293950D03*
X0059209Y0293250D03*
X0059909Y0290800D03*
X0060259Y0290450D03*
X0060259Y0290100D03*
X0060259Y0289750D03*
X0060259Y0289400D03*
X0051509Y0289400D03*
X0051509Y0289750D03*
X0051509Y0290100D03*
X0051509Y0290450D03*
X0051509Y0290800D03*
X0051509Y0291150D03*
X0051509Y0291500D03*
X0051509Y0292900D03*
X0051509Y0293250D03*
X0051509Y0293600D03*
X0051509Y0293950D03*
X0051509Y0294300D03*
X0051509Y0294650D03*
X0051509Y0295000D03*
X0051509Y0295350D03*
X0051509Y0295700D03*
X0051509Y0289050D03*
X0051509Y0288700D03*
X0051509Y0288350D03*
X0030859Y0282750D03*
X0029459Y0281700D03*
X0024209Y0281700D03*
X0023859Y0282050D03*
X0023159Y0282750D03*
X0022809Y0283100D03*
X0022459Y0283450D03*
X0022459Y0288000D03*
X0022809Y0288350D03*
X0023159Y0288700D03*
X0084759Y0289050D03*
X0085109Y0288350D03*
X0085459Y0288000D03*
X0085809Y0287300D03*
X0164909Y0290800D03*
X0173659Y0295700D03*
D24*
X0177509Y0292550D03*
X0177509Y0292200D03*
X0177509Y0291850D03*
X0080209Y0290450D03*
X0055359Y0288000D03*
X0036109Y0284850D03*
X0036109Y0274000D03*
D25*
X0035934Y0274350D03*
X0035934Y0284150D03*
X0035934Y0284500D03*
X0031734Y0293250D03*
X0035934Y0297450D03*
D26*
X0028409Y0277850D03*
X0028759Y0277500D03*
X0030859Y0275400D03*
X0021759Y0284150D03*
X0021759Y0286950D03*
X0059209Y0288350D03*
X0059209Y0291500D03*
X0090359Y0288700D03*
X0091059Y0288350D03*
X0109259Y0291150D03*
X0109609Y0294300D03*
X0110659Y0295000D03*
X0112759Y0288000D03*
X0113109Y0287650D03*
X0113459Y0287300D03*
X0118009Y0288350D03*
X0118009Y0293250D03*
X0118359Y0295700D03*
X0131309Y0274350D03*
X0144959Y0288350D03*
X0152309Y0288350D03*
X0151959Y0295700D03*
X0159309Y0296050D03*
X0168059Y0287650D03*
X0164909Y0280300D03*
D27*
X0178034Y0287300D03*
X0178034Y0287650D03*
X0178034Y0288000D03*
X0035584Y0283450D03*
X0035584Y0274700D03*
X0032434Y0293600D03*
X0035234Y0296400D03*
D28*
X0024734Y0289750D03*
X0021584Y0286600D03*
X0021234Y0286250D03*
X0021234Y0284850D03*
X0021584Y0284500D03*
X0028234Y0278200D03*
X0031384Y0275050D03*
X0039434Y0278550D03*
X0039434Y0278900D03*
X0039434Y0279250D03*
X0039434Y0279600D03*
X0080034Y0296050D03*
X0080034Y0296400D03*
X0091234Y0295700D03*
X0091584Y0288000D03*
X0097534Y0288000D03*
X0104534Y0291150D03*
X0107334Y0292550D03*
X0097884Y0295700D03*
X0124834Y0295700D03*
X0124484Y0288000D03*
X0145834Y0288000D03*
X0151434Y0288000D03*
X0145134Y0295700D03*
X0154584Y0277500D03*
X0159484Y0295700D03*
X0167884Y0288000D03*
D29*
X0163859Y0276450D03*
X0122909Y0291850D03*
X0038209Y0282750D03*
X0038209Y0275400D03*
X0027009Y0280650D03*
D30*
X0027359Y0279950D03*
X0026309Y0290450D03*
X0038559Y0282400D03*
X0038559Y0275750D03*
X0094559Y0287300D03*
X0121859Y0287300D03*
X0148459Y0287300D03*
D31*
X0038734Y0282050D03*
X0038734Y0276100D03*
X0027534Y0279600D03*
D32*
X0027884Y0278900D03*
X0025434Y0290100D03*
X0020884Y0285550D03*
X0036634Y0289050D03*
X0039084Y0281350D03*
X0039084Y0281000D03*
X0039084Y0277150D03*
X0039084Y0276800D03*
X0036634Y0300950D03*
X0057984Y0295700D03*
X0080034Y0295700D03*
X0107334Y0292200D03*
X0118884Y0292900D03*
X0148634Y0296750D03*
X0159834Y0295000D03*
X0167534Y0288700D03*
D33*
X0148459Y0287650D03*
X0141109Y0277500D03*
X0141109Y0277150D03*
X0116959Y0277150D03*
X0116959Y0277500D03*
X0106809Y0277500D03*
X0106809Y0277150D03*
X0094559Y0287650D03*
X0053959Y0287300D03*
X0036809Y0287650D03*
X0028409Y0291500D03*
X0027009Y0281350D03*
D34*
X0028059Y0278550D03*
X0021059Y0285200D03*
X0021059Y0285900D03*
X0039259Y0280650D03*
X0039259Y0280300D03*
X0039259Y0279950D03*
X0039259Y0278200D03*
X0039259Y0277850D03*
X0039259Y0277500D03*
X0104709Y0291500D03*
X0119059Y0288000D03*
X0124659Y0291500D03*
X0125359Y0291150D03*
X0159659Y0295350D03*
X0167709Y0288350D03*
D35*
X0165609Y0279950D03*
X0163859Y0279950D03*
D36*
X0141459Y0280650D03*
X0141459Y0281000D03*
X0128159Y0280650D03*
X0117309Y0280650D03*
X0117309Y0281000D03*
X0107159Y0281000D03*
X0107159Y0280650D03*
X0054309Y0296400D03*
X0036459Y0299200D03*
X0036809Y0287300D03*
D37*
X0035759Y0283800D03*
X0035409Y0296750D03*
X0035759Y0297100D03*
X0177859Y0296400D03*
X0177859Y0296050D03*
D38*
X0080034Y0290800D03*
X0036284Y0285200D03*
X0031034Y0292900D03*
X0035934Y0297800D03*
D39*
X0034884Y0295700D03*
X0034534Y0295350D03*
X0034184Y0295000D03*
X0033134Y0293950D03*
X0134634Y0296050D03*
X0134634Y0296400D03*
D40*
X0034009Y0294650D03*
X0033659Y0294300D03*
D41*
X0035059Y0296050D03*
D42*
X0062169Y0083500D02*
X0062169Y0068500D01*
X0087274Y0064307D02*
X0087274Y0058598D01*
X0087274Y0064307D02*
X0099281Y0074937D01*
X0158337Y0074937D01*
X0170344Y0064307D01*
X0170344Y0058598D01*
X0170344Y0033402D02*
X0170344Y0028087D01*
X0150659Y0014701D01*
X0149780Y0015219D01*
X0148888Y0015716D01*
X0147984Y0016191D01*
X0147070Y0016644D01*
X0146144Y0017075D01*
X0145209Y0017483D01*
X0144264Y0017869D01*
X0143309Y0018232D01*
X0142346Y0018571D01*
X0141376Y0018887D01*
X0140398Y0019179D01*
X0139413Y0019448D01*
X0138422Y0019693D01*
X0137425Y0019913D01*
X0136423Y0020110D01*
X0135417Y0020282D01*
X0134407Y0020430D01*
X0133394Y0020553D01*
X0132378Y0020652D01*
X0131360Y0020726D01*
X0130340Y0020775D01*
X0129319Y0020800D01*
X0128299Y0020800D01*
X0127278Y0020775D01*
X0126258Y0020726D01*
X0125240Y0020652D01*
X0124224Y0020553D01*
X0123211Y0020430D01*
X0122201Y0020282D01*
X0121195Y0020110D01*
X0120193Y0019913D01*
X0119196Y0019693D01*
X0118205Y0019448D01*
X0117220Y0019179D01*
X0116242Y0018887D01*
X0115272Y0018571D01*
X0114309Y0018232D01*
X0113354Y0017869D01*
X0112409Y0017483D01*
X0111474Y0017075D01*
X0110548Y0016644D01*
X0109634Y0016191D01*
X0108730Y0015716D01*
X0107838Y0015219D01*
X0106959Y0014701D01*
X0087274Y0028087D01*
X0087274Y0033402D01*
D43*
X0062498Y0083809D02*
X0061778Y0083269D01*
X0061779Y0083270D02*
X0061598Y0083503D01*
X0061412Y0083731D01*
X0061220Y0083955D01*
X0061023Y0084174D01*
X0060821Y0084388D01*
X0060613Y0084597D01*
X0060400Y0084800D01*
X0060183Y0084999D01*
X0059960Y0085192D01*
X0059733Y0085380D01*
X0059502Y0085562D01*
X0059266Y0085739D01*
X0059025Y0085909D01*
X0058781Y0086074D01*
X0058533Y0086232D01*
X0058281Y0086385D01*
X0058025Y0086531D01*
X0057766Y0086671D01*
X0057503Y0086805D01*
X0057238Y0086932D01*
X0056969Y0087053D01*
X0056697Y0087167D01*
X0056423Y0087274D01*
X0056146Y0087375D01*
X0055867Y0087469D01*
X0055585Y0087556D01*
X0055302Y0087636D01*
X0055016Y0087709D01*
X0054729Y0087775D01*
X0054440Y0087834D01*
X0054150Y0087886D01*
X0053859Y0087931D01*
X0053567Y0087969D01*
X0053274Y0087999D01*
X0052980Y0088023D01*
X0052686Y0088039D01*
X0052392Y0088048D01*
X0052097Y0088050D01*
X0051802Y0088044D01*
X0051508Y0088032D01*
X0051214Y0088012D01*
X0050921Y0087985D01*
X0050628Y0087951D01*
X0050336Y0087910D01*
X0050046Y0087861D01*
X0049756Y0087806D01*
X0049469Y0087744D01*
X0049182Y0087674D01*
X0048898Y0087597D01*
X0048615Y0087514D01*
X0048335Y0087424D01*
X0048057Y0087327D01*
X0047781Y0087223D01*
X0047508Y0087112D01*
X0047238Y0086995D01*
X0046970Y0086871D01*
X0046706Y0086741D01*
X0046445Y0086604D01*
X0046188Y0086461D01*
X0045934Y0086311D01*
X0045683Y0086156D01*
X0045437Y0085994D01*
X0045195Y0085827D01*
X0044957Y0085653D01*
X0044723Y0085474D01*
X0044493Y0085289D01*
X0044269Y0085099D01*
X0044048Y0084903D01*
X0043833Y0084702D01*
X0043623Y0084495D01*
X0043418Y0084284D01*
X0043218Y0084067D01*
X0043023Y0083846D01*
X0042834Y0083620D01*
X0042651Y0083390D01*
X0042473Y0083155D01*
X0042301Y0082915D01*
X0042135Y0082672D01*
X0041975Y0082425D01*
X0041821Y0082174D01*
X0041673Y0081919D01*
X0041531Y0081660D01*
X0041396Y0081399D01*
X0041267Y0081134D01*
X0041145Y0080866D01*
X0041029Y0080595D01*
X0040920Y0080321D01*
X0040818Y0080045D01*
X0040723Y0079766D01*
X0040634Y0079485D01*
X0040552Y0079202D01*
X0040477Y0078917D01*
X0040410Y0078630D01*
X0040349Y0078342D01*
X0040295Y0078052D01*
X0040248Y0077761D01*
X0040209Y0077469D01*
X0040177Y0077177D01*
X0040151Y0076883D01*
X0040133Y0076589D01*
X0040123Y0076295D01*
X0040119Y0076000D01*
X0040123Y0075705D01*
X0040133Y0075411D01*
X0040151Y0075117D01*
X0040177Y0074823D01*
X0040209Y0074531D01*
X0040248Y0074239D01*
X0040295Y0073948D01*
X0040349Y0073658D01*
X0040410Y0073370D01*
X0040477Y0073083D01*
X0040552Y0072798D01*
X0040634Y0072515D01*
X0040723Y0072234D01*
X0040818Y0071955D01*
X0040920Y0071679D01*
X0041029Y0071405D01*
X0041145Y0071134D01*
X0041267Y0070866D01*
X0041396Y0070601D01*
X0041531Y0070340D01*
X0041673Y0070081D01*
X0041821Y0069826D01*
X0041975Y0069575D01*
X0042135Y0069328D01*
X0042301Y0069085D01*
X0042473Y0068845D01*
X0042651Y0068610D01*
X0042834Y0068380D01*
X0043023Y0068154D01*
X0043218Y0067933D01*
X0043418Y0067716D01*
X0043623Y0067505D01*
X0043833Y0067298D01*
X0044048Y0067097D01*
X0044269Y0066901D01*
X0044493Y0066711D01*
X0044723Y0066526D01*
X0044957Y0066347D01*
X0045195Y0066173D01*
X0045437Y0066006D01*
X0045683Y0065844D01*
X0045934Y0065689D01*
X0046188Y0065539D01*
X0046445Y0065396D01*
X0046706Y0065259D01*
X0046970Y0065129D01*
X0047238Y0065005D01*
X0047508Y0064888D01*
X0047781Y0064777D01*
X0048057Y0064673D01*
X0048335Y0064576D01*
X0048615Y0064486D01*
X0048898Y0064403D01*
X0049182Y0064326D01*
X0049469Y0064256D01*
X0049756Y0064194D01*
X0050046Y0064139D01*
X0050336Y0064090D01*
X0050628Y0064049D01*
X0050921Y0064015D01*
X0051214Y0063988D01*
X0051508Y0063968D01*
X0051802Y0063956D01*
X0052097Y0063950D01*
X0052392Y0063952D01*
X0052686Y0063961D01*
X0052980Y0063977D01*
X0053274Y0064001D01*
X0053567Y0064031D01*
X0053859Y0064069D01*
X0054150Y0064114D01*
X0054440Y0064166D01*
X0054729Y0064225D01*
X0055016Y0064291D01*
X0055302Y0064364D01*
X0055585Y0064444D01*
X0055867Y0064531D01*
X0056146Y0064625D01*
X0056423Y0064726D01*
X0056697Y0064833D01*
X0056969Y0064947D01*
X0057238Y0065068D01*
X0057503Y0065195D01*
X0057766Y0065329D01*
X0058025Y0065469D01*
X0058281Y0065615D01*
X0058533Y0065768D01*
X0058781Y0065926D01*
X0059025Y0066091D01*
X0059266Y0066261D01*
X0059502Y0066438D01*
X0059733Y0066620D01*
X0059960Y0066808D01*
X0060183Y0067001D01*
X0060400Y0067200D01*
X0060613Y0067403D01*
X0060821Y0067612D01*
X0061023Y0067826D01*
X0061220Y0068045D01*
X0061412Y0068269D01*
X0061598Y0068497D01*
X0061779Y0068730D01*
X0062498Y0068191D01*
X0062499Y0068190D01*
X0062305Y0067940D01*
X0062105Y0067694D01*
X0061899Y0067454D01*
X0061687Y0067219D01*
X0061469Y0066989D01*
X0061246Y0066764D01*
X0061018Y0066545D01*
X0060784Y0066331D01*
X0060545Y0066123D01*
X0060301Y0065921D01*
X0060052Y0065726D01*
X0059798Y0065536D01*
X0059540Y0065353D01*
X0059278Y0065176D01*
X0059011Y0065005D01*
X0058740Y0064841D01*
X0058465Y0064684D01*
X0058187Y0064533D01*
X0057904Y0064389D01*
X0057619Y0064253D01*
X0057330Y0064123D01*
X0057038Y0064000D01*
X0056743Y0063885D01*
X0056446Y0063777D01*
X0056145Y0063676D01*
X0055843Y0063582D01*
X0055538Y0063496D01*
X0055231Y0063417D01*
X0054923Y0063346D01*
X0054613Y0063283D01*
X0054301Y0063227D01*
X0053988Y0063178D01*
X0053674Y0063138D01*
X0053359Y0063105D01*
X0053043Y0063080D01*
X0052727Y0063062D01*
X0052411Y0063052D01*
X0052094Y0063050D01*
X0051777Y0063056D01*
X0051461Y0063069D01*
X0051145Y0063091D01*
X0050830Y0063119D01*
X0050515Y0063156D01*
X0050202Y0063200D01*
X0049889Y0063252D01*
X0049578Y0063312D01*
X0049269Y0063379D01*
X0048961Y0063454D01*
X0048655Y0063536D01*
X0048352Y0063625D01*
X0048050Y0063722D01*
X0047751Y0063827D01*
X0047455Y0063939D01*
X0047161Y0064057D01*
X0046871Y0064183D01*
X0046584Y0064316D01*
X0046299Y0064457D01*
X0046019Y0064604D01*
X0045742Y0064757D01*
X0045469Y0064918D01*
X0045200Y0065085D01*
X0044935Y0065259D01*
X0044675Y0065439D01*
X0044419Y0065625D01*
X0044168Y0065818D01*
X0043921Y0066016D01*
X0043679Y0066221D01*
X0043443Y0066431D01*
X0043211Y0066648D01*
X0042986Y0066870D01*
X0042765Y0067097D01*
X0042550Y0067329D01*
X0042341Y0067567D01*
X0042138Y0067810D01*
X0041940Y0068058D01*
X0041749Y0068310D01*
X0041564Y0068567D01*
X0041386Y0068829D01*
X0041214Y0069095D01*
X0041048Y0069364D01*
X0040889Y0069638D01*
X0040737Y0069916D01*
X0040592Y0070197D01*
X0040453Y0070482D01*
X0040322Y0070770D01*
X0040198Y0071062D01*
X0040080Y0071356D01*
X0039970Y0071653D01*
X0039868Y0071952D01*
X0039773Y0072254D01*
X0039685Y0072558D01*
X0039604Y0072865D01*
X0039531Y0073173D01*
X0039466Y0073483D01*
X0039408Y0073794D01*
X0039358Y0074107D01*
X0039316Y0074421D01*
X0039281Y0074735D01*
X0039254Y0075051D01*
X0039234Y0075367D01*
X0039223Y0075683D01*
X0039219Y0076000D01*
X0039223Y0076317D01*
X0039234Y0076633D01*
X0039254Y0076949D01*
X0039281Y0077265D01*
X0039316Y0077579D01*
X0039358Y0077893D01*
X0039408Y0078206D01*
X0039466Y0078517D01*
X0039531Y0078827D01*
X0039604Y0079135D01*
X0039685Y0079442D01*
X0039773Y0079746D01*
X0039868Y0080048D01*
X0039970Y0080347D01*
X0040080Y0080644D01*
X0040198Y0080938D01*
X0040322Y0081230D01*
X0040453Y0081518D01*
X0040592Y0081803D01*
X0040737Y0082084D01*
X0040889Y0082362D01*
X0041048Y0082636D01*
X0041214Y0082905D01*
X0041386Y0083171D01*
X0041564Y0083433D01*
X0041749Y0083690D01*
X0041940Y0083942D01*
X0042138Y0084190D01*
X0042341Y0084433D01*
X0042550Y0084671D01*
X0042765Y0084903D01*
X0042986Y0085130D01*
X0043211Y0085352D01*
X0043443Y0085569D01*
X0043679Y0085779D01*
X0043921Y0085984D01*
X0044168Y0086182D01*
X0044419Y0086375D01*
X0044675Y0086561D01*
X0044935Y0086741D01*
X0045200Y0086915D01*
X0045469Y0087082D01*
X0045742Y0087243D01*
X0046019Y0087396D01*
X0046299Y0087543D01*
X0046584Y0087684D01*
X0046871Y0087817D01*
X0047161Y0087943D01*
X0047455Y0088061D01*
X0047751Y0088173D01*
X0048050Y0088278D01*
X0048352Y0088375D01*
X0048655Y0088464D01*
X0048961Y0088546D01*
X0049269Y0088621D01*
X0049578Y0088688D01*
X0049889Y0088748D01*
X0050202Y0088800D01*
X0050515Y0088844D01*
X0050830Y0088881D01*
X0051145Y0088909D01*
X0051461Y0088931D01*
X0051777Y0088944D01*
X0052094Y0088950D01*
X0052411Y0088948D01*
X0052727Y0088938D01*
X0053043Y0088920D01*
X0053359Y0088895D01*
X0053674Y0088862D01*
X0053988Y0088822D01*
X0054301Y0088773D01*
X0054613Y0088717D01*
X0054923Y0088654D01*
X0055231Y0088583D01*
X0055538Y0088504D01*
X0055843Y0088418D01*
X0056145Y0088324D01*
X0056446Y0088223D01*
X0056743Y0088115D01*
X0057038Y0088000D01*
X0057330Y0087877D01*
X0057619Y0087747D01*
X0057904Y0087611D01*
X0058187Y0087467D01*
X0058465Y0087316D01*
X0058740Y0087159D01*
X0059011Y0086995D01*
X0059278Y0086824D01*
X0059540Y0086647D01*
X0059798Y0086464D01*
X0060052Y0086274D01*
X0060301Y0086079D01*
X0060545Y0085877D01*
X0060784Y0085669D01*
X0061018Y0085455D01*
X0061246Y0085236D01*
X0061469Y0085011D01*
X0061687Y0084781D01*
X0061899Y0084546D01*
X0062105Y0084306D01*
X0062305Y0084060D01*
X0062499Y0083810D01*
X0062424Y0083754D01*
X0062231Y0084002D01*
X0062032Y0084246D01*
X0061828Y0084484D01*
X0061618Y0084718D01*
X0061402Y0084946D01*
X0061180Y0085169D01*
X0060953Y0085387D01*
X0060721Y0085599D01*
X0060484Y0085805D01*
X0060242Y0086006D01*
X0059994Y0086200D01*
X0059743Y0086388D01*
X0059486Y0086570D01*
X0059226Y0086746D01*
X0058961Y0086915D01*
X0058692Y0087078D01*
X0058419Y0087234D01*
X0058143Y0087384D01*
X0057863Y0087526D01*
X0057579Y0087662D01*
X0057292Y0087791D01*
X0057002Y0087913D01*
X0056710Y0088027D01*
X0056414Y0088135D01*
X0056116Y0088235D01*
X0055816Y0088328D01*
X0055513Y0088413D01*
X0055209Y0088491D01*
X0054903Y0088562D01*
X0054595Y0088625D01*
X0054285Y0088681D01*
X0053975Y0088729D01*
X0053663Y0088769D01*
X0053350Y0088802D01*
X0053037Y0088827D01*
X0052723Y0088844D01*
X0052409Y0088854D01*
X0052094Y0088856D01*
X0051780Y0088850D01*
X0051466Y0088837D01*
X0051152Y0088816D01*
X0050839Y0088787D01*
X0050527Y0088751D01*
X0050216Y0088707D01*
X0049906Y0088655D01*
X0049597Y0088596D01*
X0049290Y0088529D01*
X0048984Y0088455D01*
X0048681Y0088374D01*
X0048379Y0088285D01*
X0048080Y0088188D01*
X0047783Y0088085D01*
X0047489Y0087974D01*
X0047198Y0087856D01*
X0046909Y0087731D01*
X0046624Y0087599D01*
X0046342Y0087460D01*
X0046064Y0087314D01*
X0045789Y0087161D01*
X0045518Y0087002D01*
X0045251Y0086836D01*
X0044988Y0086663D01*
X0044729Y0086485D01*
X0044475Y0086300D01*
X0044226Y0086108D01*
X0043981Y0085911D01*
X0043741Y0085708D01*
X0043506Y0085499D01*
X0043276Y0085284D01*
X0043052Y0085064D01*
X0042833Y0084839D01*
X0042620Y0084608D01*
X0042412Y0084372D01*
X0042210Y0084130D01*
X0042015Y0083885D01*
X0041825Y0083634D01*
X0041641Y0083379D01*
X0041464Y0083119D01*
X0041293Y0082855D01*
X0041129Y0082587D01*
X0040971Y0082315D01*
X0040820Y0082040D01*
X0040676Y0081760D01*
X0040538Y0081478D01*
X0040408Y0081192D01*
X0040284Y0080903D01*
X0040168Y0080610D01*
X0040059Y0080316D01*
X0039957Y0080018D01*
X0039863Y0079719D01*
X0039775Y0079416D01*
X0039695Y0079112D01*
X0039623Y0078807D01*
X0039558Y0078499D01*
X0039501Y0078190D01*
X0039451Y0077879D01*
X0039409Y0077568D01*
X0039374Y0077255D01*
X0039348Y0076942D01*
X0039328Y0076628D01*
X0039317Y0076314D01*
X0039313Y0076000D01*
X0039317Y0075686D01*
X0039328Y0075372D01*
X0039348Y0075058D01*
X0039374Y0074745D01*
X0039409Y0074432D01*
X0039451Y0074121D01*
X0039501Y0073810D01*
X0039558Y0073501D01*
X0039623Y0073193D01*
X0039695Y0072888D01*
X0039775Y0072584D01*
X0039863Y0072281D01*
X0039957Y0071982D01*
X0040059Y0071684D01*
X0040168Y0071390D01*
X0040284Y0071097D01*
X0040408Y0070808D01*
X0040538Y0070522D01*
X0040676Y0070240D01*
X0040820Y0069960D01*
X0040971Y0069685D01*
X0041129Y0069413D01*
X0041293Y0069145D01*
X0041464Y0068881D01*
X0041641Y0068621D01*
X0041825Y0068366D01*
X0042015Y0068115D01*
X0042210Y0067870D01*
X0042412Y0067628D01*
X0042620Y0067392D01*
X0042833Y0067161D01*
X0043052Y0066936D01*
X0043276Y0066716D01*
X0043506Y0066501D01*
X0043741Y0066292D01*
X0043981Y0066089D01*
X0044226Y0065892D01*
X0044475Y0065700D01*
X0044729Y0065515D01*
X0044988Y0065337D01*
X0045251Y0065164D01*
X0045518Y0064998D01*
X0045789Y0064839D01*
X0046064Y0064686D01*
X0046342Y0064540D01*
X0046624Y0064401D01*
X0046909Y0064269D01*
X0047198Y0064144D01*
X0047489Y0064026D01*
X0047783Y0063915D01*
X0048080Y0063812D01*
X0048379Y0063715D01*
X0048681Y0063626D01*
X0048984Y0063545D01*
X0049290Y0063471D01*
X0049597Y0063404D01*
X0049906Y0063345D01*
X0050216Y0063293D01*
X0050527Y0063249D01*
X0050839Y0063213D01*
X0051152Y0063184D01*
X0051466Y0063163D01*
X0051780Y0063150D01*
X0052094Y0063144D01*
X0052409Y0063146D01*
X0052723Y0063156D01*
X0053037Y0063173D01*
X0053350Y0063198D01*
X0053663Y0063231D01*
X0053975Y0063271D01*
X0054285Y0063319D01*
X0054595Y0063375D01*
X0054903Y0063438D01*
X0055209Y0063509D01*
X0055513Y0063587D01*
X0055816Y0063672D01*
X0056116Y0063765D01*
X0056414Y0063865D01*
X0056710Y0063973D01*
X0057002Y0064087D01*
X0057292Y0064209D01*
X0057579Y0064338D01*
X0057863Y0064474D01*
X0058143Y0064616D01*
X0058419Y0064766D01*
X0058692Y0064922D01*
X0058961Y0065085D01*
X0059226Y0065254D01*
X0059486Y0065430D01*
X0059743Y0065612D01*
X0059994Y0065800D01*
X0060242Y0065994D01*
X0060484Y0066195D01*
X0060721Y0066401D01*
X0060953Y0066613D01*
X0061180Y0066831D01*
X0061402Y0067054D01*
X0061618Y0067282D01*
X0061828Y0067516D01*
X0062032Y0067754D01*
X0062231Y0067998D01*
X0062424Y0068246D01*
X0062349Y0068303D01*
X0062157Y0068056D01*
X0061960Y0067814D01*
X0061757Y0067577D01*
X0061548Y0067346D01*
X0061334Y0067119D01*
X0061114Y0066897D01*
X0060889Y0066681D01*
X0060658Y0066471D01*
X0060423Y0066266D01*
X0060182Y0066067D01*
X0059937Y0065874D01*
X0059687Y0065688D01*
X0059433Y0065507D01*
X0059174Y0065332D01*
X0058911Y0065164D01*
X0058644Y0065003D01*
X0058373Y0064848D01*
X0058099Y0064699D01*
X0057821Y0064558D01*
X0057539Y0064423D01*
X0057255Y0064295D01*
X0056967Y0064174D01*
X0056676Y0064060D01*
X0056383Y0063954D01*
X0056087Y0063854D01*
X0055789Y0063762D01*
X0055489Y0063677D01*
X0055186Y0063600D01*
X0054882Y0063530D01*
X0054577Y0063467D01*
X0054270Y0063412D01*
X0053961Y0063364D01*
X0053652Y0063324D01*
X0053341Y0063292D01*
X0053030Y0063267D01*
X0052719Y0063250D01*
X0052407Y0063240D01*
X0052095Y0063238D01*
X0051783Y0063244D01*
X0051471Y0063257D01*
X0051160Y0063278D01*
X0050849Y0063306D01*
X0050539Y0063343D01*
X0050230Y0063386D01*
X0049922Y0063437D01*
X0049615Y0063496D01*
X0049311Y0063562D01*
X0049007Y0063636D01*
X0048706Y0063717D01*
X0048407Y0063805D01*
X0048110Y0063901D01*
X0047815Y0064004D01*
X0047523Y0064114D01*
X0047234Y0064231D01*
X0046947Y0064355D01*
X0046664Y0064486D01*
X0046384Y0064624D01*
X0046108Y0064769D01*
X0045835Y0064921D01*
X0045566Y0065079D01*
X0045301Y0065244D01*
X0045040Y0065415D01*
X0044784Y0065592D01*
X0044531Y0065776D01*
X0044284Y0065966D01*
X0044041Y0066161D01*
X0043802Y0066363D01*
X0043569Y0066571D01*
X0043341Y0066784D01*
X0043119Y0067002D01*
X0042901Y0067226D01*
X0042690Y0067455D01*
X0042484Y0067690D01*
X0042283Y0067929D01*
X0042089Y0068173D01*
X0041901Y0068422D01*
X0041718Y0068675D01*
X0041542Y0068933D01*
X0041373Y0069195D01*
X0041210Y0069461D01*
X0041053Y0069731D01*
X0040903Y0070005D01*
X0040760Y0070282D01*
X0040623Y0070562D01*
X0040494Y0070846D01*
X0040371Y0071133D01*
X0040256Y0071423D01*
X0040148Y0071716D01*
X0040046Y0072011D01*
X0039952Y0072309D01*
X0039866Y0072609D01*
X0039787Y0072910D01*
X0039715Y0073214D01*
X0039650Y0073519D01*
X0039593Y0073826D01*
X0039544Y0074134D01*
X0039502Y0074444D01*
X0039468Y0074754D01*
X0039441Y0075065D01*
X0039422Y0075376D01*
X0039411Y0075688D01*
X0039407Y0076000D01*
X0039411Y0076312D01*
X0039422Y0076624D01*
X0039441Y0076935D01*
X0039468Y0077246D01*
X0039502Y0077556D01*
X0039544Y0077866D01*
X0039593Y0078174D01*
X0039650Y0078481D01*
X0039715Y0078786D01*
X0039787Y0079090D01*
X0039866Y0079391D01*
X0039952Y0079691D01*
X0040046Y0079989D01*
X0040148Y0080284D01*
X0040256Y0080577D01*
X0040371Y0080867D01*
X0040494Y0081154D01*
X0040623Y0081438D01*
X0040760Y0081718D01*
X0040903Y0081995D01*
X0041053Y0082269D01*
X0041210Y0082539D01*
X0041373Y0082805D01*
X0041542Y0083067D01*
X0041718Y0083325D01*
X0041901Y0083578D01*
X0042089Y0083827D01*
X0042283Y0084071D01*
X0042484Y0084310D01*
X0042690Y0084545D01*
X0042901Y0084774D01*
X0043119Y0084998D01*
X0043341Y0085216D01*
X0043569Y0085429D01*
X0043802Y0085637D01*
X0044041Y0085839D01*
X0044284Y0086034D01*
X0044531Y0086224D01*
X0044784Y0086408D01*
X0045040Y0086585D01*
X0045301Y0086756D01*
X0045566Y0086921D01*
X0045835Y0087079D01*
X0046108Y0087231D01*
X0046384Y0087376D01*
X0046664Y0087514D01*
X0046947Y0087645D01*
X0047234Y0087769D01*
X0047523Y0087886D01*
X0047815Y0087996D01*
X0048110Y0088099D01*
X0048407Y0088195D01*
X0048706Y0088283D01*
X0049007Y0088364D01*
X0049311Y0088438D01*
X0049615Y0088504D01*
X0049922Y0088563D01*
X0050230Y0088614D01*
X0050539Y0088657D01*
X0050849Y0088694D01*
X0051160Y0088722D01*
X0051471Y0088743D01*
X0051783Y0088756D01*
X0052095Y0088762D01*
X0052407Y0088760D01*
X0052719Y0088750D01*
X0053030Y0088733D01*
X0053341Y0088708D01*
X0053652Y0088676D01*
X0053961Y0088636D01*
X0054270Y0088588D01*
X0054577Y0088533D01*
X0054882Y0088470D01*
X0055186Y0088400D01*
X0055489Y0088323D01*
X0055789Y0088238D01*
X0056087Y0088146D01*
X0056383Y0088046D01*
X0056676Y0087940D01*
X0056967Y0087826D01*
X0057255Y0087705D01*
X0057539Y0087577D01*
X0057821Y0087442D01*
X0058099Y0087301D01*
X0058373Y0087152D01*
X0058644Y0086997D01*
X0058911Y0086836D01*
X0059174Y0086668D01*
X0059433Y0086493D01*
X0059687Y0086312D01*
X0059937Y0086126D01*
X0060182Y0085933D01*
X0060423Y0085734D01*
X0060658Y0085529D01*
X0060889Y0085319D01*
X0061114Y0085103D01*
X0061334Y0084881D01*
X0061548Y0084654D01*
X0061757Y0084423D01*
X0061960Y0084186D01*
X0062157Y0083944D01*
X0062349Y0083697D01*
X0062273Y0083641D01*
X0062083Y0083886D01*
X0061888Y0084126D01*
X0061686Y0084361D01*
X0061479Y0084591D01*
X0061266Y0084816D01*
X0061048Y0085036D01*
X0060824Y0085250D01*
X0060595Y0085459D01*
X0060362Y0085662D01*
X0060123Y0085860D01*
X0059880Y0086051D01*
X0059631Y0086237D01*
X0059379Y0086416D01*
X0059122Y0086589D01*
X0058861Y0086756D01*
X0058596Y0086917D01*
X0058327Y0087070D01*
X0058055Y0087218D01*
X0057779Y0087358D01*
X0057499Y0087492D01*
X0057217Y0087619D01*
X0056931Y0087739D01*
X0056643Y0087852D01*
X0056352Y0087958D01*
X0056058Y0088056D01*
X0055762Y0088148D01*
X0055464Y0088232D01*
X0055164Y0088309D01*
X0054862Y0088378D01*
X0054559Y0088441D01*
X0054254Y0088495D01*
X0053948Y0088543D01*
X0053640Y0088582D01*
X0053332Y0088614D01*
X0053024Y0088639D01*
X0052714Y0088656D01*
X0052405Y0088666D01*
X0052095Y0088668D01*
X0051785Y0088662D01*
X0051476Y0088649D01*
X0051167Y0088628D01*
X0050858Y0088600D01*
X0050551Y0088564D01*
X0050244Y0088521D01*
X0049938Y0088470D01*
X0049634Y0088412D01*
X0049331Y0088346D01*
X0049030Y0088273D01*
X0048731Y0088193D01*
X0048434Y0088105D01*
X0048139Y0088010D01*
X0047847Y0087908D01*
X0047557Y0087799D01*
X0047270Y0087682D01*
X0046986Y0087559D01*
X0046705Y0087429D01*
X0046427Y0087292D01*
X0046153Y0087148D01*
X0045882Y0086998D01*
X0045615Y0086841D01*
X0045352Y0086677D01*
X0045093Y0086507D01*
X0044838Y0086331D01*
X0044587Y0086149D01*
X0044342Y0085960D01*
X0044100Y0085766D01*
X0043864Y0085566D01*
X0043633Y0085360D01*
X0043406Y0085148D01*
X0043185Y0084931D01*
X0042970Y0084709D01*
X0042759Y0084482D01*
X0042555Y0084249D01*
X0042356Y0084011D01*
X0042163Y0083769D01*
X0041976Y0083522D01*
X0041795Y0083271D01*
X0041621Y0083015D01*
X0041452Y0082755D01*
X0041290Y0082491D01*
X0041135Y0082223D01*
X0040986Y0081951D01*
X0040844Y0081676D01*
X0040708Y0081397D01*
X0040580Y0081116D01*
X0040458Y0080831D01*
X0040344Y0080543D01*
X0040236Y0080252D01*
X0040136Y0079959D01*
X0040042Y0079664D01*
X0039956Y0079366D01*
X0039878Y0079067D01*
X0039807Y0078765D01*
X0039743Y0078462D01*
X0039686Y0078158D01*
X0039637Y0077852D01*
X0039596Y0077545D01*
X0039562Y0077237D01*
X0039535Y0076928D01*
X0039516Y0076619D01*
X0039505Y0076310D01*
X0039501Y0076000D01*
X0039505Y0075690D01*
X0039516Y0075381D01*
X0039535Y0075072D01*
X0039562Y0074763D01*
X0039596Y0074455D01*
X0039637Y0074148D01*
X0039686Y0073842D01*
X0039743Y0073538D01*
X0039807Y0073235D01*
X0039878Y0072933D01*
X0039956Y0072634D01*
X0040042Y0072336D01*
X0040136Y0072041D01*
X0040236Y0071748D01*
X0040344Y0071457D01*
X0040458Y0071169D01*
X0040580Y0070884D01*
X0040708Y0070603D01*
X0040844Y0070324D01*
X0040986Y0070049D01*
X0041135Y0069777D01*
X0041290Y0069509D01*
X0041452Y0069245D01*
X0041621Y0068985D01*
X0041795Y0068729D01*
X0041976Y0068478D01*
X0042163Y0068231D01*
X0042356Y0067989D01*
X0042555Y0067751D01*
X0042759Y0067518D01*
X0042970Y0067291D01*
X0043185Y0067069D01*
X0043406Y0066852D01*
X0043633Y0066640D01*
X0043864Y0066434D01*
X0044100Y0066234D01*
X0044342Y0066040D01*
X0044587Y0065851D01*
X0044838Y0065669D01*
X0045093Y0065493D01*
X0045352Y0065323D01*
X0045615Y0065159D01*
X0045882Y0065002D01*
X0046153Y0064852D01*
X0046427Y0064708D01*
X0046705Y0064571D01*
X0046986Y0064441D01*
X0047270Y0064318D01*
X0047557Y0064201D01*
X0047847Y0064092D01*
X0048139Y0063990D01*
X0048434Y0063895D01*
X0048731Y0063807D01*
X0049030Y0063727D01*
X0049331Y0063654D01*
X0049634Y0063588D01*
X0049938Y0063530D01*
X0050244Y0063479D01*
X0050551Y0063436D01*
X0050858Y0063400D01*
X0051167Y0063372D01*
X0051476Y0063351D01*
X0051785Y0063338D01*
X0052095Y0063332D01*
X0052405Y0063334D01*
X0052714Y0063344D01*
X0053024Y0063361D01*
X0053332Y0063386D01*
X0053640Y0063418D01*
X0053948Y0063457D01*
X0054254Y0063505D01*
X0054559Y0063559D01*
X0054862Y0063622D01*
X0055164Y0063691D01*
X0055464Y0063768D01*
X0055762Y0063852D01*
X0056058Y0063944D01*
X0056352Y0064042D01*
X0056643Y0064148D01*
X0056931Y0064261D01*
X0057217Y0064381D01*
X0057499Y0064508D01*
X0057779Y0064642D01*
X0058055Y0064782D01*
X0058327Y0064930D01*
X0058596Y0065083D01*
X0058861Y0065244D01*
X0059122Y0065411D01*
X0059379Y0065584D01*
X0059631Y0065763D01*
X0059880Y0065949D01*
X0060123Y0066140D01*
X0060362Y0066338D01*
X0060595Y0066541D01*
X0060824Y0066750D01*
X0061048Y0066964D01*
X0061266Y0067184D01*
X0061479Y0067409D01*
X0061686Y0067639D01*
X0061888Y0067874D01*
X0062083Y0068114D01*
X0062273Y0068359D01*
X0062198Y0068416D01*
X0062010Y0068173D01*
X0061815Y0067934D01*
X0061615Y0067701D01*
X0061410Y0067473D01*
X0061198Y0067249D01*
X0060982Y0067031D01*
X0060760Y0066818D01*
X0060533Y0066611D01*
X0060301Y0066409D01*
X0060064Y0066213D01*
X0059822Y0066023D01*
X0059576Y0065839D01*
X0059325Y0065661D01*
X0059070Y0065489D01*
X0058811Y0065324D01*
X0058548Y0065164D01*
X0058281Y0065012D01*
X0058011Y0064865D01*
X0057737Y0064726D01*
X0057460Y0064593D01*
X0057179Y0064467D01*
X0056896Y0064348D01*
X0056609Y0064236D01*
X0056320Y0064131D01*
X0056029Y0064033D01*
X0055735Y0063942D01*
X0055439Y0063859D01*
X0055142Y0063782D01*
X0054842Y0063713D01*
X0054541Y0063652D01*
X0054238Y0063597D01*
X0053934Y0063551D01*
X0053629Y0063511D01*
X0053324Y0063479D01*
X0053017Y0063455D01*
X0052710Y0063438D01*
X0052403Y0063428D01*
X0052095Y0063426D01*
X0051788Y0063432D01*
X0051481Y0063445D01*
X0051174Y0063465D01*
X0050868Y0063494D01*
X0050562Y0063529D01*
X0050258Y0063572D01*
X0049955Y0063623D01*
X0049653Y0063680D01*
X0049352Y0063746D01*
X0049053Y0063818D01*
X0048757Y0063898D01*
X0048462Y0063985D01*
X0048169Y0064079D01*
X0047879Y0064181D01*
X0047591Y0064289D01*
X0047306Y0064404D01*
X0047024Y0064527D01*
X0046745Y0064656D01*
X0046469Y0064792D01*
X0046197Y0064935D01*
X0045928Y0065084D01*
X0045663Y0065240D01*
X0045402Y0065402D01*
X0045145Y0065571D01*
X0044892Y0065746D01*
X0044644Y0065927D01*
X0044400Y0066114D01*
X0044160Y0066307D01*
X0043926Y0066505D01*
X0043696Y0066710D01*
X0043471Y0066920D01*
X0043252Y0067135D01*
X0043038Y0067356D01*
X0042829Y0067581D01*
X0042626Y0067812D01*
X0042429Y0068048D01*
X0042237Y0068289D01*
X0042052Y0068534D01*
X0041872Y0068783D01*
X0041699Y0069037D01*
X0041532Y0069295D01*
X0041371Y0069557D01*
X0041217Y0069823D01*
X0041069Y0070093D01*
X0040928Y0070366D01*
X0040793Y0070643D01*
X0040666Y0070922D01*
X0040545Y0071205D01*
X0040431Y0071491D01*
X0040325Y0071779D01*
X0040225Y0072070D01*
X0040132Y0072363D01*
X0040047Y0072659D01*
X0039969Y0072956D01*
X0039898Y0073255D01*
X0039835Y0073556D01*
X0039779Y0073858D01*
X0039730Y0074162D01*
X0039689Y0074467D01*
X0039655Y0074772D01*
X0039629Y0075078D01*
X0039610Y0075385D01*
X0039599Y0075693D01*
X0039595Y0076000D01*
X0039599Y0076307D01*
X0039610Y0076615D01*
X0039629Y0076922D01*
X0039655Y0077228D01*
X0039689Y0077533D01*
X0039730Y0077838D01*
X0039779Y0078142D01*
X0039835Y0078444D01*
X0039898Y0078745D01*
X0039969Y0079044D01*
X0040047Y0079341D01*
X0040132Y0079637D01*
X0040225Y0079930D01*
X0040325Y0080221D01*
X0040431Y0080509D01*
X0040545Y0080795D01*
X0040666Y0081078D01*
X0040793Y0081357D01*
X0040928Y0081634D01*
X0041069Y0081907D01*
X0041217Y0082177D01*
X0041371Y0082443D01*
X0041532Y0082705D01*
X0041699Y0082963D01*
X0041872Y0083217D01*
X0042052Y0083466D01*
X0042237Y0083711D01*
X0042429Y0083952D01*
X0042626Y0084188D01*
X0042829Y0084419D01*
X0043038Y0084644D01*
X0043252Y0084865D01*
X0043471Y0085080D01*
X0043696Y0085290D01*
X0043926Y0085495D01*
X0044160Y0085693D01*
X0044400Y0085886D01*
X0044644Y0086073D01*
X0044892Y0086254D01*
X0045145Y0086429D01*
X0045402Y0086598D01*
X0045663Y0086760D01*
X0045928Y0086916D01*
X0046197Y0087065D01*
X0046469Y0087208D01*
X0046745Y0087344D01*
X0047024Y0087473D01*
X0047306Y0087596D01*
X0047591Y0087711D01*
X0047879Y0087819D01*
X0048169Y0087921D01*
X0048462Y0088015D01*
X0048757Y0088102D01*
X0049053Y0088182D01*
X0049352Y0088254D01*
X0049653Y0088320D01*
X0049955Y0088377D01*
X0050258Y0088428D01*
X0050562Y0088471D01*
X0050868Y0088506D01*
X0051174Y0088535D01*
X0051481Y0088555D01*
X0051788Y0088568D01*
X0052095Y0088574D01*
X0052403Y0088572D01*
X0052710Y0088562D01*
X0053017Y0088545D01*
X0053324Y0088521D01*
X0053629Y0088489D01*
X0053934Y0088449D01*
X0054238Y0088403D01*
X0054541Y0088348D01*
X0054842Y0088287D01*
X0055142Y0088218D01*
X0055439Y0088141D01*
X0055735Y0088058D01*
X0056029Y0087967D01*
X0056320Y0087869D01*
X0056609Y0087764D01*
X0056896Y0087652D01*
X0057179Y0087533D01*
X0057460Y0087407D01*
X0057737Y0087274D01*
X0058011Y0087135D01*
X0058281Y0086988D01*
X0058548Y0086836D01*
X0058811Y0086676D01*
X0059070Y0086511D01*
X0059325Y0086339D01*
X0059576Y0086161D01*
X0059822Y0085977D01*
X0060064Y0085787D01*
X0060301Y0085591D01*
X0060533Y0085389D01*
X0060760Y0085182D01*
X0060982Y0084969D01*
X0061198Y0084751D01*
X0061410Y0084527D01*
X0061615Y0084299D01*
X0061815Y0084066D01*
X0062010Y0083827D01*
X0062198Y0083584D01*
X0062123Y0083528D01*
X0061936Y0083769D01*
X0061743Y0084006D01*
X0061544Y0084237D01*
X0061340Y0084464D01*
X0061131Y0084686D01*
X0060916Y0084902D01*
X0060695Y0085113D01*
X0060470Y0085319D01*
X0060240Y0085519D01*
X0060004Y0085714D01*
X0059765Y0085902D01*
X0059520Y0086085D01*
X0059271Y0086262D01*
X0059018Y0086432D01*
X0058761Y0086597D01*
X0058500Y0086755D01*
X0058235Y0086906D01*
X0057967Y0087051D01*
X0057695Y0087190D01*
X0057420Y0087322D01*
X0057141Y0087447D01*
X0056860Y0087565D01*
X0056576Y0087676D01*
X0056289Y0087780D01*
X0056000Y0087878D01*
X0055708Y0087968D01*
X0055415Y0088051D01*
X0055119Y0088126D01*
X0054822Y0088195D01*
X0054523Y0088256D01*
X0054222Y0088310D01*
X0053921Y0088356D01*
X0053618Y0088396D01*
X0053315Y0088427D01*
X0053010Y0088452D01*
X0052706Y0088468D01*
X0052401Y0088478D01*
X0052096Y0088480D01*
X0051791Y0088474D01*
X0051486Y0088461D01*
X0051181Y0088441D01*
X0050877Y0088413D01*
X0050574Y0088378D01*
X0050272Y0088335D01*
X0049971Y0088285D01*
X0049671Y0088228D01*
X0049373Y0088163D01*
X0049077Y0088091D01*
X0048782Y0088012D01*
X0048489Y0087925D01*
X0048199Y0087832D01*
X0047911Y0087731D01*
X0047625Y0087623D01*
X0047342Y0087509D01*
X0047062Y0087387D01*
X0046785Y0087259D01*
X0046512Y0087124D01*
X0046242Y0086983D01*
X0045975Y0086834D01*
X0045712Y0086680D01*
X0045453Y0086519D01*
X0045197Y0086351D01*
X0044946Y0086178D01*
X0044700Y0085998D01*
X0044458Y0085812D01*
X0044220Y0085621D01*
X0043987Y0085424D01*
X0043759Y0085221D01*
X0043536Y0085012D01*
X0043318Y0084799D01*
X0043106Y0084580D01*
X0042899Y0084356D01*
X0042697Y0084126D01*
X0042501Y0083892D01*
X0042311Y0083654D01*
X0042127Y0083410D01*
X0041949Y0083163D01*
X0041777Y0082911D01*
X0041611Y0082654D01*
X0041452Y0082394D01*
X0041298Y0082130D01*
X0041152Y0081863D01*
X0041012Y0081592D01*
X0040878Y0081317D01*
X0040752Y0081040D01*
X0040632Y0080759D01*
X0040519Y0080475D01*
X0040413Y0080189D01*
X0040314Y0079901D01*
X0040222Y0079610D01*
X0040138Y0079316D01*
X0040060Y0079021D01*
X0039990Y0078724D01*
X0039927Y0078426D01*
X0039871Y0078126D01*
X0039823Y0077824D01*
X0039782Y0077522D01*
X0039749Y0077219D01*
X0039723Y0076915D01*
X0039704Y0076610D01*
X0039693Y0076305D01*
X0039689Y0076000D01*
X0039693Y0075695D01*
X0039704Y0075390D01*
X0039723Y0075085D01*
X0039749Y0074781D01*
X0039782Y0074478D01*
X0039823Y0074176D01*
X0039871Y0073874D01*
X0039927Y0073574D01*
X0039990Y0073276D01*
X0040060Y0072979D01*
X0040138Y0072684D01*
X0040222Y0072390D01*
X0040314Y0072099D01*
X0040413Y0071811D01*
X0040519Y0071525D01*
X0040632Y0071241D01*
X0040752Y0070960D01*
X0040878Y0070683D01*
X0041012Y0070408D01*
X0041152Y0070137D01*
X0041298Y0069870D01*
X0041452Y0069606D01*
X0041611Y0069346D01*
X0041777Y0069089D01*
X0041949Y0068837D01*
X0042127Y0068590D01*
X0042311Y0068346D01*
X0042501Y0068108D01*
X0042697Y0067874D01*
X0042899Y0067644D01*
X0043106Y0067420D01*
X0043318Y0067201D01*
X0043536Y0066988D01*
X0043759Y0066779D01*
X0043987Y0066576D01*
X0044220Y0066379D01*
X0044458Y0066188D01*
X0044700Y0066002D01*
X0044946Y0065822D01*
X0045197Y0065649D01*
X0045453Y0065481D01*
X0045712Y0065320D01*
X0045975Y0065166D01*
X0046242Y0065017D01*
X0046512Y0064876D01*
X0046785Y0064741D01*
X0047062Y0064613D01*
X0047342Y0064491D01*
X0047625Y0064377D01*
X0047911Y0064269D01*
X0048199Y0064168D01*
X0048489Y0064075D01*
X0048782Y0063988D01*
X0049077Y0063909D01*
X0049373Y0063837D01*
X0049671Y0063772D01*
X0049971Y0063715D01*
X0050272Y0063665D01*
X0050574Y0063622D01*
X0050877Y0063587D01*
X0051181Y0063559D01*
X0051486Y0063539D01*
X0051791Y0063526D01*
X0052096Y0063520D01*
X0052401Y0063522D01*
X0052706Y0063532D01*
X0053010Y0063548D01*
X0053315Y0063573D01*
X0053618Y0063604D01*
X0053921Y0063644D01*
X0054222Y0063690D01*
X0054523Y0063744D01*
X0054822Y0063805D01*
X0055119Y0063874D01*
X0055415Y0063949D01*
X0055708Y0064032D01*
X0056000Y0064122D01*
X0056289Y0064220D01*
X0056576Y0064324D01*
X0056860Y0064435D01*
X0057141Y0064553D01*
X0057420Y0064678D01*
X0057695Y0064810D01*
X0057967Y0064949D01*
X0058235Y0065094D01*
X0058500Y0065245D01*
X0058761Y0065403D01*
X0059018Y0065568D01*
X0059271Y0065738D01*
X0059520Y0065915D01*
X0059765Y0066098D01*
X0060004Y0066286D01*
X0060240Y0066481D01*
X0060470Y0066681D01*
X0060695Y0066887D01*
X0060916Y0067098D01*
X0061131Y0067314D01*
X0061340Y0067536D01*
X0061544Y0067763D01*
X0061743Y0067994D01*
X0061936Y0068231D01*
X0062123Y0068472D01*
X0062048Y0068528D01*
X0061862Y0068289D01*
X0061671Y0068054D01*
X0061474Y0067825D01*
X0061271Y0067600D01*
X0061063Y0067379D01*
X0060849Y0067165D01*
X0060631Y0066955D01*
X0060407Y0066751D01*
X0060179Y0066552D01*
X0059945Y0066359D01*
X0059707Y0066172D01*
X0059465Y0065991D01*
X0059218Y0065815D01*
X0058967Y0065646D01*
X0058711Y0065483D01*
X0058452Y0065326D01*
X0058189Y0065176D01*
X0057923Y0065032D01*
X0057653Y0064894D01*
X0057380Y0064763D01*
X0057104Y0064639D01*
X0056824Y0064522D01*
X0056542Y0064412D01*
X0056258Y0064308D01*
X0055971Y0064212D01*
X0055681Y0064122D01*
X0055390Y0064040D01*
X0055097Y0063965D01*
X0054801Y0063897D01*
X0054505Y0063836D01*
X0054207Y0063783D01*
X0053907Y0063737D01*
X0053607Y0063698D01*
X0053306Y0063666D01*
X0053004Y0063642D01*
X0052701Y0063625D01*
X0052399Y0063616D01*
X0052096Y0063614D01*
X0051793Y0063620D01*
X0051491Y0063633D01*
X0051188Y0063653D01*
X0050887Y0063681D01*
X0050586Y0063716D01*
X0050286Y0063758D01*
X0049987Y0063808D01*
X0049690Y0063865D01*
X0049394Y0063929D01*
X0049100Y0064000D01*
X0048807Y0064079D01*
X0048517Y0064165D01*
X0048228Y0064258D01*
X0047943Y0064357D01*
X0047659Y0064464D01*
X0047379Y0064578D01*
X0047101Y0064698D01*
X0046826Y0064826D01*
X0046554Y0064960D01*
X0046286Y0065100D01*
X0046021Y0065247D01*
X0045760Y0065401D01*
X0045503Y0065561D01*
X0045250Y0065727D01*
X0045001Y0065899D01*
X0044756Y0066077D01*
X0044515Y0066262D01*
X0044280Y0066452D01*
X0044049Y0066647D01*
X0043822Y0066849D01*
X0043601Y0067055D01*
X0043385Y0067268D01*
X0043174Y0067485D01*
X0042969Y0067707D01*
X0042769Y0067935D01*
X0042574Y0068167D01*
X0042386Y0068404D01*
X0042203Y0068646D01*
X0042026Y0068891D01*
X0041855Y0069142D01*
X0041691Y0069396D01*
X0041532Y0069654D01*
X0041380Y0069916D01*
X0041235Y0070181D01*
X0041096Y0070450D01*
X0040963Y0070723D01*
X0040838Y0070998D01*
X0040719Y0071277D01*
X0040607Y0071558D01*
X0040502Y0071842D01*
X0040403Y0072129D01*
X0040312Y0072418D01*
X0040228Y0072709D01*
X0040151Y0073002D01*
X0040082Y0073296D01*
X0040019Y0073593D01*
X0039964Y0073890D01*
X0039916Y0074189D01*
X0039875Y0074489D01*
X0039842Y0074791D01*
X0039816Y0075092D01*
X0039798Y0075395D01*
X0039787Y0075697D01*
X0039783Y0076000D01*
X0039787Y0076303D01*
X0039798Y0076605D01*
X0039816Y0076908D01*
X0039842Y0077209D01*
X0039875Y0077511D01*
X0039916Y0077811D01*
X0039964Y0078110D01*
X0040019Y0078407D01*
X0040082Y0078704D01*
X0040151Y0078998D01*
X0040228Y0079291D01*
X0040312Y0079582D01*
X0040403Y0079871D01*
X0040502Y0080158D01*
X0040607Y0080442D01*
X0040719Y0080723D01*
X0040838Y0081002D01*
X0040963Y0081277D01*
X0041096Y0081550D01*
X0041235Y0081819D01*
X0041380Y0082084D01*
X0041532Y0082346D01*
X0041691Y0082604D01*
X0041855Y0082858D01*
X0042026Y0083109D01*
X0042203Y0083354D01*
X0042386Y0083596D01*
X0042574Y0083833D01*
X0042769Y0084065D01*
X0042969Y0084293D01*
X0043174Y0084515D01*
X0043385Y0084732D01*
X0043601Y0084945D01*
X0043822Y0085151D01*
X0044049Y0085353D01*
X0044280Y0085548D01*
X0044515Y0085738D01*
X0044756Y0085923D01*
X0045001Y0086101D01*
X0045250Y0086273D01*
X0045503Y0086439D01*
X0045760Y0086599D01*
X0046021Y0086753D01*
X0046286Y0086900D01*
X0046554Y0087040D01*
X0046826Y0087174D01*
X0047101Y0087302D01*
X0047379Y0087422D01*
X0047659Y0087536D01*
X0047943Y0087643D01*
X0048228Y0087742D01*
X0048517Y0087835D01*
X0048807Y0087921D01*
X0049100Y0088000D01*
X0049394Y0088071D01*
X0049690Y0088135D01*
X0049987Y0088192D01*
X0050286Y0088242D01*
X0050586Y0088284D01*
X0050887Y0088319D01*
X0051188Y0088347D01*
X0051491Y0088367D01*
X0051793Y0088380D01*
X0052096Y0088386D01*
X0052399Y0088384D01*
X0052701Y0088375D01*
X0053004Y0088358D01*
X0053306Y0088334D01*
X0053607Y0088302D01*
X0053907Y0088263D01*
X0054207Y0088217D01*
X0054505Y0088164D01*
X0054801Y0088103D01*
X0055097Y0088035D01*
X0055390Y0087960D01*
X0055681Y0087878D01*
X0055971Y0087788D01*
X0056258Y0087692D01*
X0056542Y0087588D01*
X0056824Y0087478D01*
X0057104Y0087361D01*
X0057380Y0087237D01*
X0057653Y0087106D01*
X0057923Y0086968D01*
X0058189Y0086824D01*
X0058452Y0086674D01*
X0058711Y0086517D01*
X0058967Y0086354D01*
X0059218Y0086185D01*
X0059465Y0086009D01*
X0059707Y0085828D01*
X0059945Y0085641D01*
X0060179Y0085448D01*
X0060407Y0085249D01*
X0060631Y0085045D01*
X0060849Y0084835D01*
X0061063Y0084621D01*
X0061271Y0084400D01*
X0061474Y0084175D01*
X0061671Y0083946D01*
X0061862Y0083711D01*
X0062048Y0083472D01*
X0061973Y0083415D01*
X0061788Y0083653D01*
X0061598Y0083885D01*
X0061403Y0084114D01*
X0061202Y0084337D01*
X0060995Y0084555D01*
X0060783Y0084769D01*
X0060566Y0084977D01*
X0060344Y0085179D01*
X0060117Y0085376D01*
X0059886Y0085568D01*
X0059650Y0085754D01*
X0059409Y0085934D01*
X0059164Y0086108D01*
X0058915Y0086276D01*
X0058661Y0086438D01*
X0058404Y0086593D01*
X0058143Y0086742D01*
X0057879Y0086885D01*
X0057611Y0087022D01*
X0057340Y0087151D01*
X0057066Y0087274D01*
X0056789Y0087391D01*
X0056509Y0087500D01*
X0056226Y0087603D01*
X0055942Y0087699D01*
X0055654Y0087787D01*
X0055365Y0087869D01*
X0055074Y0087944D01*
X0054781Y0088011D01*
X0054487Y0088072D01*
X0054191Y0088125D01*
X0053894Y0088170D01*
X0053596Y0088209D01*
X0053297Y0088240D01*
X0052997Y0088264D01*
X0052697Y0088281D01*
X0052397Y0088290D01*
X0052096Y0088292D01*
X0051796Y0088286D01*
X0051495Y0088274D01*
X0051196Y0088253D01*
X0050896Y0088226D01*
X0050598Y0088191D01*
X0050300Y0088149D01*
X0050004Y0088100D01*
X0049709Y0088043D01*
X0049415Y0087979D01*
X0049123Y0087909D01*
X0048833Y0087831D01*
X0048544Y0087745D01*
X0048258Y0087653D01*
X0047974Y0087554D01*
X0047693Y0087448D01*
X0047415Y0087335D01*
X0047139Y0087216D01*
X0046866Y0087089D01*
X0046597Y0086956D01*
X0046331Y0086817D01*
X0046068Y0086671D01*
X0045809Y0086519D01*
X0045553Y0086360D01*
X0045302Y0086195D01*
X0045055Y0086024D01*
X0044812Y0085847D01*
X0044573Y0085664D01*
X0044339Y0085476D01*
X0044110Y0085282D01*
X0043886Y0085082D01*
X0043666Y0084877D01*
X0043452Y0084666D01*
X0043242Y0084450D01*
X0043038Y0084230D01*
X0042840Y0084004D01*
X0042647Y0083773D01*
X0042460Y0083538D01*
X0042278Y0083299D01*
X0042103Y0083055D01*
X0041933Y0082806D01*
X0041770Y0082554D01*
X0041613Y0082298D01*
X0041462Y0082038D01*
X0041318Y0081774D01*
X0041180Y0081507D01*
X0041048Y0081237D01*
X0040924Y0080964D01*
X0040806Y0080687D01*
X0040695Y0080408D01*
X0040590Y0080126D01*
X0040493Y0079842D01*
X0040402Y0079555D01*
X0040319Y0079266D01*
X0040243Y0078976D01*
X0040173Y0078683D01*
X0040111Y0078389D01*
X0040057Y0078094D01*
X0040009Y0077797D01*
X0039969Y0077499D01*
X0039936Y0077200D01*
X0039910Y0076901D01*
X0039892Y0076601D01*
X0039881Y0076301D01*
X0039877Y0076000D01*
X0039881Y0075699D01*
X0039892Y0075399D01*
X0039910Y0075099D01*
X0039936Y0074800D01*
X0039969Y0074501D01*
X0040009Y0074203D01*
X0040057Y0073906D01*
X0040111Y0073611D01*
X0040173Y0073317D01*
X0040243Y0073024D01*
X0040319Y0072734D01*
X0040402Y0072445D01*
X0040493Y0072158D01*
X0040590Y0071874D01*
X0040695Y0071592D01*
X0040806Y0071313D01*
X0040924Y0071036D01*
X0041048Y0070763D01*
X0041180Y0070493D01*
X0041318Y0070226D01*
X0041462Y0069962D01*
X0041613Y0069702D01*
X0041770Y0069446D01*
X0041933Y0069194D01*
X0042103Y0068945D01*
X0042278Y0068701D01*
X0042460Y0068462D01*
X0042647Y0068227D01*
X0042840Y0067996D01*
X0043038Y0067770D01*
X0043242Y0067550D01*
X0043452Y0067334D01*
X0043666Y0067123D01*
X0043886Y0066918D01*
X0044110Y0066718D01*
X0044339Y0066524D01*
X0044573Y0066336D01*
X0044812Y0066153D01*
X0045055Y0065976D01*
X0045302Y0065805D01*
X0045553Y0065640D01*
X0045809Y0065481D01*
X0046068Y0065329D01*
X0046331Y0065183D01*
X0046597Y0065044D01*
X0046866Y0064911D01*
X0047139Y0064784D01*
X0047415Y0064665D01*
X0047693Y0064552D01*
X0047974Y0064446D01*
X0048258Y0064347D01*
X0048544Y0064255D01*
X0048833Y0064169D01*
X0049123Y0064091D01*
X0049415Y0064021D01*
X0049709Y0063957D01*
X0050004Y0063900D01*
X0050300Y0063851D01*
X0050598Y0063809D01*
X0050896Y0063774D01*
X0051196Y0063747D01*
X0051495Y0063726D01*
X0051796Y0063714D01*
X0052096Y0063708D01*
X0052397Y0063710D01*
X0052697Y0063719D01*
X0052997Y0063736D01*
X0053297Y0063760D01*
X0053596Y0063791D01*
X0053894Y0063830D01*
X0054191Y0063875D01*
X0054487Y0063928D01*
X0054781Y0063989D01*
X0055074Y0064056D01*
X0055365Y0064131D01*
X0055654Y0064213D01*
X0055942Y0064301D01*
X0056226Y0064397D01*
X0056509Y0064500D01*
X0056789Y0064609D01*
X0057066Y0064726D01*
X0057340Y0064849D01*
X0057611Y0064978D01*
X0057879Y0065115D01*
X0058143Y0065258D01*
X0058404Y0065407D01*
X0058661Y0065562D01*
X0058915Y0065724D01*
X0059164Y0065892D01*
X0059409Y0066066D01*
X0059650Y0066246D01*
X0059886Y0066432D01*
X0060117Y0066624D01*
X0060344Y0066821D01*
X0060566Y0067023D01*
X0060783Y0067231D01*
X0060995Y0067445D01*
X0061202Y0067663D01*
X0061403Y0067886D01*
X0061598Y0068115D01*
X0061788Y0068347D01*
X0061973Y0068585D01*
X0061897Y0068641D01*
X0061715Y0068406D01*
X0061526Y0068175D01*
X0061332Y0067948D01*
X0061132Y0067726D01*
X0060927Y0067510D01*
X0060717Y0067298D01*
X0060502Y0067092D01*
X0060282Y0066891D01*
X0060056Y0066695D01*
X0059827Y0066505D01*
X0059592Y0066321D01*
X0059353Y0066142D01*
X0059110Y0065969D01*
X0058863Y0065803D01*
X0058611Y0065642D01*
X0058356Y0065488D01*
X0058097Y0065340D01*
X0057835Y0065198D01*
X0057569Y0065063D01*
X0057300Y0064934D01*
X0057028Y0064812D01*
X0056753Y0064696D01*
X0056475Y0064587D01*
X0056195Y0064486D01*
X0055912Y0064391D01*
X0055627Y0064303D01*
X0055340Y0064222D01*
X0055052Y0064147D01*
X0054761Y0064081D01*
X0054469Y0064021D01*
X0054175Y0063968D01*
X0053880Y0063923D01*
X0053585Y0063884D01*
X0053288Y0063853D01*
X0052991Y0063830D01*
X0052693Y0063813D01*
X0052395Y0063804D01*
X0052097Y0063802D01*
X0051798Y0063808D01*
X0051500Y0063820D01*
X0051203Y0063840D01*
X0050906Y0063868D01*
X0050610Y0063902D01*
X0050314Y0063944D01*
X0050020Y0063993D01*
X0049727Y0064049D01*
X0049436Y0064112D01*
X0049146Y0064183D01*
X0048858Y0064260D01*
X0048572Y0064344D01*
X0048288Y0064436D01*
X0048006Y0064534D01*
X0047727Y0064639D01*
X0047451Y0064751D01*
X0047177Y0064870D01*
X0046907Y0064995D01*
X0046639Y0065127D01*
X0046375Y0065266D01*
X0046114Y0065411D01*
X0045857Y0065562D01*
X0045604Y0065719D01*
X0045355Y0065883D01*
X0045109Y0066053D01*
X0044868Y0066228D01*
X0044631Y0066410D01*
X0044399Y0066597D01*
X0044172Y0066789D01*
X0043949Y0066988D01*
X0043731Y0067191D01*
X0043518Y0067400D01*
X0043310Y0067614D01*
X0043108Y0067834D01*
X0042911Y0068057D01*
X0042720Y0068286D01*
X0042534Y0068520D01*
X0042354Y0068757D01*
X0042180Y0068999D01*
X0042012Y0069246D01*
X0041850Y0069496D01*
X0041694Y0069750D01*
X0041544Y0070008D01*
X0041401Y0070270D01*
X0041264Y0070535D01*
X0041133Y0070803D01*
X0041010Y0071074D01*
X0040893Y0071349D01*
X0040782Y0071626D01*
X0040679Y0071906D01*
X0040582Y0072188D01*
X0040492Y0072472D01*
X0040410Y0072759D01*
X0040334Y0073047D01*
X0040265Y0073337D01*
X0040204Y0073629D01*
X0040149Y0073922D01*
X0040102Y0074217D01*
X0040062Y0074512D01*
X0040029Y0074809D01*
X0040004Y0075106D01*
X0039986Y0075404D01*
X0039975Y0075702D01*
X0039971Y0076000D01*
X0039975Y0076298D01*
X0039986Y0076596D01*
X0040004Y0076894D01*
X0040029Y0077191D01*
X0040062Y0077488D01*
X0040102Y0077783D01*
X0040149Y0078078D01*
X0040204Y0078371D01*
X0040265Y0078663D01*
X0040334Y0078953D01*
X0040410Y0079241D01*
X0040492Y0079528D01*
X0040582Y0079812D01*
X0040679Y0080094D01*
X0040782Y0080374D01*
X0040893Y0080651D01*
X0041010Y0080926D01*
X0041133Y0081197D01*
X0041264Y0081465D01*
X0041401Y0081730D01*
X0041544Y0081992D01*
X0041694Y0082250D01*
X0041850Y0082504D01*
X0042012Y0082754D01*
X0042180Y0083001D01*
X0042354Y0083243D01*
X0042534Y0083480D01*
X0042720Y0083714D01*
X0042911Y0083943D01*
X0043108Y0084166D01*
X0043310Y0084386D01*
X0043518Y0084600D01*
X0043731Y0084809D01*
X0043949Y0085012D01*
X0044172Y0085211D01*
X0044399Y0085403D01*
X0044631Y0085590D01*
X0044868Y0085772D01*
X0045109Y0085947D01*
X0045355Y0086117D01*
X0045604Y0086281D01*
X0045857Y0086438D01*
X0046114Y0086589D01*
X0046375Y0086734D01*
X0046639Y0086873D01*
X0046907Y0087005D01*
X0047177Y0087130D01*
X0047451Y0087249D01*
X0047727Y0087361D01*
X0048006Y0087466D01*
X0048288Y0087564D01*
X0048572Y0087656D01*
X0048858Y0087740D01*
X0049146Y0087817D01*
X0049436Y0087888D01*
X0049727Y0087951D01*
X0050020Y0088007D01*
X0050314Y0088056D01*
X0050610Y0088098D01*
X0050906Y0088132D01*
X0051203Y0088160D01*
X0051500Y0088180D01*
X0051798Y0088192D01*
X0052097Y0088198D01*
X0052395Y0088196D01*
X0052693Y0088187D01*
X0052991Y0088170D01*
X0053288Y0088147D01*
X0053585Y0088116D01*
X0053880Y0088077D01*
X0054175Y0088032D01*
X0054469Y0087979D01*
X0054761Y0087919D01*
X0055052Y0087853D01*
X0055340Y0087778D01*
X0055627Y0087697D01*
X0055912Y0087609D01*
X0056195Y0087514D01*
X0056475Y0087413D01*
X0056753Y0087304D01*
X0057028Y0087188D01*
X0057300Y0087066D01*
X0057569Y0086937D01*
X0057835Y0086802D01*
X0058097Y0086660D01*
X0058356Y0086512D01*
X0058611Y0086358D01*
X0058863Y0086197D01*
X0059110Y0086031D01*
X0059353Y0085858D01*
X0059592Y0085679D01*
X0059827Y0085495D01*
X0060056Y0085305D01*
X0060282Y0085109D01*
X0060502Y0084908D01*
X0060717Y0084702D01*
X0060927Y0084490D01*
X0061132Y0084274D01*
X0061332Y0084052D01*
X0061526Y0083825D01*
X0061715Y0083594D01*
X0061897Y0083359D01*
X0061822Y0083302D01*
X0061641Y0083536D01*
X0061454Y0083765D01*
X0061261Y0083990D01*
X0061063Y0084210D01*
X0060860Y0084425D01*
X0060651Y0084635D01*
X0060437Y0084840D01*
X0060219Y0085039D01*
X0059995Y0085233D01*
X0059767Y0085422D01*
X0059535Y0085605D01*
X0059298Y0085782D01*
X0059056Y0085953D01*
X0058811Y0086119D01*
X0058562Y0086278D01*
X0058308Y0086431D01*
X0058052Y0086578D01*
X0057791Y0086719D01*
X0057527Y0086853D01*
X0057260Y0086981D01*
X0056990Y0087102D01*
X0056718Y0087217D01*
X0056442Y0087325D01*
X0056164Y0087426D01*
X0055883Y0087520D01*
X0055601Y0087607D01*
X0055316Y0087688D01*
X0055029Y0087761D01*
X0054741Y0087828D01*
X0054451Y0087887D01*
X0054159Y0087939D01*
X0053867Y0087984D01*
X0053573Y0088022D01*
X0053279Y0088053D01*
X0052984Y0088077D01*
X0052689Y0088093D01*
X0052393Y0088102D01*
X0052097Y0088104D01*
X0051801Y0088098D01*
X0051505Y0088086D01*
X0051210Y0088066D01*
X0050915Y0088039D01*
X0050621Y0088005D01*
X0050328Y0087963D01*
X0050036Y0087915D01*
X0049746Y0087859D01*
X0049457Y0087796D01*
X0049169Y0087726D01*
X0048883Y0087649D01*
X0048599Y0087566D01*
X0048318Y0087475D01*
X0048038Y0087377D01*
X0047761Y0087273D01*
X0047487Y0087162D01*
X0047216Y0087044D01*
X0046947Y0086920D01*
X0046682Y0086789D01*
X0046420Y0086651D01*
X0046161Y0086508D01*
X0045906Y0086358D01*
X0045654Y0086201D01*
X0045407Y0086039D01*
X0045164Y0085871D01*
X0044924Y0085696D01*
X0044689Y0085516D01*
X0044459Y0085331D01*
X0044233Y0085139D01*
X0044012Y0084943D01*
X0043796Y0084741D01*
X0043585Y0084533D01*
X0043379Y0084321D01*
X0043178Y0084103D01*
X0042982Y0083881D01*
X0042792Y0083654D01*
X0042608Y0083423D01*
X0042430Y0083187D01*
X0042257Y0082947D01*
X0042090Y0082702D01*
X0041929Y0082454D01*
X0041774Y0082201D01*
X0041626Y0081945D01*
X0041484Y0081686D01*
X0041348Y0081423D01*
X0041218Y0081157D01*
X0041096Y0080888D01*
X0040979Y0080615D01*
X0040870Y0080340D01*
X0040767Y0080063D01*
X0040671Y0079783D01*
X0040582Y0079501D01*
X0040500Y0079216D01*
X0040425Y0078930D01*
X0040357Y0078642D01*
X0040296Y0078353D01*
X0040242Y0078062D01*
X0040195Y0077769D01*
X0040155Y0077476D01*
X0040123Y0077182D01*
X0040098Y0076887D01*
X0040079Y0076592D01*
X0040069Y0076296D01*
X0040065Y0076000D01*
X0040069Y0075704D01*
X0040079Y0075408D01*
X0040098Y0075113D01*
X0040123Y0074818D01*
X0040155Y0074524D01*
X0040195Y0074231D01*
X0040242Y0073938D01*
X0040296Y0073647D01*
X0040357Y0073358D01*
X0040425Y0073070D01*
X0040500Y0072784D01*
X0040582Y0072499D01*
X0040671Y0072217D01*
X0040767Y0071937D01*
X0040870Y0071660D01*
X0040979Y0071385D01*
X0041096Y0071112D01*
X0041218Y0070843D01*
X0041348Y0070577D01*
X0041484Y0070314D01*
X0041626Y0070055D01*
X0041774Y0069799D01*
X0041929Y0069546D01*
X0042090Y0069298D01*
X0042257Y0069053D01*
X0042430Y0068813D01*
X0042608Y0068577D01*
X0042792Y0068346D01*
X0042982Y0068119D01*
X0043178Y0067897D01*
X0043379Y0067679D01*
X0043585Y0067467D01*
X0043796Y0067259D01*
X0044012Y0067057D01*
X0044233Y0066861D01*
X0044459Y0066669D01*
X0044689Y0066484D01*
X0044924Y0066304D01*
X0045164Y0066129D01*
X0045407Y0065961D01*
X0045654Y0065799D01*
X0045906Y0065642D01*
X0046161Y0065492D01*
X0046420Y0065349D01*
X0046682Y0065211D01*
X0046947Y0065080D01*
X0047216Y0064956D01*
X0047487Y0064838D01*
X0047761Y0064727D01*
X0048038Y0064623D01*
X0048318Y0064525D01*
X0048599Y0064434D01*
X0048883Y0064351D01*
X0049169Y0064274D01*
X0049457Y0064204D01*
X0049746Y0064141D01*
X0050036Y0064085D01*
X0050328Y0064037D01*
X0050621Y0063995D01*
X0050915Y0063961D01*
X0051210Y0063934D01*
X0051505Y0063914D01*
X0051801Y0063902D01*
X0052097Y0063896D01*
X0052393Y0063898D01*
X0052689Y0063907D01*
X0052984Y0063923D01*
X0053279Y0063947D01*
X0053573Y0063978D01*
X0053867Y0064016D01*
X0054159Y0064061D01*
X0054451Y0064113D01*
X0054741Y0064172D01*
X0055029Y0064239D01*
X0055316Y0064312D01*
X0055601Y0064393D01*
X0055883Y0064480D01*
X0056164Y0064574D01*
X0056442Y0064675D01*
X0056718Y0064783D01*
X0056990Y0064898D01*
X0057260Y0065019D01*
X0057527Y0065147D01*
X0057791Y0065281D01*
X0058052Y0065422D01*
X0058308Y0065569D01*
X0058562Y0065722D01*
X0058811Y0065881D01*
X0059056Y0066047D01*
X0059298Y0066218D01*
X0059535Y0066395D01*
X0059767Y0066578D01*
X0059995Y0066767D01*
X0060219Y0066961D01*
X0060437Y0067160D01*
X0060651Y0067365D01*
X0060860Y0067575D01*
X0061063Y0067790D01*
X0061261Y0068010D01*
X0061454Y0068235D01*
X0061641Y0068464D01*
X0061822Y0068698D01*
D44*
X0042169Y0076000D02*
X0042172Y0076245D01*
X0042181Y0076491D01*
X0042196Y0076736D01*
X0042217Y0076980D01*
X0042244Y0077224D01*
X0042277Y0077467D01*
X0042316Y0077710D01*
X0042361Y0077951D01*
X0042412Y0078191D01*
X0042469Y0078430D01*
X0042531Y0078667D01*
X0042600Y0078903D01*
X0042674Y0079137D01*
X0042754Y0079369D01*
X0042839Y0079599D01*
X0042930Y0079827D01*
X0043027Y0080052D01*
X0043129Y0080276D01*
X0043237Y0080496D01*
X0043350Y0080714D01*
X0043468Y0080929D01*
X0043592Y0081141D01*
X0043720Y0081350D01*
X0043854Y0081556D01*
X0043993Y0081758D01*
X0044137Y0081957D01*
X0044286Y0082152D01*
X0044439Y0082344D01*
X0044597Y0082532D01*
X0044759Y0082716D01*
X0044927Y0082895D01*
X0045098Y0083071D01*
X0045274Y0083242D01*
X0045453Y0083410D01*
X0045637Y0083572D01*
X0045825Y0083730D01*
X0046017Y0083883D01*
X0046212Y0084032D01*
X0046411Y0084176D01*
X0046613Y0084315D01*
X0046819Y0084449D01*
X0047028Y0084577D01*
X0047240Y0084701D01*
X0047455Y0084819D01*
X0047673Y0084932D01*
X0047893Y0085040D01*
X0048117Y0085142D01*
X0048342Y0085239D01*
X0048570Y0085330D01*
X0048800Y0085415D01*
X0049032Y0085495D01*
X0049266Y0085569D01*
X0049502Y0085638D01*
X0049739Y0085700D01*
X0049978Y0085757D01*
X0050218Y0085808D01*
X0050459Y0085853D01*
X0050702Y0085892D01*
X0050945Y0085925D01*
X0051189Y0085952D01*
X0051433Y0085973D01*
X0051678Y0085988D01*
X0051924Y0085997D01*
X0052169Y0086000D01*
X0052414Y0085997D01*
X0052660Y0085988D01*
X0052905Y0085973D01*
X0053149Y0085952D01*
X0053393Y0085925D01*
X0053636Y0085892D01*
X0053879Y0085853D01*
X0054120Y0085808D01*
X0054360Y0085757D01*
X0054599Y0085700D01*
X0054836Y0085638D01*
X0055072Y0085569D01*
X0055306Y0085495D01*
X0055538Y0085415D01*
X0055768Y0085330D01*
X0055996Y0085239D01*
X0056221Y0085142D01*
X0056445Y0085040D01*
X0056665Y0084932D01*
X0056883Y0084819D01*
X0057098Y0084701D01*
X0057310Y0084577D01*
X0057519Y0084449D01*
X0057725Y0084315D01*
X0057927Y0084176D01*
X0058126Y0084032D01*
X0058321Y0083883D01*
X0058513Y0083730D01*
X0058701Y0083572D01*
X0058885Y0083410D01*
X0059064Y0083242D01*
X0059240Y0083071D01*
X0059411Y0082895D01*
X0059579Y0082716D01*
X0059741Y0082532D01*
X0059899Y0082344D01*
X0060052Y0082152D01*
X0060201Y0081957D01*
X0060345Y0081758D01*
X0060484Y0081556D01*
X0060618Y0081350D01*
X0060746Y0081141D01*
X0060870Y0080929D01*
X0060988Y0080714D01*
X0061101Y0080496D01*
X0061209Y0080276D01*
X0061311Y0080052D01*
X0061408Y0079827D01*
X0061499Y0079599D01*
X0061584Y0079369D01*
X0061664Y0079137D01*
X0061738Y0078903D01*
X0061807Y0078667D01*
X0061869Y0078430D01*
X0061926Y0078191D01*
X0061977Y0077951D01*
X0062022Y0077710D01*
X0062061Y0077467D01*
X0062094Y0077224D01*
X0062121Y0076980D01*
X0062142Y0076736D01*
X0062157Y0076491D01*
X0062166Y0076245D01*
X0062169Y0076000D01*
X0062166Y0075755D01*
X0062157Y0075509D01*
X0062142Y0075264D01*
X0062121Y0075020D01*
X0062094Y0074776D01*
X0062061Y0074533D01*
X0062022Y0074290D01*
X0061977Y0074049D01*
X0061926Y0073809D01*
X0061869Y0073570D01*
X0061807Y0073333D01*
X0061738Y0073097D01*
X0061664Y0072863D01*
X0061584Y0072631D01*
X0061499Y0072401D01*
X0061408Y0072173D01*
X0061311Y0071948D01*
X0061209Y0071724D01*
X0061101Y0071504D01*
X0060988Y0071286D01*
X0060870Y0071071D01*
X0060746Y0070859D01*
X0060618Y0070650D01*
X0060484Y0070444D01*
X0060345Y0070242D01*
X0060201Y0070043D01*
X0060052Y0069848D01*
X0059899Y0069656D01*
X0059741Y0069468D01*
X0059579Y0069284D01*
X0059411Y0069105D01*
X0059240Y0068929D01*
X0059064Y0068758D01*
X0058885Y0068590D01*
X0058701Y0068428D01*
X0058513Y0068270D01*
X0058321Y0068117D01*
X0058126Y0067968D01*
X0057927Y0067824D01*
X0057725Y0067685D01*
X0057519Y0067551D01*
X0057310Y0067423D01*
X0057098Y0067299D01*
X0056883Y0067181D01*
X0056665Y0067068D01*
X0056445Y0066960D01*
X0056221Y0066858D01*
X0055996Y0066761D01*
X0055768Y0066670D01*
X0055538Y0066585D01*
X0055306Y0066505D01*
X0055072Y0066431D01*
X0054836Y0066362D01*
X0054599Y0066300D01*
X0054360Y0066243D01*
X0054120Y0066192D01*
X0053879Y0066147D01*
X0053636Y0066108D01*
X0053393Y0066075D01*
X0053149Y0066048D01*
X0052905Y0066027D01*
X0052660Y0066012D01*
X0052414Y0066003D01*
X0052169Y0066000D01*
X0051924Y0066003D01*
X0051678Y0066012D01*
X0051433Y0066027D01*
X0051189Y0066048D01*
X0050945Y0066075D01*
X0050702Y0066108D01*
X0050459Y0066147D01*
X0050218Y0066192D01*
X0049978Y0066243D01*
X0049739Y0066300D01*
X0049502Y0066362D01*
X0049266Y0066431D01*
X0049032Y0066505D01*
X0048800Y0066585D01*
X0048570Y0066670D01*
X0048342Y0066761D01*
X0048117Y0066858D01*
X0047893Y0066960D01*
X0047673Y0067068D01*
X0047455Y0067181D01*
X0047240Y0067299D01*
X0047028Y0067423D01*
X0046819Y0067551D01*
X0046613Y0067685D01*
X0046411Y0067824D01*
X0046212Y0067968D01*
X0046017Y0068117D01*
X0045825Y0068270D01*
X0045637Y0068428D01*
X0045453Y0068590D01*
X0045274Y0068758D01*
X0045098Y0068929D01*
X0044927Y0069105D01*
X0044759Y0069284D01*
X0044597Y0069468D01*
X0044439Y0069656D01*
X0044286Y0069848D01*
X0044137Y0070043D01*
X0043993Y0070242D01*
X0043854Y0070444D01*
X0043720Y0070650D01*
X0043592Y0070859D01*
X0043468Y0071071D01*
X0043350Y0071286D01*
X0043237Y0071504D01*
X0043129Y0071724D01*
X0043027Y0071948D01*
X0042930Y0072173D01*
X0042839Y0072401D01*
X0042754Y0072631D01*
X0042674Y0072863D01*
X0042600Y0073097D01*
X0042531Y0073333D01*
X0042469Y0073570D01*
X0042412Y0073809D01*
X0042361Y0074049D01*
X0042316Y0074290D01*
X0042277Y0074533D01*
X0042244Y0074776D01*
X0042217Y0075020D01*
X0042196Y0075264D01*
X0042181Y0075509D01*
X0042172Y0075755D01*
X0042169Y0076000D01*
X0044169Y0117200D02*
X0045169Y0117200D01*
X0044169Y0117200D02*
X0044169Y0118200D01*
X0044169Y0122200D02*
X0044169Y0123200D01*
X0045169Y0123200D01*
X0045169Y0127200D02*
X0044169Y0127200D01*
X0044169Y0128200D01*
X0044169Y0132200D02*
X0044169Y0133200D01*
X0045169Y0133200D01*
X0045169Y0137200D02*
X0044169Y0137200D01*
X0044169Y0138200D01*
X0044169Y0142200D02*
X0044169Y0143200D01*
X0045169Y0143200D01*
X0045169Y0147200D02*
X0044169Y0147200D01*
X0044169Y0148200D01*
X0044169Y0152200D02*
X0044169Y0153200D01*
X0045169Y0153200D01*
X0045169Y0157200D02*
X0044169Y0157200D01*
X0044169Y0158200D01*
X0044169Y0162200D02*
X0044169Y0163200D01*
X0045169Y0163200D01*
X0045169Y0167200D02*
X0044169Y0167200D01*
X0044169Y0168200D01*
X0044169Y0172200D02*
X0044169Y0173200D01*
X0045169Y0173200D01*
X0045169Y0177200D02*
X0044169Y0177200D01*
X0044169Y0178200D01*
X0044169Y0182200D02*
X0044169Y0183200D01*
X0045169Y0183200D01*
X0045169Y0187200D02*
X0044169Y0187200D01*
X0044169Y0188200D01*
X0044169Y0192200D02*
X0044169Y0193200D01*
X0045169Y0193200D01*
X0045169Y0197200D02*
X0044169Y0197200D01*
X0044169Y0198200D01*
X0044169Y0202200D02*
X0044169Y0203200D01*
X0045169Y0203200D01*
X0045169Y0207200D02*
X0044169Y0207200D01*
X0044169Y0208200D01*
X0044169Y0212200D02*
X0044169Y0213200D01*
X0045169Y0213200D01*
X0045169Y0217200D02*
X0044169Y0217200D01*
X0044169Y0218200D01*
X0044169Y0222200D02*
X0044169Y0223200D01*
X0045169Y0223200D01*
X0045169Y0227200D02*
X0044169Y0227200D01*
X0044169Y0228200D01*
X0044169Y0232200D02*
X0044169Y0233200D01*
X0045169Y0233200D01*
X0045169Y0237200D02*
X0044169Y0237200D01*
X0044169Y0238200D01*
X0044169Y0242200D02*
X0044169Y0243200D01*
X0045169Y0243200D01*
X0045169Y0247200D02*
X0044169Y0247200D01*
X0044169Y0248200D01*
X0044169Y0252200D02*
X0044169Y0253200D01*
X0045169Y0253200D01*
X0049169Y0253200D02*
X0050169Y0253200D01*
X0050169Y0252200D01*
X0050169Y0248200D02*
X0050169Y0247200D01*
X0049169Y0247200D01*
X0049169Y0243200D02*
X0050169Y0243200D01*
X0050169Y0242200D01*
X0050169Y0238200D02*
X0050169Y0237200D01*
X0049169Y0237200D01*
X0049169Y0233200D02*
X0050169Y0233200D01*
X0050169Y0232200D01*
X0050169Y0228200D02*
X0050169Y0227200D01*
X0049169Y0227200D01*
X0049169Y0223200D02*
X0050169Y0223200D01*
X0050169Y0222200D01*
X0050169Y0218200D02*
X0050169Y0217200D01*
X0049169Y0217200D01*
X0049169Y0213200D02*
X0050169Y0213200D01*
X0050169Y0212200D01*
X0050169Y0208200D02*
X0050169Y0207200D01*
X0049169Y0207200D01*
X0049169Y0203200D02*
X0050169Y0203200D01*
X0050169Y0202200D01*
X0050169Y0198200D02*
X0050169Y0197200D01*
X0049169Y0197200D01*
X0049169Y0193200D02*
X0050169Y0193200D01*
X0050169Y0192200D01*
X0050169Y0188200D02*
X0050169Y0187200D01*
X0049169Y0187200D01*
X0049169Y0183200D02*
X0050169Y0183200D01*
X0050169Y0182200D01*
X0050169Y0178200D02*
X0050169Y0177200D01*
X0049169Y0177200D01*
X0049169Y0173200D02*
X0050169Y0173200D01*
X0050169Y0172200D01*
X0050169Y0168200D02*
X0050169Y0167200D01*
X0049169Y0167200D01*
X0049169Y0163200D02*
X0050169Y0163200D01*
X0050169Y0162200D01*
X0050169Y0158200D02*
X0050169Y0157200D01*
X0049169Y0157200D01*
X0049169Y0153200D02*
X0050169Y0153200D01*
X0050169Y0152200D01*
X0050169Y0148200D02*
X0050169Y0147200D01*
X0049169Y0147200D01*
X0049169Y0143200D02*
X0050169Y0143200D01*
X0050169Y0142200D01*
X0050169Y0138200D02*
X0050169Y0137200D01*
X0049169Y0137200D01*
X0049169Y0133200D02*
X0050169Y0133200D01*
X0050169Y0132200D01*
X0050169Y0128200D02*
X0050169Y0127200D01*
X0049169Y0127200D01*
X0049169Y0123200D02*
X0050169Y0123200D01*
X0050169Y0122200D01*
X0050169Y0118200D02*
X0050169Y0117200D01*
X0049169Y0117200D01*
X0054169Y0117200D02*
X0055169Y0117200D01*
X0054169Y0117200D02*
X0054169Y0118200D01*
X0054169Y0122200D02*
X0054169Y0123200D01*
X0055169Y0123200D01*
X0055169Y0127200D02*
X0054169Y0127200D01*
X0054169Y0128200D01*
X0054169Y0132200D02*
X0054169Y0133200D01*
X0055169Y0133200D01*
X0055169Y0137200D02*
X0054169Y0137200D01*
X0054169Y0138200D01*
X0054169Y0142200D02*
X0054169Y0143200D01*
X0055169Y0143200D01*
X0055169Y0147200D02*
X0054169Y0147200D01*
X0054169Y0148200D01*
X0054169Y0152200D02*
X0054169Y0153200D01*
X0055169Y0153200D01*
X0055169Y0157200D02*
X0054169Y0157200D01*
X0054169Y0158200D01*
X0054169Y0162200D02*
X0054169Y0163200D01*
X0055169Y0163200D01*
X0055169Y0167200D02*
X0054169Y0167200D01*
X0054169Y0168200D01*
X0054169Y0172200D02*
X0054169Y0173200D01*
X0055169Y0173200D01*
X0055169Y0177200D02*
X0054169Y0177200D01*
X0054169Y0178200D01*
X0054169Y0182200D02*
X0054169Y0183200D01*
X0055169Y0183200D01*
X0055169Y0187200D02*
X0054169Y0187200D01*
X0054169Y0188200D01*
X0054169Y0192200D02*
X0054169Y0193200D01*
X0055169Y0193200D01*
X0055169Y0197200D02*
X0054169Y0197200D01*
X0054169Y0198200D01*
X0054169Y0202200D02*
X0054169Y0203200D01*
X0055169Y0203200D01*
X0055169Y0207200D02*
X0054169Y0207200D01*
X0054169Y0208200D01*
X0054169Y0212200D02*
X0054169Y0213200D01*
X0055169Y0213200D01*
X0055169Y0217200D02*
X0054169Y0217200D01*
X0054169Y0218200D01*
X0054169Y0222200D02*
X0054169Y0223200D01*
X0055169Y0223200D01*
X0055169Y0227200D02*
X0054169Y0227200D01*
X0054169Y0228200D01*
X0054169Y0232200D02*
X0054169Y0233200D01*
X0055169Y0233200D01*
X0055169Y0237200D02*
X0054169Y0237200D01*
X0054169Y0238200D01*
X0054169Y0242200D02*
X0054169Y0243200D01*
X0055169Y0243200D01*
X0055169Y0247200D02*
X0054169Y0247200D01*
X0054169Y0248200D01*
X0054169Y0252200D02*
X0054169Y0253200D01*
X0055169Y0253200D01*
X0059169Y0253200D02*
X0060169Y0253200D01*
X0060169Y0252200D01*
X0060169Y0248200D02*
X0060169Y0247200D01*
X0059169Y0247200D01*
X0059169Y0243200D02*
X0060169Y0243200D01*
X0060169Y0242200D01*
X0060169Y0238200D02*
X0060169Y0237200D01*
X0059169Y0237200D01*
X0059169Y0233200D02*
X0060169Y0233200D01*
X0060169Y0232200D01*
X0060169Y0228200D02*
X0060169Y0227200D01*
X0059169Y0227200D01*
X0059169Y0223200D02*
X0060169Y0223200D01*
X0060169Y0222200D01*
X0060169Y0218200D02*
X0060169Y0217200D01*
X0059169Y0217200D01*
X0059169Y0213200D02*
X0060169Y0213200D01*
X0060169Y0212200D01*
X0060169Y0208200D02*
X0060169Y0207200D01*
X0059169Y0207200D01*
X0059169Y0203200D02*
X0060169Y0203200D01*
X0060169Y0202200D01*
X0060169Y0198200D02*
X0060169Y0197200D01*
X0059169Y0197200D01*
X0059169Y0193200D02*
X0060169Y0193200D01*
X0060169Y0192200D01*
X0060169Y0188200D02*
X0060169Y0187200D01*
X0059169Y0187200D01*
X0059169Y0183200D02*
X0060169Y0183200D01*
X0060169Y0182200D01*
X0060169Y0178200D02*
X0060169Y0177200D01*
X0059169Y0177200D01*
X0059169Y0173200D02*
X0060169Y0173200D01*
X0060169Y0172200D01*
X0060169Y0168200D02*
X0060169Y0167200D01*
X0059169Y0167200D01*
X0059169Y0163200D02*
X0060169Y0163200D01*
X0060169Y0162200D01*
X0060169Y0158200D02*
X0060169Y0157200D01*
X0059169Y0157200D01*
X0059169Y0153200D02*
X0060169Y0153200D01*
X0060169Y0152200D01*
X0060169Y0148200D02*
X0060169Y0147200D01*
X0059169Y0147200D01*
X0059169Y0143200D02*
X0060169Y0143200D01*
X0060169Y0142200D01*
X0060169Y0138200D02*
X0060169Y0137200D01*
X0059169Y0137200D01*
X0059169Y0133200D02*
X0060169Y0133200D01*
X0060169Y0132200D01*
X0060169Y0128200D02*
X0060169Y0127200D01*
X0059169Y0127200D01*
X0059169Y0123200D02*
X0060169Y0123200D01*
X0060169Y0122200D01*
X0060169Y0118200D02*
X0060169Y0117200D01*
X0059169Y0117200D01*
X0064169Y0117200D02*
X0065169Y0117200D01*
X0064169Y0117200D02*
X0064169Y0118200D01*
X0064169Y0122200D02*
X0064169Y0123200D01*
X0065169Y0123200D01*
X0065169Y0127200D02*
X0064169Y0127200D01*
X0064169Y0128200D01*
X0064169Y0132200D02*
X0064169Y0133200D01*
X0065169Y0133200D01*
X0065169Y0137200D02*
X0064169Y0137200D01*
X0064169Y0138200D01*
X0064169Y0142200D02*
X0064169Y0143200D01*
X0065169Y0143200D01*
X0065169Y0147200D02*
X0064169Y0147200D01*
X0064169Y0148200D01*
X0064169Y0152200D02*
X0064169Y0153200D01*
X0065169Y0153200D01*
X0065169Y0157200D02*
X0064169Y0157200D01*
X0064169Y0158200D01*
X0064169Y0162200D02*
X0064169Y0163200D01*
X0065169Y0163200D01*
X0065169Y0167200D02*
X0064169Y0167200D01*
X0064169Y0168200D01*
X0064169Y0172200D02*
X0064169Y0173200D01*
X0065169Y0173200D01*
X0065169Y0177200D02*
X0064169Y0177200D01*
X0064169Y0178200D01*
X0064169Y0182200D02*
X0064169Y0183200D01*
X0065169Y0183200D01*
X0065169Y0187200D02*
X0064169Y0187200D01*
X0064169Y0188200D01*
X0064169Y0192200D02*
X0064169Y0193200D01*
X0065169Y0193200D01*
X0065169Y0197200D02*
X0064169Y0197200D01*
X0064169Y0198200D01*
X0064169Y0202200D02*
X0064169Y0203200D01*
X0065169Y0203200D01*
X0065169Y0207200D02*
X0064169Y0207200D01*
X0064169Y0208200D01*
X0064169Y0212200D02*
X0064169Y0213200D01*
X0065169Y0213200D01*
X0065169Y0217200D02*
X0064169Y0217200D01*
X0064169Y0218200D01*
X0064169Y0222200D02*
X0064169Y0223200D01*
X0065169Y0223200D01*
X0065169Y0227200D02*
X0064169Y0227200D01*
X0064169Y0228200D01*
X0064169Y0232200D02*
X0064169Y0233200D01*
X0065169Y0233200D01*
X0065169Y0237200D02*
X0064169Y0237200D01*
X0064169Y0238200D01*
X0064169Y0242200D02*
X0064169Y0243200D01*
X0065169Y0243200D01*
X0065169Y0247200D02*
X0064169Y0247200D01*
X0064169Y0248200D01*
X0064169Y0252200D02*
X0064169Y0253200D01*
X0065169Y0253200D01*
X0069169Y0253200D02*
X0070169Y0253200D01*
X0070169Y0252200D01*
X0070169Y0248200D02*
X0070169Y0247200D01*
X0069169Y0247200D01*
X0069169Y0243200D02*
X0070169Y0243200D01*
X0070169Y0242200D01*
X0070169Y0238200D02*
X0070169Y0237200D01*
X0069169Y0237200D01*
X0069169Y0233200D02*
X0070169Y0233200D01*
X0070169Y0232200D01*
X0070169Y0228200D02*
X0070169Y0227200D01*
X0069169Y0227200D01*
X0069169Y0223200D02*
X0070169Y0223200D01*
X0070169Y0222200D01*
X0070169Y0218200D02*
X0070169Y0217200D01*
X0069169Y0217200D01*
X0069169Y0213200D02*
X0070169Y0213200D01*
X0070169Y0212200D01*
X0070169Y0208200D02*
X0070169Y0207200D01*
X0069169Y0207200D01*
X0069169Y0203200D02*
X0070169Y0203200D01*
X0070169Y0202200D01*
X0070169Y0198200D02*
X0070169Y0197200D01*
X0069169Y0197200D01*
X0069169Y0193200D02*
X0070169Y0193200D01*
X0070169Y0192200D01*
X0070169Y0188200D02*
X0070169Y0187200D01*
X0069169Y0187200D01*
X0069169Y0183200D02*
X0070169Y0183200D01*
X0070169Y0182200D01*
X0070169Y0178200D02*
X0070169Y0177200D01*
X0069169Y0177200D01*
X0069169Y0173200D02*
X0070169Y0173200D01*
X0070169Y0172200D01*
X0070169Y0168200D02*
X0070169Y0167200D01*
X0069169Y0167200D01*
X0069169Y0163200D02*
X0070169Y0163200D01*
X0070169Y0162200D01*
X0070169Y0158200D02*
X0070169Y0157200D01*
X0069169Y0157200D01*
X0069169Y0153200D02*
X0070169Y0153200D01*
X0070169Y0152200D01*
X0070169Y0148200D02*
X0070169Y0147200D01*
X0069169Y0147200D01*
X0069169Y0143200D02*
X0070169Y0143200D01*
X0070169Y0142200D01*
X0070169Y0138200D02*
X0070169Y0137200D01*
X0069169Y0137200D01*
X0069169Y0133200D02*
X0070169Y0133200D01*
X0070169Y0132200D01*
X0070169Y0128200D02*
X0070169Y0127200D01*
X0069169Y0127200D01*
X0069169Y0123200D02*
X0070169Y0123200D01*
X0070169Y0122200D01*
X0070169Y0118200D02*
X0070169Y0117200D01*
X0069169Y0117200D01*
X0074169Y0117200D02*
X0075169Y0117200D01*
X0074169Y0117200D02*
X0074169Y0118200D01*
X0074169Y0122200D02*
X0074169Y0123200D01*
X0075169Y0123200D01*
X0075169Y0127200D02*
X0074169Y0127200D01*
X0074169Y0128200D01*
X0074169Y0132200D02*
X0074169Y0133200D01*
X0075169Y0133200D01*
X0075169Y0137200D02*
X0074169Y0137200D01*
X0074169Y0138200D01*
X0074169Y0142200D02*
X0074169Y0143200D01*
X0075169Y0143200D01*
X0075169Y0147200D02*
X0074169Y0147200D01*
X0074169Y0148200D01*
X0074169Y0152200D02*
X0074169Y0153200D01*
X0075169Y0153200D01*
X0075169Y0157200D02*
X0074169Y0157200D01*
X0074169Y0158200D01*
X0074169Y0162200D02*
X0074169Y0163200D01*
X0075169Y0163200D01*
X0075169Y0167200D02*
X0074169Y0167200D01*
X0074169Y0168200D01*
X0074169Y0172200D02*
X0074169Y0173200D01*
X0075169Y0173200D01*
X0075169Y0177200D02*
X0074169Y0177200D01*
X0074169Y0178200D01*
X0074169Y0182200D02*
X0074169Y0183200D01*
X0075169Y0183200D01*
X0075169Y0187200D02*
X0074169Y0187200D01*
X0074169Y0188200D01*
X0074169Y0192200D02*
X0074169Y0193200D01*
X0075169Y0193200D01*
X0075169Y0197200D02*
X0074169Y0197200D01*
X0074169Y0198200D01*
X0074169Y0202200D02*
X0074169Y0203200D01*
X0075169Y0203200D01*
X0075169Y0207200D02*
X0074169Y0207200D01*
X0074169Y0208200D01*
X0074169Y0212200D02*
X0074169Y0213200D01*
X0075169Y0213200D01*
X0075169Y0217200D02*
X0074169Y0217200D01*
X0074169Y0218200D01*
X0074169Y0222200D02*
X0074169Y0223200D01*
X0075169Y0223200D01*
X0075169Y0227200D02*
X0074169Y0227200D01*
X0074169Y0228200D01*
X0074169Y0232200D02*
X0074169Y0233200D01*
X0075169Y0233200D01*
X0075169Y0237200D02*
X0074169Y0237200D01*
X0074169Y0238200D01*
X0074169Y0242200D02*
X0074169Y0243200D01*
X0075169Y0243200D01*
X0075169Y0247200D02*
X0074169Y0247200D01*
X0074169Y0248200D01*
X0074169Y0252200D02*
X0074169Y0253200D01*
X0075169Y0253200D01*
X0079169Y0253200D02*
X0080169Y0253200D01*
X0080169Y0252200D01*
X0080169Y0248200D02*
X0080169Y0247200D01*
X0079169Y0247200D01*
X0079169Y0243200D02*
X0080169Y0243200D01*
X0080169Y0242200D01*
X0080169Y0238200D02*
X0080169Y0237200D01*
X0079169Y0237200D01*
X0079169Y0233200D02*
X0080169Y0233200D01*
X0080169Y0232200D01*
X0080169Y0228200D02*
X0080169Y0227200D01*
X0079169Y0227200D01*
X0079169Y0223200D02*
X0080169Y0223200D01*
X0080169Y0222200D01*
X0080169Y0218200D02*
X0080169Y0217200D01*
X0079169Y0217200D01*
X0079169Y0213200D02*
X0080169Y0213200D01*
X0080169Y0212200D01*
X0080169Y0208200D02*
X0080169Y0207200D01*
X0079169Y0207200D01*
X0079169Y0203200D02*
X0080169Y0203200D01*
X0080169Y0202200D01*
X0080169Y0198200D02*
X0080169Y0197200D01*
X0079169Y0197200D01*
X0079169Y0193200D02*
X0080169Y0193200D01*
X0080169Y0192200D01*
X0080169Y0188200D02*
X0080169Y0187200D01*
X0079169Y0187200D01*
X0079169Y0183200D02*
X0080169Y0183200D01*
X0080169Y0182200D01*
X0080169Y0178200D02*
X0080169Y0177200D01*
X0079169Y0177200D01*
X0079169Y0173200D02*
X0080169Y0173200D01*
X0080169Y0172200D01*
X0080169Y0168200D02*
X0080169Y0167200D01*
X0079169Y0167200D01*
X0079169Y0163200D02*
X0080169Y0163200D01*
X0080169Y0162200D01*
X0080169Y0158200D02*
X0080169Y0157200D01*
X0079169Y0157200D01*
X0079169Y0153200D02*
X0080169Y0153200D01*
X0080169Y0152200D01*
X0080169Y0148200D02*
X0080169Y0147200D01*
X0079169Y0147200D01*
X0079169Y0143200D02*
X0080169Y0143200D01*
X0080169Y0142200D01*
X0080169Y0138200D02*
X0080169Y0137200D01*
X0079169Y0137200D01*
X0079169Y0133200D02*
X0080169Y0133200D01*
X0080169Y0132200D01*
X0080169Y0128200D02*
X0080169Y0127200D01*
X0079169Y0127200D01*
X0079169Y0123200D02*
X0080169Y0123200D01*
X0080169Y0122200D01*
X0080169Y0118200D02*
X0080169Y0117200D01*
X0079169Y0117200D01*
X0084169Y0117200D02*
X0085169Y0117200D01*
X0084169Y0117200D02*
X0084169Y0118200D01*
X0084169Y0122200D02*
X0084169Y0123200D01*
X0085169Y0123200D01*
X0085169Y0127200D02*
X0084169Y0127200D01*
X0084169Y0128200D01*
X0084169Y0132200D02*
X0084169Y0133200D01*
X0085169Y0133200D01*
X0085169Y0137200D02*
X0084169Y0137200D01*
X0084169Y0138200D01*
X0084169Y0142200D02*
X0084169Y0143200D01*
X0085169Y0143200D01*
X0085169Y0147200D02*
X0084169Y0147200D01*
X0084169Y0148200D01*
X0084169Y0152200D02*
X0084169Y0153200D01*
X0085169Y0153200D01*
X0085169Y0157200D02*
X0084169Y0157200D01*
X0084169Y0158200D01*
X0084169Y0162200D02*
X0084169Y0163200D01*
X0085169Y0163200D01*
X0085169Y0167200D02*
X0084169Y0167200D01*
X0084169Y0168200D01*
X0084169Y0172200D02*
X0084169Y0173200D01*
X0085169Y0173200D01*
X0085169Y0177200D02*
X0084169Y0177200D01*
X0084169Y0178200D01*
X0084169Y0182200D02*
X0084169Y0183200D01*
X0085169Y0183200D01*
X0085169Y0187200D02*
X0084169Y0187200D01*
X0084169Y0188200D01*
X0084169Y0192200D02*
X0084169Y0193200D01*
X0085169Y0193200D01*
X0085169Y0197200D02*
X0084169Y0197200D01*
X0084169Y0198200D01*
X0084169Y0202200D02*
X0084169Y0203200D01*
X0085169Y0203200D01*
X0085169Y0207200D02*
X0084169Y0207200D01*
X0084169Y0208200D01*
X0084169Y0212200D02*
X0084169Y0213200D01*
X0085169Y0213200D01*
X0085169Y0217200D02*
X0084169Y0217200D01*
X0084169Y0218200D01*
X0084169Y0222200D02*
X0084169Y0223200D01*
X0085169Y0223200D01*
X0085169Y0227200D02*
X0084169Y0227200D01*
X0084169Y0228200D01*
X0084169Y0232200D02*
X0084169Y0233200D01*
X0085169Y0233200D01*
X0085169Y0237200D02*
X0084169Y0237200D01*
X0084169Y0238200D01*
X0084169Y0242200D02*
X0084169Y0243200D01*
X0085169Y0243200D01*
X0085169Y0247200D02*
X0084169Y0247200D01*
X0084169Y0248200D01*
X0084169Y0252200D02*
X0084169Y0253200D01*
X0085169Y0253200D01*
X0089169Y0253200D02*
X0090169Y0253200D01*
X0090169Y0252200D01*
X0090169Y0248200D02*
X0090169Y0247200D01*
X0089169Y0247200D01*
X0089169Y0243200D02*
X0090169Y0243200D01*
X0090169Y0242200D01*
X0090169Y0238200D02*
X0090169Y0237200D01*
X0089169Y0237200D01*
X0089169Y0233200D02*
X0090169Y0233200D01*
X0090169Y0232200D01*
X0090169Y0228200D02*
X0090169Y0227200D01*
X0089169Y0227200D01*
X0089169Y0223200D02*
X0090169Y0223200D01*
X0090169Y0222200D01*
X0090169Y0218200D02*
X0090169Y0217200D01*
X0089169Y0217200D01*
X0089169Y0213200D02*
X0090169Y0213200D01*
X0090169Y0212200D01*
X0090169Y0208200D02*
X0090169Y0207200D01*
X0089169Y0207200D01*
X0089169Y0203200D02*
X0090169Y0203200D01*
X0090169Y0202200D01*
X0090169Y0198200D02*
X0090169Y0197200D01*
X0089169Y0197200D01*
X0089169Y0193200D02*
X0090169Y0193200D01*
X0090169Y0192200D01*
X0090169Y0188200D02*
X0090169Y0187200D01*
X0089169Y0187200D01*
X0089169Y0183200D02*
X0090169Y0183200D01*
X0090169Y0182200D01*
X0090169Y0178200D02*
X0090169Y0177200D01*
X0089169Y0177200D01*
X0089169Y0173200D02*
X0090169Y0173200D01*
X0090169Y0172200D01*
X0090169Y0168200D02*
X0090169Y0167200D01*
X0089169Y0167200D01*
X0089169Y0163200D02*
X0090169Y0163200D01*
X0090169Y0162200D01*
X0090169Y0158200D02*
X0090169Y0157200D01*
X0089169Y0157200D01*
X0089169Y0153200D02*
X0090169Y0153200D01*
X0090169Y0152200D01*
X0090169Y0148200D02*
X0090169Y0147200D01*
X0089169Y0147200D01*
X0089169Y0143200D02*
X0090169Y0143200D01*
X0090169Y0142200D01*
X0090169Y0138200D02*
X0090169Y0137200D01*
X0089169Y0137200D01*
X0089169Y0133200D02*
X0090169Y0133200D01*
X0090169Y0132200D01*
X0090169Y0128200D02*
X0090169Y0127200D01*
X0089169Y0127200D01*
X0089169Y0123200D02*
X0090169Y0123200D01*
X0090169Y0122200D01*
X0090169Y0118200D02*
X0090169Y0117200D01*
X0089169Y0117200D01*
X0094169Y0117200D02*
X0095169Y0117200D01*
X0094169Y0117200D02*
X0094169Y0118200D01*
X0094169Y0122200D02*
X0094169Y0123200D01*
X0095169Y0123200D01*
X0095169Y0127200D02*
X0094169Y0127200D01*
X0094169Y0128200D01*
X0094169Y0132200D02*
X0094169Y0133200D01*
X0095169Y0133200D01*
X0095169Y0137200D02*
X0094169Y0137200D01*
X0094169Y0138200D01*
X0094169Y0142200D02*
X0094169Y0143200D01*
X0095169Y0143200D01*
X0095169Y0147200D02*
X0094169Y0147200D01*
X0094169Y0148200D01*
X0094169Y0152200D02*
X0094169Y0153200D01*
X0095169Y0153200D01*
X0095169Y0157200D02*
X0094169Y0157200D01*
X0094169Y0158200D01*
X0094169Y0162200D02*
X0094169Y0163200D01*
X0095169Y0163200D01*
X0095169Y0167200D02*
X0094169Y0167200D01*
X0094169Y0168200D01*
X0094169Y0172200D02*
X0094169Y0173200D01*
X0095169Y0173200D01*
X0095169Y0177200D02*
X0094169Y0177200D01*
X0094169Y0178200D01*
X0094169Y0182200D02*
X0094169Y0183200D01*
X0095169Y0183200D01*
X0095169Y0187200D02*
X0094169Y0187200D01*
X0094169Y0188200D01*
X0094169Y0192200D02*
X0094169Y0193200D01*
X0095169Y0193200D01*
X0095169Y0197200D02*
X0094169Y0197200D01*
X0094169Y0198200D01*
X0094169Y0202200D02*
X0094169Y0203200D01*
X0095169Y0203200D01*
X0095169Y0207200D02*
X0094169Y0207200D01*
X0094169Y0208200D01*
X0094169Y0212200D02*
X0094169Y0213200D01*
X0095169Y0213200D01*
X0095169Y0217200D02*
X0094169Y0217200D01*
X0094169Y0218200D01*
X0094169Y0222200D02*
X0094169Y0223200D01*
X0095169Y0223200D01*
X0095169Y0227200D02*
X0094169Y0227200D01*
X0094169Y0228200D01*
X0094169Y0232200D02*
X0094169Y0233200D01*
X0095169Y0233200D01*
X0095169Y0237200D02*
X0094169Y0237200D01*
X0094169Y0238200D01*
X0094169Y0242200D02*
X0094169Y0243200D01*
X0095169Y0243200D01*
X0095169Y0247200D02*
X0094169Y0247200D01*
X0094169Y0248200D01*
X0094169Y0252200D02*
X0094169Y0253200D01*
X0095169Y0253200D01*
X0099169Y0253200D02*
X0100169Y0253200D01*
X0100169Y0252200D01*
X0100169Y0248200D02*
X0100169Y0247200D01*
X0099169Y0247200D01*
X0099169Y0243200D02*
X0100169Y0243200D01*
X0100169Y0242200D01*
X0100169Y0238200D02*
X0100169Y0237200D01*
X0099169Y0237200D01*
X0099169Y0233200D02*
X0100169Y0233200D01*
X0100169Y0232200D01*
X0100169Y0228200D02*
X0100169Y0227200D01*
X0099169Y0227200D01*
X0099169Y0223200D02*
X0100169Y0223200D01*
X0100169Y0222200D01*
X0100169Y0218200D02*
X0100169Y0217200D01*
X0099169Y0217200D01*
X0099169Y0213200D02*
X0100169Y0213200D01*
X0100169Y0212200D01*
X0100169Y0208200D02*
X0100169Y0207200D01*
X0099169Y0207200D01*
X0099169Y0203200D02*
X0100169Y0203200D01*
X0100169Y0202200D01*
X0100169Y0198200D02*
X0100169Y0197200D01*
X0099169Y0197200D01*
X0099169Y0193200D02*
X0100169Y0193200D01*
X0100169Y0192200D01*
X0100169Y0188200D02*
X0100169Y0187200D01*
X0099169Y0187200D01*
X0099169Y0183200D02*
X0100169Y0183200D01*
X0100169Y0182200D01*
X0100169Y0178200D02*
X0100169Y0177200D01*
X0099169Y0177200D01*
X0099169Y0173200D02*
X0100169Y0173200D01*
X0100169Y0172200D01*
X0100169Y0168200D02*
X0100169Y0167200D01*
X0099169Y0167200D01*
X0099169Y0163200D02*
X0100169Y0163200D01*
X0100169Y0162200D01*
X0100169Y0158200D02*
X0100169Y0157200D01*
X0099169Y0157200D01*
X0099169Y0153200D02*
X0100169Y0153200D01*
X0100169Y0152200D01*
X0100169Y0148200D02*
X0100169Y0147200D01*
X0099169Y0147200D01*
X0099169Y0143200D02*
X0100169Y0143200D01*
X0100169Y0142200D01*
X0100169Y0138200D02*
X0100169Y0137200D01*
X0099169Y0137200D01*
X0099169Y0133200D02*
X0100169Y0133200D01*
X0100169Y0132200D01*
X0100169Y0128200D02*
X0100169Y0127200D01*
X0099169Y0127200D01*
X0099169Y0123200D02*
X0100169Y0123200D01*
X0100169Y0122200D01*
X0100169Y0118200D02*
X0100169Y0117200D01*
X0099169Y0117200D01*
X0104169Y0117200D02*
X0105169Y0117200D01*
X0104169Y0117200D02*
X0104169Y0118200D01*
X0104169Y0122200D02*
X0104169Y0123200D01*
X0105169Y0123200D01*
X0105169Y0127200D02*
X0104169Y0127200D01*
X0104169Y0128200D01*
X0104169Y0132200D02*
X0104169Y0133200D01*
X0105169Y0133200D01*
X0105169Y0137200D02*
X0104169Y0137200D01*
X0104169Y0138200D01*
X0104169Y0142200D02*
X0104169Y0143200D01*
X0105169Y0143200D01*
X0105169Y0147200D02*
X0104169Y0147200D01*
X0104169Y0148200D01*
X0104169Y0152200D02*
X0104169Y0153200D01*
X0105169Y0153200D01*
X0105169Y0157200D02*
X0104169Y0157200D01*
X0104169Y0158200D01*
X0104169Y0162200D02*
X0104169Y0163200D01*
X0105169Y0163200D01*
X0105169Y0167200D02*
X0104169Y0167200D01*
X0104169Y0168200D01*
X0104169Y0172200D02*
X0104169Y0173200D01*
X0105169Y0173200D01*
X0105169Y0177200D02*
X0104169Y0177200D01*
X0104169Y0178200D01*
X0104169Y0182200D02*
X0104169Y0183200D01*
X0105169Y0183200D01*
X0105169Y0187200D02*
X0104169Y0187200D01*
X0104169Y0188200D01*
X0104169Y0192200D02*
X0104169Y0193200D01*
X0105169Y0193200D01*
X0105169Y0197200D02*
X0104169Y0197200D01*
X0104169Y0198200D01*
X0104169Y0202200D02*
X0104169Y0203200D01*
X0105169Y0203200D01*
X0105169Y0207200D02*
X0104169Y0207200D01*
X0104169Y0208200D01*
X0104169Y0212200D02*
X0104169Y0213200D01*
X0105169Y0213200D01*
X0105169Y0217200D02*
X0104169Y0217200D01*
X0104169Y0218200D01*
X0104169Y0222200D02*
X0104169Y0223200D01*
X0105169Y0223200D01*
X0105169Y0227200D02*
X0104169Y0227200D01*
X0104169Y0228200D01*
X0104169Y0232200D02*
X0104169Y0233200D01*
X0105169Y0233200D01*
X0105169Y0237200D02*
X0104169Y0237200D01*
X0104169Y0238200D01*
X0104169Y0242200D02*
X0104169Y0243200D01*
X0105169Y0243200D01*
X0105169Y0247200D02*
X0104169Y0247200D01*
X0104169Y0248200D01*
X0104169Y0252200D02*
X0104169Y0253200D01*
X0105169Y0253200D01*
X0109169Y0253200D02*
X0110169Y0253200D01*
X0110169Y0252200D01*
X0110169Y0248200D02*
X0110169Y0247200D01*
X0109169Y0247200D01*
X0109169Y0243200D02*
X0110169Y0243200D01*
X0110169Y0242200D01*
X0110169Y0238200D02*
X0110169Y0237200D01*
X0109169Y0237200D01*
X0109169Y0233200D02*
X0110169Y0233200D01*
X0110169Y0232200D01*
X0110169Y0228200D02*
X0110169Y0227200D01*
X0109169Y0227200D01*
X0109169Y0223200D02*
X0110169Y0223200D01*
X0110169Y0222200D01*
X0110169Y0218200D02*
X0110169Y0217200D01*
X0109169Y0217200D01*
X0109169Y0213200D02*
X0110169Y0213200D01*
X0110169Y0212200D01*
X0110169Y0208200D02*
X0110169Y0207200D01*
X0109169Y0207200D01*
X0109169Y0203200D02*
X0110169Y0203200D01*
X0110169Y0202200D01*
X0110169Y0198200D02*
X0110169Y0197200D01*
X0109169Y0197200D01*
X0109169Y0193200D02*
X0110169Y0193200D01*
X0110169Y0192200D01*
X0110169Y0188200D02*
X0110169Y0187200D01*
X0109169Y0187200D01*
X0109169Y0183200D02*
X0110169Y0183200D01*
X0110169Y0182200D01*
X0110169Y0178200D02*
X0110169Y0177200D01*
X0109169Y0177200D01*
X0109169Y0173200D02*
X0110169Y0173200D01*
X0110169Y0172200D01*
X0110169Y0168200D02*
X0110169Y0167200D01*
X0109169Y0167200D01*
X0109169Y0163200D02*
X0110169Y0163200D01*
X0110169Y0162200D01*
X0110169Y0158200D02*
X0110169Y0157200D01*
X0109169Y0157200D01*
X0109169Y0153200D02*
X0110169Y0153200D01*
X0110169Y0152200D01*
X0110169Y0148200D02*
X0110169Y0147200D01*
X0109169Y0147200D01*
X0109169Y0143200D02*
X0110169Y0143200D01*
X0110169Y0142200D01*
X0110169Y0138200D02*
X0110169Y0137200D01*
X0109169Y0137200D01*
X0109169Y0133200D02*
X0110169Y0133200D01*
X0110169Y0132200D01*
X0110169Y0128200D02*
X0110169Y0127200D01*
X0109169Y0127200D01*
X0109169Y0123200D02*
X0110169Y0123200D01*
X0110169Y0122200D01*
X0110169Y0118200D02*
X0110169Y0117200D01*
X0109169Y0117200D01*
X0114169Y0117200D02*
X0115169Y0117200D01*
X0114169Y0117200D02*
X0114169Y0118200D01*
X0114169Y0122200D02*
X0114169Y0123200D01*
X0115169Y0123200D01*
X0115169Y0127200D02*
X0114169Y0127200D01*
X0114169Y0128200D01*
X0114169Y0132200D02*
X0114169Y0133200D01*
X0115169Y0133200D01*
X0115169Y0137200D02*
X0114169Y0137200D01*
X0114169Y0138200D01*
X0114169Y0142200D02*
X0114169Y0143200D01*
X0115169Y0143200D01*
X0115169Y0147200D02*
X0114169Y0147200D01*
X0114169Y0148200D01*
X0114169Y0152200D02*
X0114169Y0153200D01*
X0115169Y0153200D01*
X0115169Y0157200D02*
X0114169Y0157200D01*
X0114169Y0158200D01*
X0114169Y0162200D02*
X0114169Y0163200D01*
X0115169Y0163200D01*
X0115169Y0167200D02*
X0114169Y0167200D01*
X0114169Y0168200D01*
X0114169Y0172200D02*
X0114169Y0173200D01*
X0115169Y0173200D01*
X0115169Y0177200D02*
X0114169Y0177200D01*
X0114169Y0178200D01*
X0114169Y0182200D02*
X0114169Y0183200D01*
X0115169Y0183200D01*
X0115169Y0187200D02*
X0114169Y0187200D01*
X0114169Y0188200D01*
X0114169Y0192200D02*
X0114169Y0193200D01*
X0115169Y0193200D01*
X0115169Y0197200D02*
X0114169Y0197200D01*
X0114169Y0198200D01*
X0114169Y0202200D02*
X0114169Y0203200D01*
X0115169Y0203200D01*
X0115169Y0207200D02*
X0114169Y0207200D01*
X0114169Y0208200D01*
X0114169Y0212200D02*
X0114169Y0213200D01*
X0115169Y0213200D01*
X0115169Y0217200D02*
X0114169Y0217200D01*
X0114169Y0218200D01*
X0114169Y0222200D02*
X0114169Y0223200D01*
X0115169Y0223200D01*
X0115169Y0227200D02*
X0114169Y0227200D01*
X0114169Y0228200D01*
X0114169Y0232200D02*
X0114169Y0233200D01*
X0115169Y0233200D01*
X0115169Y0237200D02*
X0114169Y0237200D01*
X0114169Y0238200D01*
X0114169Y0242200D02*
X0114169Y0243200D01*
X0115169Y0243200D01*
X0115169Y0247200D02*
X0114169Y0247200D01*
X0114169Y0248200D01*
X0114169Y0252200D02*
X0114169Y0253200D01*
X0115169Y0253200D01*
X0119169Y0253200D02*
X0120169Y0253200D01*
X0120169Y0252200D01*
X0120169Y0248200D02*
X0120169Y0247200D01*
X0119169Y0247200D01*
X0119169Y0243200D02*
X0120169Y0243200D01*
X0120169Y0242200D01*
X0120169Y0238200D02*
X0120169Y0237200D01*
X0119169Y0237200D01*
X0119169Y0233200D02*
X0120169Y0233200D01*
X0120169Y0232200D01*
X0120169Y0228200D02*
X0120169Y0227200D01*
X0119169Y0227200D01*
X0119169Y0223200D02*
X0120169Y0223200D01*
X0120169Y0222200D01*
X0120169Y0218200D02*
X0120169Y0217200D01*
X0119169Y0217200D01*
X0119169Y0213200D02*
X0120169Y0213200D01*
X0120169Y0212200D01*
X0120169Y0208200D02*
X0120169Y0207200D01*
X0119169Y0207200D01*
X0119169Y0203200D02*
X0120169Y0203200D01*
X0120169Y0202200D01*
X0120169Y0198200D02*
X0120169Y0197200D01*
X0119169Y0197200D01*
X0119169Y0193200D02*
X0120169Y0193200D01*
X0120169Y0192200D01*
X0120169Y0188200D02*
X0120169Y0187200D01*
X0119169Y0187200D01*
X0119169Y0183200D02*
X0120169Y0183200D01*
X0120169Y0182200D01*
X0120169Y0178200D02*
X0120169Y0177200D01*
X0119169Y0177200D01*
X0119169Y0173200D02*
X0120169Y0173200D01*
X0120169Y0172200D01*
X0120169Y0168200D02*
X0120169Y0167200D01*
X0119169Y0167200D01*
X0119169Y0163200D02*
X0120169Y0163200D01*
X0120169Y0162200D01*
X0120169Y0158200D02*
X0120169Y0157200D01*
X0119169Y0157200D01*
X0119169Y0153200D02*
X0120169Y0153200D01*
X0120169Y0152200D01*
X0120169Y0148200D02*
X0120169Y0147200D01*
X0119169Y0147200D01*
X0119169Y0143200D02*
X0120169Y0143200D01*
X0120169Y0142200D01*
X0120169Y0138200D02*
X0120169Y0137200D01*
X0119169Y0137200D01*
X0119169Y0133200D02*
X0120169Y0133200D01*
X0120169Y0132200D01*
X0120169Y0128200D02*
X0120169Y0127200D01*
X0119169Y0127200D01*
X0119169Y0123200D02*
X0120169Y0123200D01*
X0120169Y0122200D01*
X0120169Y0118200D02*
X0120169Y0117200D01*
X0119169Y0117200D01*
X0124169Y0117200D02*
X0125169Y0117200D01*
X0124169Y0117200D02*
X0124169Y0118200D01*
X0124169Y0122200D02*
X0124169Y0123200D01*
X0125169Y0123200D01*
X0125169Y0127200D02*
X0124169Y0127200D01*
X0124169Y0128200D01*
X0124169Y0132200D02*
X0124169Y0133200D01*
X0125169Y0133200D01*
X0125169Y0137200D02*
X0124169Y0137200D01*
X0124169Y0138200D01*
X0124169Y0142200D02*
X0124169Y0143200D01*
X0125169Y0143200D01*
X0125169Y0147200D02*
X0124169Y0147200D01*
X0124169Y0148200D01*
X0124169Y0152200D02*
X0124169Y0153200D01*
X0125169Y0153200D01*
X0125169Y0157200D02*
X0124169Y0157200D01*
X0124169Y0158200D01*
X0124169Y0162200D02*
X0124169Y0163200D01*
X0125169Y0163200D01*
X0125169Y0167200D02*
X0124169Y0167200D01*
X0124169Y0168200D01*
X0124169Y0172200D02*
X0124169Y0173200D01*
X0125169Y0173200D01*
X0125169Y0177200D02*
X0124169Y0177200D01*
X0124169Y0178200D01*
X0124169Y0182200D02*
X0124169Y0183200D01*
X0125169Y0183200D01*
X0125169Y0187200D02*
X0124169Y0187200D01*
X0124169Y0188200D01*
X0124169Y0192200D02*
X0124169Y0193200D01*
X0125169Y0193200D01*
X0125169Y0197200D02*
X0124169Y0197200D01*
X0124169Y0198200D01*
X0124169Y0202200D02*
X0124169Y0203200D01*
X0125169Y0203200D01*
X0125169Y0207200D02*
X0124169Y0207200D01*
X0124169Y0208200D01*
X0124169Y0212200D02*
X0124169Y0213200D01*
X0125169Y0213200D01*
X0125169Y0217200D02*
X0124169Y0217200D01*
X0124169Y0218200D01*
X0124169Y0222200D02*
X0124169Y0223200D01*
X0125169Y0223200D01*
X0125169Y0227200D02*
X0124169Y0227200D01*
X0124169Y0228200D01*
X0124169Y0232200D02*
X0124169Y0233200D01*
X0125169Y0233200D01*
X0125169Y0237200D02*
X0124169Y0237200D01*
X0124169Y0238200D01*
X0124169Y0242200D02*
X0124169Y0243200D01*
X0125169Y0243200D01*
X0125169Y0247200D02*
X0124169Y0247200D01*
X0124169Y0248200D01*
X0124169Y0252200D02*
X0124169Y0253200D01*
X0125169Y0253200D01*
X0129169Y0253200D02*
X0130169Y0253200D01*
X0130169Y0252200D01*
X0130169Y0248200D02*
X0130169Y0247200D01*
X0129169Y0247200D01*
X0129169Y0243200D02*
X0130169Y0243200D01*
X0130169Y0242200D01*
X0130169Y0238200D02*
X0130169Y0237200D01*
X0129169Y0237200D01*
X0129169Y0233200D02*
X0130169Y0233200D01*
X0130169Y0232200D01*
X0130169Y0228200D02*
X0130169Y0227200D01*
X0129169Y0227200D01*
X0129169Y0223200D02*
X0130169Y0223200D01*
X0130169Y0222200D01*
X0130169Y0218200D02*
X0130169Y0217200D01*
X0129169Y0217200D01*
X0129169Y0213200D02*
X0130169Y0213200D01*
X0130169Y0212200D01*
X0130169Y0208200D02*
X0130169Y0207200D01*
X0129169Y0207200D01*
X0129169Y0203200D02*
X0130169Y0203200D01*
X0130169Y0202200D01*
X0130169Y0198200D02*
X0130169Y0197200D01*
X0129169Y0197200D01*
X0129169Y0193200D02*
X0130169Y0193200D01*
X0130169Y0192200D01*
X0130169Y0188200D02*
X0130169Y0187200D01*
X0129169Y0187200D01*
X0129169Y0183200D02*
X0130169Y0183200D01*
X0130169Y0182200D01*
X0130169Y0178200D02*
X0130169Y0177200D01*
X0129169Y0177200D01*
X0129169Y0173200D02*
X0130169Y0173200D01*
X0130169Y0172200D01*
X0130169Y0168200D02*
X0130169Y0167200D01*
X0129169Y0167200D01*
X0129169Y0163200D02*
X0130169Y0163200D01*
X0130169Y0162200D01*
X0130169Y0158200D02*
X0130169Y0157200D01*
X0129169Y0157200D01*
X0129169Y0153200D02*
X0130169Y0153200D01*
X0130169Y0152200D01*
X0130169Y0148200D02*
X0130169Y0147200D01*
X0129169Y0147200D01*
X0129169Y0143200D02*
X0130169Y0143200D01*
X0130169Y0142200D01*
X0130169Y0138200D02*
X0130169Y0137200D01*
X0129169Y0137200D01*
X0129169Y0133200D02*
X0130169Y0133200D01*
X0130169Y0132200D01*
X0130169Y0128200D02*
X0130169Y0127200D01*
X0129169Y0127200D01*
X0129169Y0123200D02*
X0130169Y0123200D01*
X0130169Y0122200D01*
X0130169Y0118200D02*
X0130169Y0117200D01*
X0129169Y0117200D01*
X0134169Y0117200D02*
X0135169Y0117200D01*
X0134169Y0117200D02*
X0134169Y0118200D01*
X0134169Y0122200D02*
X0134169Y0123200D01*
X0135169Y0123200D01*
X0135169Y0127200D02*
X0134169Y0127200D01*
X0134169Y0128200D01*
X0134169Y0132200D02*
X0134169Y0133200D01*
X0135169Y0133200D01*
X0135169Y0137200D02*
X0134169Y0137200D01*
X0134169Y0138200D01*
X0134169Y0142200D02*
X0134169Y0143200D01*
X0135169Y0143200D01*
X0135169Y0147200D02*
X0134169Y0147200D01*
X0134169Y0148200D01*
X0134169Y0152200D02*
X0134169Y0153200D01*
X0135169Y0153200D01*
X0135169Y0157200D02*
X0134169Y0157200D01*
X0134169Y0158200D01*
X0134169Y0162200D02*
X0134169Y0163200D01*
X0135169Y0163200D01*
X0135169Y0167200D02*
X0134169Y0167200D01*
X0134169Y0168200D01*
X0134169Y0172200D02*
X0134169Y0173200D01*
X0135169Y0173200D01*
X0135169Y0177200D02*
X0134169Y0177200D01*
X0134169Y0178200D01*
X0134169Y0182200D02*
X0134169Y0183200D01*
X0135169Y0183200D01*
X0135169Y0187200D02*
X0134169Y0187200D01*
X0134169Y0188200D01*
X0134169Y0192200D02*
X0134169Y0193200D01*
X0135169Y0193200D01*
X0135169Y0197200D02*
X0134169Y0197200D01*
X0134169Y0198200D01*
X0134169Y0202200D02*
X0134169Y0203200D01*
X0135169Y0203200D01*
X0135169Y0207200D02*
X0134169Y0207200D01*
X0134169Y0208200D01*
X0134169Y0212200D02*
X0134169Y0213200D01*
X0135169Y0213200D01*
X0135169Y0217200D02*
X0134169Y0217200D01*
X0134169Y0218200D01*
X0134169Y0222200D02*
X0134169Y0223200D01*
X0135169Y0223200D01*
X0135169Y0227200D02*
X0134169Y0227200D01*
X0134169Y0228200D01*
X0134169Y0232200D02*
X0134169Y0233200D01*
X0135169Y0233200D01*
X0135169Y0237200D02*
X0134169Y0237200D01*
X0134169Y0238200D01*
X0134169Y0242200D02*
X0134169Y0243200D01*
X0135169Y0243200D01*
X0135169Y0247200D02*
X0134169Y0247200D01*
X0134169Y0248200D01*
X0134169Y0252200D02*
X0134169Y0253200D01*
X0135169Y0253200D01*
X0139169Y0253200D02*
X0140169Y0253200D01*
X0140169Y0252200D01*
X0140169Y0248200D02*
X0140169Y0247200D01*
X0139169Y0247200D01*
X0139169Y0243200D02*
X0140169Y0243200D01*
X0140169Y0242200D01*
X0140169Y0238200D02*
X0140169Y0237200D01*
X0139169Y0237200D01*
X0139169Y0233200D02*
X0140169Y0233200D01*
X0140169Y0232200D01*
X0140169Y0228200D02*
X0140169Y0227200D01*
X0139169Y0227200D01*
X0139169Y0223200D02*
X0140169Y0223200D01*
X0140169Y0222200D01*
X0140169Y0218200D02*
X0140169Y0217200D01*
X0139169Y0217200D01*
X0139169Y0213200D02*
X0140169Y0213200D01*
X0140169Y0212200D01*
X0140169Y0208200D02*
X0140169Y0207200D01*
X0139169Y0207200D01*
X0139169Y0203200D02*
X0140169Y0203200D01*
X0140169Y0202200D01*
X0140169Y0198200D02*
X0140169Y0197200D01*
X0139169Y0197200D01*
X0139169Y0193200D02*
X0140169Y0193200D01*
X0140169Y0192200D01*
X0140169Y0188200D02*
X0140169Y0187200D01*
X0139169Y0187200D01*
X0139169Y0183200D02*
X0140169Y0183200D01*
X0140169Y0182200D01*
X0140169Y0178200D02*
X0140169Y0177200D01*
X0139169Y0177200D01*
X0139169Y0173200D02*
X0140169Y0173200D01*
X0140169Y0172200D01*
X0140169Y0168200D02*
X0140169Y0167200D01*
X0139169Y0167200D01*
X0139169Y0163200D02*
X0140169Y0163200D01*
X0140169Y0162200D01*
X0140169Y0158200D02*
X0140169Y0157200D01*
X0139169Y0157200D01*
X0139169Y0153200D02*
X0140169Y0153200D01*
X0140169Y0152200D01*
X0140169Y0148200D02*
X0140169Y0147200D01*
X0139169Y0147200D01*
X0139169Y0143200D02*
X0140169Y0143200D01*
X0140169Y0142200D01*
X0140169Y0138200D02*
X0140169Y0137200D01*
X0139169Y0137200D01*
X0139169Y0133200D02*
X0140169Y0133200D01*
X0140169Y0132200D01*
X0140169Y0128200D02*
X0140169Y0127200D01*
X0139169Y0127200D01*
X0139169Y0123200D02*
X0140169Y0123200D01*
X0140169Y0122200D01*
X0140169Y0118200D02*
X0140169Y0117200D01*
X0139169Y0117200D01*
X0144169Y0117200D02*
X0145169Y0117200D01*
X0144169Y0117200D02*
X0144169Y0118200D01*
X0144169Y0122200D02*
X0144169Y0123200D01*
X0145169Y0123200D01*
X0145169Y0127200D02*
X0144169Y0127200D01*
X0144169Y0128200D01*
X0144169Y0132200D02*
X0144169Y0133200D01*
X0145169Y0133200D01*
X0145169Y0137200D02*
X0144169Y0137200D01*
X0144169Y0138200D01*
X0144169Y0142200D02*
X0144169Y0143200D01*
X0145169Y0143200D01*
X0145169Y0147200D02*
X0144169Y0147200D01*
X0144169Y0148200D01*
X0144169Y0152200D02*
X0144169Y0153200D01*
X0145169Y0153200D01*
X0145169Y0157200D02*
X0144169Y0157200D01*
X0144169Y0158200D01*
X0144169Y0162200D02*
X0144169Y0163200D01*
X0145169Y0163200D01*
X0145169Y0167200D02*
X0144169Y0167200D01*
X0144169Y0168200D01*
X0144169Y0172200D02*
X0144169Y0173200D01*
X0145169Y0173200D01*
X0145169Y0177200D02*
X0144169Y0177200D01*
X0144169Y0178200D01*
X0144169Y0182200D02*
X0144169Y0183200D01*
X0145169Y0183200D01*
X0145169Y0187200D02*
X0144169Y0187200D01*
X0144169Y0188200D01*
X0144169Y0192200D02*
X0144169Y0193200D01*
X0145169Y0193200D01*
X0145169Y0197200D02*
X0144169Y0197200D01*
X0144169Y0198200D01*
X0144169Y0202200D02*
X0144169Y0203200D01*
X0145169Y0203200D01*
X0145169Y0207200D02*
X0144169Y0207200D01*
X0144169Y0208200D01*
X0144169Y0212200D02*
X0144169Y0213200D01*
X0145169Y0213200D01*
X0145169Y0217200D02*
X0144169Y0217200D01*
X0144169Y0218200D01*
X0144169Y0222200D02*
X0144169Y0223200D01*
X0145169Y0223200D01*
X0145169Y0227200D02*
X0144169Y0227200D01*
X0144169Y0228200D01*
X0144169Y0232200D02*
X0144169Y0233200D01*
X0145169Y0233200D01*
X0145169Y0237200D02*
X0144169Y0237200D01*
X0144169Y0238200D01*
X0144169Y0242200D02*
X0144169Y0243200D01*
X0145169Y0243200D01*
X0145169Y0247200D02*
X0144169Y0247200D01*
X0144169Y0248200D01*
X0144169Y0252200D02*
X0144169Y0253200D01*
X0145169Y0253200D01*
X0149169Y0253200D02*
X0150169Y0253200D01*
X0150169Y0252200D01*
X0150169Y0248200D02*
X0150169Y0247200D01*
X0149169Y0247200D01*
X0149169Y0243200D02*
X0150169Y0243200D01*
X0150169Y0242200D01*
X0150169Y0238200D02*
X0150169Y0237200D01*
X0149169Y0237200D01*
X0149169Y0233200D02*
X0150169Y0233200D01*
X0150169Y0232200D01*
X0150169Y0228200D02*
X0150169Y0227200D01*
X0149169Y0227200D01*
X0149169Y0223200D02*
X0150169Y0223200D01*
X0150169Y0222200D01*
X0150169Y0218200D02*
X0150169Y0217200D01*
X0149169Y0217200D01*
X0149169Y0213200D02*
X0150169Y0213200D01*
X0150169Y0212200D01*
X0150169Y0208200D02*
X0150169Y0207200D01*
X0149169Y0207200D01*
X0149169Y0203200D02*
X0150169Y0203200D01*
X0150169Y0202200D01*
X0150169Y0198200D02*
X0150169Y0197200D01*
X0149169Y0197200D01*
X0149169Y0193200D02*
X0150169Y0193200D01*
X0150169Y0192200D01*
X0150169Y0188200D02*
X0150169Y0187200D01*
X0149169Y0187200D01*
X0149169Y0183200D02*
X0150169Y0183200D01*
X0150169Y0182200D01*
X0150169Y0178200D02*
X0150169Y0177200D01*
X0149169Y0177200D01*
X0149169Y0173200D02*
X0150169Y0173200D01*
X0150169Y0172200D01*
X0150169Y0168200D02*
X0150169Y0167200D01*
X0149169Y0167200D01*
X0149169Y0163200D02*
X0150169Y0163200D01*
X0150169Y0162200D01*
X0150169Y0158200D02*
X0150169Y0157200D01*
X0149169Y0157200D01*
X0149169Y0153200D02*
X0150169Y0153200D01*
X0150169Y0152200D01*
X0150169Y0148200D02*
X0150169Y0147200D01*
X0149169Y0147200D01*
X0149169Y0143200D02*
X0150169Y0143200D01*
X0150169Y0142200D01*
X0150169Y0138200D02*
X0150169Y0137200D01*
X0149169Y0137200D01*
X0149169Y0133200D02*
X0150169Y0133200D01*
X0150169Y0132200D01*
X0150169Y0128200D02*
X0150169Y0127200D01*
X0149169Y0127200D01*
X0149169Y0123200D02*
X0150169Y0123200D01*
X0150169Y0122200D01*
X0150169Y0118200D02*
X0150169Y0117200D01*
X0149169Y0117200D01*
X0154169Y0117200D02*
X0155169Y0117200D01*
X0154169Y0117200D02*
X0154169Y0118200D01*
X0154169Y0122200D02*
X0154169Y0123200D01*
X0155169Y0123200D01*
X0155169Y0127200D02*
X0154169Y0127200D01*
X0154169Y0128200D01*
X0154169Y0132200D02*
X0154169Y0133200D01*
X0155169Y0133200D01*
X0155169Y0137200D02*
X0154169Y0137200D01*
X0154169Y0138200D01*
X0154169Y0142200D02*
X0154169Y0143200D01*
X0155169Y0143200D01*
X0155169Y0147200D02*
X0154169Y0147200D01*
X0154169Y0148200D01*
X0154169Y0152200D02*
X0154169Y0153200D01*
X0155169Y0153200D01*
X0155169Y0157200D02*
X0154169Y0157200D01*
X0154169Y0158200D01*
X0154169Y0162200D02*
X0154169Y0163200D01*
X0155169Y0163200D01*
X0155169Y0167200D02*
X0154169Y0167200D01*
X0154169Y0168200D01*
X0154169Y0172200D02*
X0154169Y0173200D01*
X0155169Y0173200D01*
X0155169Y0177200D02*
X0154169Y0177200D01*
X0154169Y0178200D01*
X0154169Y0182200D02*
X0154169Y0183200D01*
X0155169Y0183200D01*
X0155169Y0187200D02*
X0154169Y0187200D01*
X0154169Y0188200D01*
X0154169Y0192200D02*
X0154169Y0193200D01*
X0155169Y0193200D01*
X0155169Y0197200D02*
X0154169Y0197200D01*
X0154169Y0198200D01*
X0154169Y0202200D02*
X0154169Y0203200D01*
X0155169Y0203200D01*
X0155169Y0207200D02*
X0154169Y0207200D01*
X0154169Y0208200D01*
X0154169Y0212200D02*
X0154169Y0213200D01*
X0155169Y0213200D01*
X0155169Y0217200D02*
X0154169Y0217200D01*
X0154169Y0218200D01*
X0154169Y0222200D02*
X0154169Y0223200D01*
X0155169Y0223200D01*
X0155169Y0227200D02*
X0154169Y0227200D01*
X0154169Y0228200D01*
X0154169Y0232200D02*
X0154169Y0233200D01*
X0155169Y0233200D01*
X0155169Y0237200D02*
X0154169Y0237200D01*
X0154169Y0238200D01*
X0154169Y0242200D02*
X0154169Y0243200D01*
X0155169Y0243200D01*
X0155169Y0247200D02*
X0154169Y0247200D01*
X0154169Y0248200D01*
X0154169Y0252200D02*
X0154169Y0253200D01*
X0155169Y0253200D01*
X0159169Y0253200D02*
X0160169Y0253200D01*
X0160169Y0252200D01*
X0160169Y0248200D02*
X0160169Y0247200D01*
X0159169Y0247200D01*
X0159169Y0243200D02*
X0160169Y0243200D01*
X0160169Y0242200D01*
X0160169Y0238200D02*
X0160169Y0237200D01*
X0159169Y0237200D01*
X0159169Y0233200D02*
X0160169Y0233200D01*
X0160169Y0232200D01*
X0160169Y0228200D02*
X0160169Y0227200D01*
X0159169Y0227200D01*
X0159169Y0223200D02*
X0160169Y0223200D01*
X0160169Y0222200D01*
X0160169Y0218200D02*
X0160169Y0217200D01*
X0159169Y0217200D01*
X0159169Y0213200D02*
X0160169Y0213200D01*
X0160169Y0212200D01*
X0160169Y0208200D02*
X0160169Y0207200D01*
X0159169Y0207200D01*
X0159169Y0203200D02*
X0160169Y0203200D01*
X0160169Y0202200D01*
X0160169Y0198200D02*
X0160169Y0197200D01*
X0159169Y0197200D01*
X0159169Y0193200D02*
X0160169Y0193200D01*
X0160169Y0192200D01*
X0160169Y0188200D02*
X0160169Y0187200D01*
X0159169Y0187200D01*
X0159169Y0183200D02*
X0160169Y0183200D01*
X0160169Y0182200D01*
X0160169Y0178200D02*
X0160169Y0177200D01*
X0159169Y0177200D01*
X0159169Y0173200D02*
X0160169Y0173200D01*
X0160169Y0172200D01*
X0160169Y0168200D02*
X0160169Y0167200D01*
X0159169Y0167200D01*
X0159169Y0163200D02*
X0160169Y0163200D01*
X0160169Y0162200D01*
X0160169Y0158200D02*
X0160169Y0157200D01*
X0159169Y0157200D01*
X0159169Y0153200D02*
X0160169Y0153200D01*
X0160169Y0152200D01*
X0160169Y0148200D02*
X0160169Y0147200D01*
X0159169Y0147200D01*
X0159169Y0143200D02*
X0160169Y0143200D01*
X0160169Y0142200D01*
X0160169Y0138200D02*
X0160169Y0137200D01*
X0159169Y0137200D01*
X0159169Y0133200D02*
X0160169Y0133200D01*
X0160169Y0132200D01*
X0160169Y0128200D02*
X0160169Y0127200D01*
X0159169Y0127200D01*
X0159169Y0123200D02*
X0160169Y0123200D01*
X0160169Y0122200D01*
X0160169Y0118200D02*
X0160169Y0117200D01*
X0159169Y0117200D01*
D45*
X0132537Y0078152D02*
X0132537Y0077835D01*
X0131903Y0077201D01*
X0131903Y0076250D01*
X0131903Y0077201D02*
X0131269Y0077835D01*
X0131269Y0078152D01*
X0130327Y0077835D02*
X0130327Y0077201D01*
X0130010Y0076884D01*
X0129059Y0076884D01*
X0129693Y0076884D02*
X0130327Y0076250D01*
X0129059Y0076250D02*
X0129059Y0078152D01*
X0130010Y0078152D01*
X0130327Y0077835D01*
X0128117Y0078152D02*
X0126849Y0078152D01*
X0127483Y0078152D02*
X0127483Y0076250D01*
X0125907Y0076567D02*
X0125590Y0076250D01*
X0124639Y0076250D01*
X0124639Y0078152D01*
X0125590Y0078152D01*
X0125907Y0077835D01*
X0125907Y0077518D01*
X0125590Y0077201D01*
X0124639Y0077201D01*
X0125590Y0077201D02*
X0125907Y0076884D01*
X0125907Y0076567D01*
X0058107Y0089917D02*
X0058107Y0091185D01*
X0057790Y0091502D01*
X0056839Y0091502D01*
X0056839Y0089600D01*
X0057790Y0089600D01*
X0058107Y0089917D01*
X0055897Y0089600D02*
X0054629Y0089600D01*
X0054629Y0091502D01*
X0055897Y0091502D01*
X0055263Y0090551D02*
X0054629Y0090551D01*
X0053687Y0089600D02*
X0052419Y0089600D01*
X0052419Y0091502D01*
X0051477Y0091185D02*
X0051477Y0090551D01*
X0051160Y0090234D01*
X0050209Y0090234D01*
X0050209Y0089600D02*
X0050209Y0091502D01*
X0051160Y0091502D01*
X0051477Y0091185D01*
X0050843Y0090234D02*
X0051477Y0089600D01*
X0049267Y0089600D02*
X0049267Y0091502D01*
X0047999Y0091502D02*
X0047999Y0089600D01*
X0048633Y0090234D01*
X0049267Y0089600D01*
X0047057Y0090551D02*
X0046740Y0090234D01*
X0045789Y0090234D01*
X0045789Y0089600D02*
X0045789Y0091502D01*
X0046740Y0091502D01*
X0047057Y0091185D01*
X0047057Y0090551D01*
X0036289Y0065685D02*
X0021329Y0065685D01*
X0021329Y0054268D01*
X0022510Y0054268D01*
X0022510Y0037732D01*
X0021329Y0037732D01*
X0021329Y0042063D01*
X0001250Y0042063D01*
X0001250Y0049937D01*
X0021329Y0049937D01*
X0021329Y0054268D01*
X0021329Y0049937D02*
X0021329Y0042063D01*
X0021329Y0037732D02*
X0021329Y0026315D01*
X0036289Y0026315D01*
X0036289Y0043244D01*
X0033533Y0043244D01*
X0033533Y0048756D01*
X0036289Y0048756D01*
X0036289Y0043244D01*
X0036289Y0048756D02*
X0036289Y0065685D01*
D46*
X0039221Y0055295D02*
X0040756Y0055295D01*
X0041523Y0054528D01*
X0041523Y0052226D01*
X0041523Y0053761D02*
X0043058Y0055295D01*
X0043058Y0052226D02*
X0038454Y0052226D01*
X0038454Y0054528D01*
X0039221Y0055295D01*
X0038454Y0050691D02*
X0038454Y0047622D01*
X0043058Y0047622D01*
X0043058Y0050691D01*
X0040756Y0049157D02*
X0040756Y0047622D01*
X0043058Y0046087D02*
X0038454Y0046087D01*
X0038454Y0043018D02*
X0043058Y0043018D01*
X0041523Y0044553D01*
X0043058Y0046087D01*
X0042291Y0041483D02*
X0039221Y0041483D01*
X0038454Y0040716D01*
X0038454Y0039181D01*
X0039221Y0038414D01*
X0042291Y0038414D01*
X0043058Y0039181D01*
X0043058Y0040716D01*
X0042291Y0041483D01*
X0040756Y0036880D02*
X0039221Y0036880D01*
X0038454Y0036112D01*
X0038454Y0033810D01*
X0043058Y0033810D01*
X0041523Y0033810D02*
X0041523Y0036112D01*
X0040756Y0036880D01*
M02*
